<svg width="100" height="96" viewBox="0 0 100 96" fill="none" xmlns="http://www.w3.org/2000/svg">
<g clip-path="url(#clip0_213_276)">
<g clip-path="url(#clip1_213_276)">
<path d="M43.83 46.0099L10.06 17.9199L0 48.8899L43.83 46.0099Z" fill="#1E3342"/>
<path d="M46.18 53.2699L9.04004 76.6999L35.38 95.8399L46.18 53.2699Z" fill="#1E3342"/>
<path d="M53.8199 53.2699L64.6199 95.8399L90.9599 76.6999L53.8199 53.2699Z" fill="#1E3342"/>
<path d="M56.17 46.0099L100 48.8899L89.94 17.9199L56.17 46.0099Z" fill="#1E3342"/>
<path d="M50 27.8399C57.4614 27.8399 63.51 21.7913 63.51 14.3299C63.51 6.86858 57.4614 0.819946 50 0.819946C42.5386 0.819946 36.49 6.86858 36.49 14.3299C36.49 21.7913 42.5386 27.8399 50 27.8399Z" fill="#1E3342"/>
</g>
</g>
<defs>
<clipPath id="clip0_213_276">
<rect width="100" height="95.78" fill="white"/>
</clipPath>
<clipPath id="clip1_213_276">
<rect width="100" height="95.78" fill="white" transform="translate(0 0.439941)"/>
</clipPath>
</defs>
</svg>
