<svg width="328" height="230" viewBox="0 0 328 230" fill="none" xmlns="http://www.w3.org/2000/svg">
<rect x="119" y="24" width="90" height="90" rx="45" fill="#DAE7FF"/>
<path d="M167.333 52.2083H154C153.116 52.2083 152.268 52.5595 151.643 53.1846C151.018 53.8097 150.667 54.6576 150.667 55.5416V82.2083C150.667 83.0924 151.018 83.9402 151.643 84.5653C152.268 85.1905 153.116 85.5416 154 85.5416H174C174.884 85.5416 175.732 85.1905 176.357 84.5653C176.982 83.9402 177.333 83.0924 177.333 82.2083V62.2083L167.333 52.2083ZM174 82.2083H154V55.5416H165.667V63.875H174V82.2083Z" fill="#383B40"/>
<circle cx="174" cy="79.125" r="9" fill="#91B7FF" stroke="#DAE7FF" stroke-width="2"/>
<path d="M179.25 77.625H175.75V74.125C175.75 73.6609 175.566 73.2158 175.237 72.8876C174.909 72.5594 174.464 72.375 174 72.375C173.536 72.375 173.091 72.5594 172.763 72.8876C172.434 73.2158 172.25 73.6609 172.25 74.125L172.312 77.625H168.75C168.286 77.625 167.841 77.8094 167.513 78.1376C167.184 78.4658 167 78.9109 167 79.375C167 79.8391 167.184 80.2842 167.513 80.6124C167.841 80.9406 168.286 81.125 168.75 81.125L172.312 81.0629L172.25 84.625C172.25 85.0891 172.434 85.5342 172.763 85.8624C173.091 86.1906 173.536 86.375 174 86.375C174.464 86.375 174.909 86.1906 175.237 85.8624C175.566 85.5342 175.75 85.0891 175.75 84.625V81.0629L179.25 81.125C179.714 81.125 180.159 80.9406 180.487 80.6124C180.816 80.2842 181 79.8391 181 79.375C181 78.9109 180.816 78.4658 180.487 78.1376C180.159 77.8094 179.714 77.625 179.25 77.625Z" fill="#052B73"/>
<path d="M131.91 152H129.95L125.512 145.294V152H123.552V142.214H125.512L129.95 148.934V142.214H131.91V152ZM137.791 152.126C137.044 152.126 136.372 151.963 135.775 151.636C135.178 151.3 134.706 150.829 134.361 150.222C134.025 149.615 133.857 148.915 133.857 148.122C133.857 147.329 134.03 146.629 134.375 146.022C134.73 145.415 135.21 144.949 135.817 144.622C136.424 144.286 137.1 144.118 137.847 144.118C138.594 144.118 139.27 144.286 139.877 144.622C140.484 144.949 140.96 145.415 141.305 146.022C141.66 146.629 141.837 147.329 141.837 148.122C141.837 148.915 141.655 149.615 141.291 150.222C140.936 150.829 140.451 151.3 139.835 151.636C139.228 151.963 138.547 152.126 137.791 152.126ZM137.791 150.418C138.146 150.418 138.477 150.334 138.785 150.166C139.102 149.989 139.354 149.727 139.541 149.382C139.728 149.037 139.821 148.617 139.821 148.122C139.821 147.385 139.625 146.82 139.233 146.428C138.85 146.027 138.379 145.826 137.819 145.826C137.259 145.826 136.788 146.027 136.405 146.428C136.032 146.82 135.845 147.385 135.845 148.122C135.845 148.859 136.027 149.429 136.391 149.83C136.764 150.222 137.231 150.418 137.791 150.418ZM151.167 145.854H149.809V152H147.821V145.854H146.939V144.244H147.821V143.852C147.821 142.9 148.091 142.2 148.633 141.752C149.174 141.304 149.991 141.094 151.083 141.122V142.774C150.607 142.765 150.275 142.844 150.089 143.012C149.902 143.18 149.809 143.483 149.809 143.922V144.244H151.167V145.854ZM153.931 143.32C153.585 143.32 153.296 143.213 153.063 142.998C152.839 142.774 152.727 142.499 152.727 142.172C152.727 141.845 152.839 141.575 153.063 141.36C153.296 141.136 153.585 141.024 153.931 141.024C154.276 141.024 154.561 141.136 154.785 141.36C155.018 141.575 155.135 141.845 155.135 142.172C155.135 142.499 155.018 142.774 154.785 142.998C154.561 143.213 154.276 143.32 153.931 143.32ZM154.897 144.244V152H152.937V144.244H154.897ZM159.293 141.64V152H157.333V141.64H159.293ZM168.94 147.954C168.94 148.234 168.921 148.486 168.884 148.71H163.214C163.26 149.27 163.456 149.709 163.802 150.026C164.147 150.343 164.572 150.502 165.076 150.502C165.804 150.502 166.322 150.189 166.63 149.564H168.744C168.52 150.311 168.09 150.927 167.456 151.412C166.821 151.888 166.042 152.126 165.118 152.126C164.371 152.126 163.699 151.963 163.102 151.636C162.514 151.3 162.052 150.829 161.716 150.222C161.389 149.615 161.226 148.915 161.226 148.122C161.226 147.319 161.389 146.615 161.716 146.008C162.042 145.401 162.5 144.935 163.088 144.608C163.676 144.281 164.352 144.118 165.118 144.118C165.855 144.118 166.513 144.277 167.092 144.594C167.68 144.911 168.132 145.364 168.45 145.952C168.776 146.531 168.94 147.198 168.94 147.954ZM166.91 147.394C166.9 146.89 166.718 146.489 166.364 146.19C166.009 145.882 165.575 145.728 165.062 145.728C164.576 145.728 164.166 145.877 163.83 146.176C163.503 146.465 163.302 146.871 163.228 147.394H166.91ZM173.838 152.126C173.204 152.126 172.634 152.014 172.13 151.79C171.626 151.557 171.225 151.244 170.926 150.852C170.637 150.46 170.478 150.026 170.45 149.55H172.424C172.462 149.849 172.606 150.096 172.858 150.292C173.12 150.488 173.442 150.586 173.824 150.586C174.198 150.586 174.487 150.511 174.692 150.362C174.907 150.213 175.014 150.021 175.014 149.788C175.014 149.536 174.884 149.349 174.622 149.228C174.37 149.097 173.964 148.957 173.404 148.808C172.826 148.668 172.35 148.523 171.976 148.374C171.612 148.225 171.295 147.996 171.024 147.688C170.763 147.38 170.632 146.965 170.632 146.442C170.632 146.013 170.754 145.621 170.996 145.266C171.248 144.911 171.603 144.631 172.06 144.426C172.527 144.221 173.073 144.118 173.698 144.118C174.622 144.118 175.36 144.351 175.91 144.818C176.461 145.275 176.764 145.896 176.82 146.68H174.944C174.916 146.372 174.786 146.129 174.552 145.952C174.328 145.765 174.025 145.672 173.642 145.672C173.288 145.672 173.012 145.737 172.816 145.868C172.63 145.999 172.536 146.181 172.536 146.414C172.536 146.675 172.667 146.876 172.928 147.016C173.19 147.147 173.596 147.282 174.146 147.422C174.706 147.562 175.168 147.707 175.532 147.856C175.896 148.005 176.209 148.239 176.47 148.556C176.741 148.864 176.881 149.275 176.89 149.788C176.89 150.236 176.764 150.637 176.512 150.992C176.27 151.347 175.915 151.627 175.448 151.832C174.991 152.028 174.454 152.126 173.838 152.126ZM190.255 144.244L185.453 155.668H183.367L185.047 151.804L181.939 144.244H184.137L186.139 149.662L188.169 144.244H190.255ZM199.022 147.954C199.022 148.234 199.003 148.486 198.966 148.71H193.296C193.342 149.27 193.538 149.709 193.884 150.026C194.229 150.343 194.654 150.502 195.158 150.502C195.886 150.502 196.404 150.189 196.712 149.564H198.826C198.602 150.311 198.172 150.927 197.538 151.412C196.903 151.888 196.124 152.126 195.2 152.126C194.453 152.126 193.781 151.963 193.184 151.636C192.596 151.3 192.134 150.829 191.798 150.222C191.471 149.615 191.308 148.915 191.308 148.122C191.308 147.319 191.471 146.615 191.798 146.008C192.124 145.401 192.582 144.935 193.17 144.608C193.758 144.281 194.434 144.118 195.2 144.118C195.937 144.118 196.595 144.277 197.174 144.594C197.762 144.911 198.214 145.364 198.532 145.952C198.858 146.531 199.022 147.198 199.022 147.954ZM196.992 147.394C196.982 146.89 196.8 146.489 196.446 146.19C196.091 145.882 195.657 145.728 195.144 145.728C194.658 145.728 194.248 145.877 193.912 146.176C193.585 146.465 193.384 146.871 193.31 147.394H196.992ZM203.234 145.854V149.606C203.234 149.867 203.295 150.059 203.416 150.18C203.547 150.292 203.762 150.348 204.06 150.348H204.97V152H203.738C202.086 152 201.26 151.197 201.26 149.592V145.854H200.336V144.244H201.26V142.326H203.234V144.244H204.97V145.854H203.234Z" fill="#383B40"/>
<path d="M46.2269 176.83H41.9709L41.1869 179H39.8429L43.3709 169.298H44.8409L48.3549 179H47.0109L46.2269 176.83ZM45.8629 175.794L44.0989 170.866L42.3349 175.794H45.8629ZM53.0145 172.378H51.4045V179H50.1305V172.378H49.1365V171.328H50.1305V170.782C50.1305 169.923 50.3498 169.298 50.7885 168.906C51.2365 168.505 51.9505 168.304 52.9305 168.304V169.368C52.3705 169.368 51.9738 169.48 51.7405 169.704C51.5165 169.919 51.4045 170.278 51.4045 170.782V171.328H53.0145V172.378ZM56.0539 172.378V176.9C56.0539 177.273 56.1332 177.539 56.2919 177.698C56.4505 177.847 56.7259 177.922 57.1179 177.922H58.0559V179H56.9079C56.1985 179 55.6665 178.837 55.3119 178.51C54.9572 178.183 54.7799 177.647 54.7799 176.9V172.378H53.7859V171.328H54.7799V169.396H56.0539V171.328H58.0559V172.378H56.0539ZM66.5995 174.87C66.5995 175.113 66.5855 175.369 66.5575 175.64H60.4255C60.4722 176.396 60.7288 176.989 61.1955 177.418C61.6715 177.838 62.2455 178.048 62.9175 178.048C63.4682 178.048 63.9255 177.922 64.2895 177.67C64.6628 177.409 64.9242 177.063 65.0735 176.634H66.4455C66.2402 177.371 65.8295 177.973 65.2135 178.44C64.5975 178.897 63.8322 179.126 62.9175 179.126C62.1895 179.126 61.5362 178.963 60.9575 178.636C60.3882 178.309 59.9402 177.847 59.6135 177.25C59.2868 176.643 59.1235 175.943 59.1235 175.15C59.1235 174.357 59.2822 173.661 59.5995 173.064C59.9168 172.467 60.3602 172.009 60.9295 171.692C61.5082 171.365 62.1708 171.202 62.9175 171.202C63.6455 171.202 64.2895 171.361 64.8495 171.678C65.4095 171.995 65.8388 172.434 66.1375 172.994C66.4455 173.545 66.5995 174.17 66.5995 174.87ZM65.2835 174.604C65.2835 174.119 65.1762 173.703 64.9615 173.358C64.7468 173.003 64.4528 172.737 64.0795 172.56C63.7155 172.373 63.3095 172.28 62.8615 172.28C62.2175 172.28 61.6668 172.485 61.2095 172.896C60.7615 173.307 60.5048 173.876 60.4395 174.604H65.2835ZM69.5551 172.574C69.7791 172.135 70.0965 171.795 70.5071 171.552C70.9271 171.309 71.4358 171.188 72.0331 171.188V172.504H71.6971C70.2691 172.504 69.5551 173.279 69.5551 174.828V179H68.2811V171.328H69.5551V172.574ZM83.8442 171.328L79.2242 182.612H77.9082L79.4202 178.916L76.3262 171.328H77.7402L80.1482 177.544L82.5282 171.328H83.8442ZM88.4709 179.126C87.7522 179.126 87.0989 178.963 86.5109 178.636C85.9322 178.309 85.4749 177.847 85.1389 177.25C84.8122 176.643 84.6489 175.943 84.6489 175.15C84.6489 174.366 84.8169 173.675 85.1529 173.078C85.4982 172.471 85.9649 172.009 86.5529 171.692C87.1409 171.365 87.7989 171.202 88.5269 171.202C89.2549 171.202 89.9129 171.365 90.5009 171.692C91.0889 172.009 91.5509 172.467 91.8869 173.064C92.2322 173.661 92.4049 174.357 92.4049 175.15C92.4049 175.943 92.2275 176.643 91.8729 177.25C91.5275 177.847 91.0562 178.309 90.4589 178.636C89.8615 178.963 89.1989 179.126 88.4709 179.126ZM88.4709 178.006C88.9282 178.006 89.3575 177.899 89.7589 177.684C90.1602 177.469 90.4822 177.147 90.7249 176.718C90.9769 176.289 91.1029 175.766 91.1029 175.15C91.1029 174.534 90.9815 174.011 90.7389 173.582C90.4962 173.153 90.1789 172.835 89.7869 172.63C89.3949 172.415 88.9702 172.308 88.5129 172.308C88.0462 172.308 87.6169 172.415 87.2249 172.63C86.8422 172.835 86.5342 173.153 86.3009 173.582C86.0675 174.011 85.9509 174.534 85.9509 175.15C85.9509 175.775 86.0629 176.303 86.2869 176.732C86.5202 177.161 86.8282 177.483 87.2109 177.698C87.5935 177.903 88.0135 178.006 88.4709 178.006ZM100.884 171.328V179H99.61V177.866C99.3673 178.258 99.0266 178.566 98.588 178.79C98.1586 179.005 97.6826 179.112 97.16 179.112C96.5626 179.112 96.026 178.991 95.55 178.748C95.074 178.496 94.696 178.123 94.416 177.628C94.1453 177.133 94.01 176.531 94.01 175.822V171.328H95.27V175.654C95.27 176.41 95.4613 176.993 95.844 177.404C96.2266 177.805 96.7493 178.006 97.412 178.006C98.0933 178.006 98.63 177.796 99.022 177.376C99.414 176.956 99.61 176.345 99.61 175.542V171.328H100.884ZM113.571 171.328V179H112.297V177.866C112.055 178.258 111.714 178.566 111.275 178.79C110.846 179.005 110.37 179.112 109.847 179.112C109.25 179.112 108.713 178.991 108.237 178.748C107.761 178.496 107.383 178.123 107.103 177.628C106.833 177.133 106.697 176.531 106.697 175.822V171.328H107.957V175.654C107.957 176.41 108.149 176.993 108.531 177.404C108.914 177.805 109.437 178.006 110.099 178.006C110.781 178.006 111.317 177.796 111.709 177.376C112.101 176.956 112.297 176.345 112.297 175.542V171.328H113.571ZM116.997 172.742C117.249 172.303 117.622 171.939 118.117 171.65C118.621 171.351 119.204 171.202 119.867 171.202C120.548 171.202 121.164 171.365 121.715 171.692C122.275 172.019 122.713 172.481 123.031 173.078C123.348 173.666 123.507 174.352 123.507 175.136C123.507 175.911 123.348 176.601 123.031 177.208C122.713 177.815 122.275 178.286 121.715 178.622C121.164 178.958 120.548 179.126 119.867 179.126C119.213 179.126 118.635 178.981 118.131 178.692C117.636 178.393 117.258 178.025 116.997 177.586V182.64H115.723V171.328H116.997V172.742ZM122.205 175.136C122.205 174.557 122.088 174.053 121.855 173.624C121.621 173.195 121.304 172.868 120.903 172.644C120.511 172.42 120.077 172.308 119.601 172.308C119.134 172.308 118.7 172.425 118.299 172.658C117.907 172.882 117.589 173.213 117.347 173.652C117.113 174.081 116.997 174.581 116.997 175.15C116.997 175.729 117.113 176.237 117.347 176.676C117.589 177.105 117.907 177.437 118.299 177.67C118.7 177.894 119.134 178.006 119.601 178.006C120.077 178.006 120.511 177.894 120.903 177.67C121.304 177.437 121.621 177.105 121.855 176.676C122.088 176.237 122.205 175.724 122.205 175.136ZM126.457 168.64V179H125.183V168.64H126.457ZM131.975 179.126C131.256 179.126 130.603 178.963 130.015 178.636C129.436 178.309 128.979 177.847 128.643 177.25C128.316 176.643 128.153 175.943 128.153 175.15C128.153 174.366 128.321 173.675 128.657 173.078C129.002 172.471 129.469 172.009 130.057 171.692C130.645 171.365 131.303 171.202 132.031 171.202C132.759 171.202 133.417 171.365 134.005 171.692C134.593 172.009 135.055 172.467 135.391 173.064C135.736 173.661 135.909 174.357 135.909 175.15C135.909 175.943 135.731 176.643 135.377 177.25C135.031 177.847 134.56 178.309 133.963 178.636C133.365 178.963 132.703 179.126 131.975 179.126ZM131.975 178.006C132.432 178.006 132.861 177.899 133.263 177.684C133.664 177.469 133.986 177.147 134.229 176.718C134.481 176.289 134.607 175.766 134.607 175.15C134.607 174.534 134.485 174.011 134.243 173.582C134 173.153 133.683 172.835 133.291 172.63C132.899 172.415 132.474 172.308 132.017 172.308C131.55 172.308 131.121 172.415 130.729 172.63C130.346 172.835 130.038 173.153 129.805 173.582C129.571 174.011 129.455 174.534 129.455 175.15C129.455 175.775 129.567 176.303 129.791 176.732C130.024 177.161 130.332 177.483 130.715 177.698C131.097 177.903 131.517 178.006 131.975 178.006ZM137.108 175.136C137.108 174.352 137.267 173.666 137.584 173.078C137.901 172.481 138.335 172.019 138.886 171.692C139.446 171.365 140.067 171.202 140.748 171.202C141.42 171.202 142.003 171.347 142.498 171.636C142.993 171.925 143.361 172.289 143.604 172.728V171.328H144.892V179H143.604V177.572C143.352 178.02 142.974 178.393 142.47 178.692C141.975 178.981 141.397 179.126 140.734 179.126C140.053 179.126 139.437 178.958 138.886 178.622C138.335 178.286 137.901 177.815 137.584 177.208C137.267 176.601 137.108 175.911 137.108 175.136ZM143.604 175.15C143.604 174.571 143.487 174.067 143.254 173.638C143.021 173.209 142.703 172.882 142.302 172.658C141.91 172.425 141.476 172.308 141 172.308C140.524 172.308 140.09 172.42 139.698 172.644C139.306 172.868 138.993 173.195 138.76 173.624C138.527 174.053 138.41 174.557 138.41 175.136C138.41 175.724 138.527 176.237 138.76 176.676C138.993 177.105 139.306 177.437 139.698 177.67C140.09 177.894 140.524 178.006 141 178.006C141.476 178.006 141.91 177.894 142.302 177.67C142.703 177.437 143.021 177.105 143.254 176.676C143.487 176.237 143.604 175.729 143.604 175.15ZM146.569 175.136C146.569 174.352 146.727 173.666 147.045 173.078C147.362 172.481 147.796 172.019 148.347 171.692C148.907 171.365 149.532 171.202 150.223 171.202C150.82 171.202 151.375 171.342 151.889 171.622C152.402 171.893 152.794 172.252 153.065 172.7V168.64H154.353V179H153.065V177.558C152.813 178.015 152.439 178.393 151.945 178.692C151.45 178.981 150.871 179.126 150.209 179.126C149.527 179.126 148.907 178.958 148.347 178.622C147.796 178.286 147.362 177.815 147.045 177.208C146.727 176.601 146.569 175.911 146.569 175.136ZM153.065 175.15C153.065 174.571 152.948 174.067 152.715 173.638C152.481 173.209 152.164 172.882 151.763 172.658C151.371 172.425 150.937 172.308 150.461 172.308C149.985 172.308 149.551 172.42 149.159 172.644C148.767 172.868 148.454 173.195 148.221 173.624C147.987 174.053 147.871 174.557 147.871 175.136C147.871 175.724 147.987 176.237 148.221 176.676C148.454 177.105 148.767 177.437 149.159 177.67C149.551 177.894 149.985 178.006 150.461 178.006C150.937 178.006 151.371 177.894 151.763 177.67C152.164 177.437 152.481 177.105 152.715 176.676C152.948 176.237 153.065 175.729 153.065 175.15ZM159.762 175.136C159.762 174.352 159.921 173.666 160.238 173.078C160.555 172.481 160.989 172.019 161.54 171.692C162.1 171.365 162.721 171.202 163.402 171.202C164.074 171.202 164.657 171.347 165.152 171.636C165.647 171.925 166.015 172.289 166.258 172.728V171.328H167.546V179H166.258V177.572C166.006 178.02 165.628 178.393 165.124 178.692C164.629 178.981 164.051 179.126 163.388 179.126C162.707 179.126 162.091 178.958 161.54 178.622C160.989 178.286 160.555 177.815 160.238 177.208C159.921 176.601 159.762 175.911 159.762 175.136ZM166.258 175.15C166.258 174.571 166.141 174.067 165.908 173.638C165.675 173.209 165.357 172.882 164.956 172.658C164.564 172.425 164.13 172.308 163.654 172.308C163.178 172.308 162.744 172.42 162.352 172.644C161.96 172.868 161.647 173.195 161.414 173.624C161.181 174.053 161.064 174.557 161.064 175.136C161.064 175.724 161.181 176.237 161.414 176.676C161.647 177.105 161.96 177.437 162.352 177.67C162.744 177.894 163.178 178.006 163.654 178.006C164.13 178.006 164.564 177.894 164.956 177.67C165.357 177.437 165.675 177.105 165.908 176.676C166.141 176.237 166.258 175.729 166.258 175.15ZM176.554 172.378H174.944V179H173.67V172.378H172.676V171.328H173.67V170.782C173.67 169.923 173.889 169.298 174.328 168.906C174.776 168.505 175.49 168.304 176.47 168.304V169.368C175.91 169.368 175.513 169.48 175.28 169.704C175.056 169.919 174.944 170.278 174.944 170.782V171.328H176.554V172.378ZM178.697 170.082C178.454 170.082 178.249 169.998 178.081 169.83C177.913 169.662 177.829 169.457 177.829 169.214C177.829 168.971 177.913 168.766 178.081 168.598C178.249 168.43 178.454 168.346 178.697 168.346C178.93 168.346 179.126 168.43 179.285 168.598C179.453 168.766 179.537 168.971 179.537 169.214C179.537 169.457 179.453 169.662 179.285 169.83C179.126 169.998 178.93 170.082 178.697 170.082ZM179.313 171.328V179H178.039V171.328H179.313ZM182.758 168.64V179H181.484V168.64H182.758ZM191.93 174.87C191.93 175.113 191.916 175.369 191.888 175.64H185.756C185.802 176.396 186.059 176.989 186.526 177.418C187.002 177.838 187.576 178.048 188.248 178.048C188.798 178.048 189.256 177.922 189.62 177.67C189.993 177.409 190.254 177.063 190.404 176.634H191.776C191.57 177.371 191.16 177.973 190.544 178.44C189.928 178.897 189.162 179.126 188.248 179.126C187.52 179.126 186.866 178.963 186.288 178.636C185.718 178.309 185.27 177.847 184.944 177.25C184.617 176.643 184.454 175.943 184.454 175.15C184.454 174.357 184.612 173.661 184.93 173.064C185.247 172.467 185.69 172.009 186.26 171.692C186.838 171.365 187.501 171.202 188.248 171.202C188.976 171.202 189.62 171.361 190.18 171.678C190.74 171.995 191.169 172.434 191.468 172.994C191.776 173.545 191.93 174.17 191.93 174.87ZM190.614 174.604C190.614 174.119 190.506 173.703 190.292 173.358C190.077 173.003 189.783 172.737 189.41 172.56C189.046 172.373 188.64 172.28 188.192 172.28C187.548 172.28 186.997 172.485 186.54 172.896C186.092 173.307 185.835 173.876 185.77 174.604H190.614ZM194.927 177.236L193.359 181.002H192.505L193.527 177.236H194.927ZM200.777 170.082C200.534 170.082 200.329 169.998 200.161 169.83C199.993 169.662 199.909 169.457 199.909 169.214C199.909 168.971 199.993 168.766 200.161 168.598C200.329 168.43 200.534 168.346 200.777 168.346C201.01 168.346 201.206 168.43 201.365 168.598C201.533 168.766 201.617 168.971 201.617 169.214C201.617 169.457 201.533 169.662 201.365 169.83C201.206 169.998 201.01 170.082 200.777 170.082ZM201.393 171.328V179H200.119V171.328H201.393ZM205.118 172.378V176.9C205.118 177.273 205.198 177.539 205.356 177.698C205.515 177.847 205.79 177.922 206.182 177.922H207.12V179H205.972C205.263 179 204.731 178.837 204.376 178.51C204.022 178.183 203.844 177.647 203.844 176.9V172.378H202.85V171.328H203.844V169.396H205.118V171.328H207.12V172.378H205.118ZM222.616 171.328L220.222 179H218.906L217.058 172.91L215.21 179H213.894L211.486 171.328H212.788L214.552 177.768L216.456 171.328H217.758L219.62 177.782L221.356 171.328H222.616ZM224.539 170.082C224.296 170.082 224.091 169.998 223.923 169.83C223.755 169.662 223.671 169.457 223.671 169.214C223.671 168.971 223.755 168.766 223.923 168.598C224.091 168.43 224.296 168.346 224.539 168.346C224.772 168.346 224.968 168.43 225.127 168.598C225.295 168.766 225.379 168.971 225.379 169.214C225.379 169.457 225.295 169.662 225.127 169.83C224.968 169.998 224.772 170.082 224.539 170.082ZM225.155 171.328V179H223.881V171.328H225.155ZM228.6 168.64V179H227.326V168.64H228.6ZM232.045 168.64V179H230.771V168.64H232.045ZM237.473 175.136C237.473 174.352 237.632 173.666 237.949 173.078C238.266 172.481 238.7 172.019 239.251 171.692C239.811 171.365 240.432 171.202 241.113 171.202C241.785 171.202 242.368 171.347 242.863 171.636C243.358 171.925 243.726 172.289 243.969 172.728V171.328H245.257V179H243.969V177.572C243.717 178.02 243.339 178.393 242.835 178.692C242.34 178.981 241.762 179.126 241.099 179.126C240.418 179.126 239.802 178.958 239.251 178.622C238.7 178.286 238.266 177.815 237.949 177.208C237.632 176.601 237.473 175.911 237.473 175.136ZM243.969 175.15C243.969 174.571 243.852 174.067 243.619 173.638C243.386 173.209 243.068 172.882 242.667 172.658C242.275 172.425 241.841 172.308 241.365 172.308C240.889 172.308 240.455 172.42 240.063 172.644C239.671 172.868 239.358 173.195 239.125 173.624C238.892 174.053 238.775 174.557 238.775 175.136C238.775 175.724 238.892 176.237 239.125 176.676C239.358 177.105 239.671 177.437 240.063 177.67C240.455 177.894 240.889 178.006 241.365 178.006C241.841 178.006 242.275 177.894 242.667 177.67C243.068 177.437 243.386 177.105 243.619 176.676C243.852 176.237 243.969 175.729 243.969 175.15ZM248.684 172.742C248.936 172.303 249.309 171.939 249.804 171.65C250.308 171.351 250.891 171.202 251.554 171.202C252.235 171.202 252.851 171.365 253.402 171.692C253.962 172.019 254.401 172.481 254.718 173.078C255.035 173.666 255.194 174.352 255.194 175.136C255.194 175.911 255.035 176.601 254.718 177.208C254.401 177.815 253.962 178.286 253.402 178.622C252.851 178.958 252.235 179.126 251.554 179.126C250.901 179.126 250.322 178.981 249.818 178.692C249.323 178.393 248.945 178.025 248.684 177.586V182.64H247.41V171.328H248.684V172.742ZM253.892 175.136C253.892 174.557 253.775 174.053 253.542 173.624C253.309 173.195 252.991 172.868 252.59 172.644C252.198 172.42 251.764 172.308 251.288 172.308C250.821 172.308 250.387 172.425 249.986 172.658C249.594 172.882 249.277 173.213 249.034 173.652C248.801 174.081 248.684 174.581 248.684 175.15C248.684 175.729 248.801 176.237 249.034 176.676C249.277 177.105 249.594 177.437 249.986 177.67C250.387 177.894 250.821 178.006 251.288 178.006C251.764 178.006 252.198 177.894 252.59 177.67C252.991 177.437 253.309 177.105 253.542 176.676C253.775 176.237 253.892 175.724 253.892 175.136ZM258.145 172.742C258.397 172.303 258.77 171.939 259.265 171.65C259.769 171.351 260.352 171.202 261.015 171.202C261.696 171.202 262.312 171.365 262.863 171.692C263.423 172.019 263.862 172.481 264.179 173.078C264.496 173.666 264.655 174.352 264.655 175.136C264.655 175.911 264.496 176.601 264.179 177.208C263.862 177.815 263.423 178.286 262.863 178.622C262.312 178.958 261.696 179.126 261.015 179.126C260.362 179.126 259.783 178.981 259.279 178.692C258.784 178.393 258.406 178.025 258.145 177.586V182.64H256.871V171.328H258.145V172.742ZM263.353 175.136C263.353 174.557 263.236 174.053 263.003 173.624C262.77 173.195 262.452 172.868 262.051 172.644C261.659 172.42 261.225 172.308 260.749 172.308C260.282 172.308 259.848 172.425 259.447 172.658C259.055 172.882 258.738 173.213 258.495 173.652C258.262 174.081 258.145 174.581 258.145 175.15C258.145 175.729 258.262 176.237 258.495 176.676C258.738 177.105 259.055 177.437 259.447 177.67C259.848 177.894 260.282 178.006 260.749 178.006C261.225 178.006 261.659 177.894 262.051 177.67C262.452 177.437 262.77 177.105 263.003 176.676C263.236 176.237 263.353 175.724 263.353 175.136ZM273.332 174.87C273.332 175.113 273.318 175.369 273.29 175.64H267.158C267.205 176.396 267.461 176.989 267.928 177.418C268.404 177.838 268.978 178.048 269.65 178.048C270.201 178.048 270.658 177.922 271.022 177.67C271.395 177.409 271.657 177.063 271.806 176.634H273.178C272.973 177.371 272.562 177.973 271.946 178.44C271.33 178.897 270.565 179.126 269.65 179.126C268.922 179.126 268.269 178.963 267.69 178.636C267.121 178.309 266.673 177.847 266.346 177.25C266.019 176.643 265.856 175.943 265.856 175.15C265.856 174.357 266.015 173.661 266.332 173.064C266.649 172.467 267.093 172.009 267.662 171.692C268.241 171.365 268.903 171.202 269.65 171.202C270.378 171.202 271.022 171.361 271.582 171.678C272.142 171.995 272.571 172.434 272.87 172.994C273.178 173.545 273.332 174.17 273.332 174.87ZM272.016 174.604C272.016 174.119 271.909 173.703 271.694 173.358C271.479 173.003 271.185 172.737 270.812 172.56C270.448 172.373 270.042 172.28 269.594 172.28C268.95 172.28 268.399 172.485 267.942 172.896C267.494 173.307 267.237 173.876 267.172 174.604H272.016ZM274.538 175.136C274.538 174.352 274.696 173.666 275.014 173.078C275.331 172.481 275.765 172.019 276.316 171.692C276.876 171.365 277.496 171.202 278.178 171.202C278.85 171.202 279.433 171.347 279.928 171.636C280.422 171.925 280.791 172.289 281.034 172.728V171.328H282.322V179H281.034V177.572C280.782 178.02 280.404 178.393 279.9 178.692C279.405 178.981 278.826 179.126 278.164 179.126C277.482 179.126 276.866 178.958 276.316 178.622C275.765 178.286 275.331 177.815 275.014 177.208C274.696 176.601 274.538 175.911 274.538 175.136ZM281.034 175.15C281.034 174.571 280.917 174.067 280.684 173.638C280.45 173.209 280.133 172.882 279.732 172.658C279.34 172.425 278.906 172.308 278.43 172.308C277.954 172.308 277.52 172.42 277.128 172.644C276.736 172.868 276.423 173.195 276.19 173.624C275.956 174.053 275.84 174.557 275.84 175.136C275.84 175.724 275.956 176.237 276.19 176.676C276.423 177.105 276.736 177.437 277.128 177.67C277.52 177.894 277.954 178.006 278.43 178.006C278.906 178.006 279.34 177.894 279.732 177.67C280.133 177.437 280.45 177.105 280.684 176.676C280.917 176.237 281.034 175.729 281.034 175.15ZM285.748 172.574C285.972 172.135 286.29 171.795 286.7 171.552C287.12 171.309 287.629 171.188 288.226 171.188V172.504H287.89C286.462 172.504 285.748 173.279 285.748 174.828V179H284.474V171.328H285.748V172.574ZM81.4339 192.188C82.0125 192.188 82.5352 192.314 83.0019 192.566C83.4685 192.809 83.8325 193.177 84.0939 193.672C84.3645 194.167 84.4999 194.769 84.4999 195.478V200H83.2399V195.66C83.2399 194.895 83.0485 194.311 82.6659 193.91C82.2832 193.499 81.7605 193.294 81.0979 193.294C80.4259 193.294 79.8892 193.504 79.4879 193.924C79.0959 194.344 78.8999 194.955 78.8999 195.758V200H77.6259V189.64H78.8999V193.42C79.1519 193.028 79.4972 192.725 79.9359 192.51C80.3839 192.295 80.8832 192.188 81.4339 192.188ZM93.5809 195.87C93.5809 196.113 93.5669 196.369 93.5389 196.64H87.4069C87.4536 197.396 87.7103 197.989 88.1769 198.418C88.6529 198.838 89.2269 199.048 89.8989 199.048C90.4496 199.048 90.9069 198.922 91.2709 198.67C91.6443 198.409 91.9056 198.063 92.0549 197.634H93.4269C93.2216 198.371 92.8109 198.973 92.1949 199.44C91.5789 199.897 90.8136 200.126 89.8989 200.126C89.1709 200.126 88.5176 199.963 87.9389 199.636C87.3696 199.309 86.9216 198.847 86.5949 198.25C86.2683 197.643 86.1049 196.943 86.1049 196.15C86.1049 195.357 86.2636 194.661 86.5809 194.064C86.8983 193.467 87.3416 193.009 87.9109 192.692C88.4896 192.365 89.1523 192.202 89.8989 192.202C90.6269 192.202 91.2709 192.361 91.8309 192.678C92.3909 192.995 92.8203 193.434 93.1189 193.994C93.4269 194.545 93.5809 195.17 93.5809 195.87ZM92.2649 195.604C92.2649 195.119 92.1576 194.703 91.9429 194.358C91.7283 194.003 91.4343 193.737 91.0609 193.56C90.6969 193.373 90.2909 193.28 89.8429 193.28C89.1989 193.28 88.6483 193.485 88.1909 193.896C87.7429 194.307 87.4863 194.876 87.4209 195.604H92.2649ZM96.5366 193.574C96.7606 193.135 97.0779 192.795 97.4886 192.552C97.9086 192.309 98.4172 192.188 99.0146 192.188V193.504H98.6786C97.2506 193.504 96.5366 194.279 96.5366 195.828V200H95.2626V192.328H96.5366V193.574ZM107.485 195.87C107.485 196.113 107.471 196.369 107.443 196.64H101.311C101.358 197.396 101.615 197.989 102.081 198.418C102.557 198.838 103.131 199.048 103.803 199.048C104.354 199.048 104.811 198.922 105.175 198.67C105.549 198.409 105.81 198.063 105.959 197.634H107.331C107.126 198.371 106.715 198.973 106.099 199.44C105.483 199.897 104.718 200.126 103.803 200.126C103.075 200.126 102.422 199.963 101.843 199.636C101.274 199.309 100.826 198.847 100.499 198.25C100.173 197.643 100.009 196.943 100.009 196.15C100.009 195.357 100.168 194.661 100.485 194.064C100.803 193.467 101.246 193.009 101.815 192.692C102.394 192.365 103.057 192.202 103.803 192.202C104.531 192.202 105.175 192.361 105.735 192.678C106.295 192.995 106.725 193.434 107.023 193.994C107.331 194.545 107.485 195.17 107.485 195.87ZM106.169 195.604C106.169 195.119 106.062 194.703 105.847 194.358C105.633 194.003 105.339 193.737 104.965 193.56C104.601 193.373 104.195 193.28 103.747 193.28C103.103 193.28 102.553 193.485 102.095 193.896C101.647 194.307 101.391 194.876 101.325 195.604H106.169ZM112.423 196.136C112.423 195.352 112.582 194.666 112.899 194.078C113.217 193.481 113.651 193.019 114.201 192.692C114.761 192.365 115.382 192.202 116.063 192.202C116.735 192.202 117.319 192.347 117.813 192.636C118.308 192.925 118.677 193.289 118.919 193.728V192.328H120.207V200H118.919V198.572C118.667 199.02 118.289 199.393 117.785 199.692C117.291 199.981 116.712 200.126 116.049 200.126C115.368 200.126 114.752 199.958 114.201 199.622C113.651 199.286 113.217 198.815 112.899 198.208C112.582 197.601 112.423 196.911 112.423 196.136ZM118.919 196.15C118.919 195.571 118.803 195.067 118.569 194.638C118.336 194.209 118.019 193.882 117.617 193.658C117.225 193.425 116.791 193.308 116.315 193.308C115.839 193.308 115.405 193.42 115.013 193.644C114.621 193.868 114.309 194.195 114.075 194.624C113.842 195.053 113.725 195.557 113.725 196.136C113.725 196.724 113.842 197.237 114.075 197.676C114.309 198.105 114.621 198.437 115.013 198.67C115.405 198.894 115.839 199.006 116.315 199.006C116.791 199.006 117.225 198.894 117.617 198.67C118.019 198.437 118.336 198.105 118.569 197.676C118.803 197.237 118.919 196.729 118.919 196.15ZM123.634 189.64V200H122.36V189.64H123.634ZM129.152 200.126C128.433 200.126 127.78 199.963 127.192 199.636C126.613 199.309 126.156 198.847 125.82 198.25C125.493 197.643 125.33 196.943 125.33 196.15C125.33 195.366 125.498 194.675 125.834 194.078C126.179 193.471 126.646 193.009 127.234 192.692C127.822 192.365 128.48 192.202 129.208 192.202C129.936 192.202 130.594 192.365 131.182 192.692C131.77 193.009 132.232 193.467 132.568 194.064C132.913 194.661 133.086 195.357 133.086 196.15C133.086 196.943 132.908 197.643 132.554 198.25C132.208 198.847 131.737 199.309 131.14 199.636C130.542 199.963 129.88 200.126 129.152 200.126ZM129.152 199.006C129.609 199.006 130.038 198.899 130.44 198.684C130.841 198.469 131.163 198.147 131.406 197.718C131.658 197.289 131.784 196.766 131.784 196.15C131.784 195.534 131.662 195.011 131.42 194.582C131.177 194.153 130.86 193.835 130.468 193.63C130.076 193.415 129.651 193.308 129.194 193.308C128.727 193.308 128.298 193.415 127.906 193.63C127.523 193.835 127.215 194.153 126.982 194.582C126.748 195.011 126.632 195.534 126.632 196.15C126.632 196.775 126.744 197.303 126.968 197.732C127.201 198.161 127.509 198.483 127.892 198.698C128.274 198.903 128.694 199.006 129.152 199.006ZM138.499 192.188C139.432 192.188 140.188 192.473 140.767 193.042C141.345 193.602 141.635 194.414 141.635 195.478V200H140.375V195.66C140.375 194.895 140.183 194.311 139.801 193.91C139.418 193.499 138.895 193.294 138.233 193.294C137.561 193.294 137.024 193.504 136.623 193.924C136.231 194.344 136.035 194.955 136.035 195.758V200H134.761V192.328H136.035V193.42C136.287 193.028 136.627 192.725 137.057 192.51C137.495 192.295 137.976 192.188 138.499 192.188ZM146.88 192.202C147.542 192.202 148.121 192.347 148.616 192.636C149.12 192.925 149.493 193.289 149.736 193.728V192.328H151.024V200.168C151.024 200.868 150.874 201.489 150.576 202.03C150.277 202.581 149.848 203.01 149.288 203.318C148.737 203.626 148.093 203.78 147.356 203.78C146.348 203.78 145.508 203.542 144.836 203.066C144.164 202.59 143.767 201.941 143.646 201.12H144.906C145.046 201.587 145.335 201.96 145.774 202.24C146.212 202.529 146.74 202.674 147.356 202.674C148.056 202.674 148.625 202.455 149.064 202.016C149.512 201.577 149.736 200.961 149.736 200.168V198.558C149.484 199.006 149.11 199.379 148.616 199.678C148.121 199.977 147.542 200.126 146.88 200.126C146.198 200.126 145.578 199.958 145.018 199.622C144.467 199.286 144.033 198.815 143.716 198.208C143.398 197.601 143.24 196.911 143.24 196.136C143.24 195.352 143.398 194.666 143.716 194.078C144.033 193.481 144.467 193.019 145.018 192.692C145.578 192.365 146.198 192.202 146.88 192.202ZM149.736 196.15C149.736 195.571 149.619 195.067 149.386 194.638C149.152 194.209 148.835 193.882 148.434 193.658C148.042 193.425 147.608 193.308 147.132 193.308C146.656 193.308 146.222 193.42 145.83 193.644C145.438 193.868 145.125 194.195 144.892 194.624C144.658 195.053 144.542 195.557 144.542 196.136C144.542 196.724 144.658 197.237 144.892 197.676C145.125 198.105 145.438 198.437 145.83 198.67C146.222 198.894 146.656 199.006 147.132 199.006C147.608 199.006 148.042 198.894 148.434 198.67C148.835 198.437 149.152 198.105 149.386 197.676C149.619 197.237 149.736 196.729 149.736 196.15ZM167.129 192.328L164.735 200H163.419L161.571 193.91L159.723 200H158.407L155.999 192.328H157.301L159.065 198.768L160.969 192.328H162.271L164.133 198.782L165.869 192.328H167.129ZM169.051 191.082C168.809 191.082 168.603 190.998 168.435 190.83C168.267 190.662 168.183 190.457 168.183 190.214C168.183 189.971 168.267 189.766 168.435 189.598C168.603 189.43 168.809 189.346 169.051 189.346C169.285 189.346 169.481 189.43 169.639 189.598C169.807 189.766 169.891 189.971 169.891 190.214C169.891 190.457 169.807 190.662 169.639 190.83C169.481 190.998 169.285 191.082 169.051 191.082ZM169.667 192.328V200H168.393V192.328H169.667ZM173.393 193.378V197.9C173.393 198.273 173.472 198.539 173.631 198.698C173.789 198.847 174.065 198.922 174.457 198.922H175.395V200H174.247C173.537 200 173.005 199.837 172.651 199.51C172.296 199.183 172.119 198.647 172.119 197.9V193.378H171.125V192.328H172.119V190.396H173.393V192.328H175.395V193.378H173.393ZM180.746 192.188C181.325 192.188 181.848 192.314 182.314 192.566C182.781 192.809 183.145 193.177 183.406 193.672C183.677 194.167 183.812 194.769 183.812 195.478V200H182.552V195.66C182.552 194.895 182.361 194.311 181.978 193.91C181.596 193.499 181.073 193.294 180.41 193.294C179.738 193.294 179.202 193.504 178.8 193.924C178.408 194.344 178.212 194.955 178.212 195.758V200H176.938V189.64H178.212V193.42C178.464 193.028 178.81 192.725 179.248 192.51C179.696 192.295 180.196 192.188 180.746 192.188ZM190.284 191.082C190.041 191.082 189.836 190.998 189.668 190.83C189.5 190.662 189.416 190.457 189.416 190.214C189.416 189.971 189.5 189.766 189.668 189.598C189.836 189.43 190.041 189.346 190.284 189.346C190.517 189.346 190.713 189.43 190.872 189.598C191.04 189.766 191.124 189.971 191.124 190.214C191.124 190.457 191.04 190.662 190.872 190.83C190.713 190.998 190.517 191.082 190.284 191.082ZM190.9 192.328V200H189.626V192.328H190.9ZM194.625 193.378V197.9C194.625 198.273 194.704 198.539 194.863 198.698C195.022 198.847 195.297 198.922 195.689 198.922H196.627V200H195.479C194.77 200 194.238 199.837 193.883 199.51C193.528 199.183 193.351 198.647 193.351 197.9V193.378H192.357V192.328H193.351V190.396H194.625V192.328H196.627V193.378H194.625ZM200.887 200.126C200.299 200.126 199.771 200.028 199.305 199.832C198.838 199.627 198.469 199.347 198.199 198.992C197.928 198.628 197.779 198.213 197.751 197.746H199.067C199.104 198.129 199.281 198.441 199.599 198.684C199.925 198.927 200.35 199.048 200.873 199.048C201.358 199.048 201.741 198.941 202.021 198.726C202.301 198.511 202.441 198.241 202.441 197.914C202.441 197.578 202.291 197.331 201.993 197.172C201.694 197.004 201.232 196.841 200.607 196.682C200.037 196.533 199.571 196.383 199.207 196.234C198.852 196.075 198.544 195.847 198.283 195.548C198.031 195.24 197.905 194.839 197.905 194.344C197.905 193.952 198.021 193.593 198.255 193.266C198.488 192.939 198.819 192.683 199.249 192.496C199.678 192.3 200.168 192.202 200.719 192.202C201.568 192.202 202.254 192.417 202.777 192.846C203.299 193.275 203.579 193.863 203.617 194.61H202.343C202.315 194.209 202.151 193.887 201.853 193.644C201.563 193.401 201.171 193.28 200.677 193.28C200.219 193.28 199.855 193.378 199.585 193.574C199.314 193.77 199.179 194.027 199.179 194.344C199.179 194.596 199.258 194.806 199.417 194.974C199.585 195.133 199.79 195.263 200.033 195.366C200.285 195.459 200.63 195.567 201.069 195.688C201.619 195.837 202.067 195.987 202.413 196.136C202.758 196.276 203.052 196.491 203.295 196.78C203.547 197.069 203.677 197.447 203.687 197.914C203.687 198.334 203.57 198.712 203.337 199.048C203.103 199.384 202.772 199.65 202.343 199.846C201.923 200.033 201.437 200.126 200.887 200.126ZM212.34 193.378H210.73V200H209.456V193.378H208.462V192.328H209.456V191.782C209.456 190.923 209.675 190.298 210.114 189.906C210.562 189.505 211.276 189.304 212.256 189.304V190.368C211.696 190.368 211.299 190.48 211.066 190.704C210.842 190.919 210.73 191.278 210.73 191.782V192.328H212.34V193.378ZM217.171 200.126C216.452 200.126 215.799 199.963 215.211 199.636C214.632 199.309 214.175 198.847 213.839 198.25C213.512 197.643 213.349 196.943 213.349 196.15C213.349 195.366 213.517 194.675 213.853 194.078C214.198 193.471 214.665 193.009 215.253 192.692C215.841 192.365 216.499 192.202 217.227 192.202C217.955 192.202 218.613 192.365 219.201 192.692C219.789 193.009 220.251 193.467 220.587 194.064C220.932 194.661 221.105 195.357 221.105 196.15C221.105 196.943 220.928 197.643 220.573 198.25C220.228 198.847 219.756 199.309 219.159 199.636C218.562 199.963 217.899 200.126 217.171 200.126ZM217.171 199.006C217.628 199.006 218.058 198.899 218.459 198.684C218.86 198.469 219.182 198.147 219.425 197.718C219.677 197.289 219.803 196.766 219.803 196.15C219.803 195.534 219.682 195.011 219.439 194.582C219.196 194.153 218.879 193.835 218.487 193.63C218.095 193.415 217.67 193.308 217.213 193.308C216.746 193.308 216.317 193.415 215.925 193.63C215.542 193.835 215.234 194.153 215.001 194.582C214.768 195.011 214.651 195.534 214.651 196.15C214.651 196.775 214.763 197.303 214.987 197.732C215.22 198.161 215.528 198.483 215.911 198.698C216.294 198.903 216.714 199.006 217.171 199.006ZM224.054 189.64V200H222.78V189.64H224.054ZM225.749 196.136C225.749 195.352 225.908 194.666 226.225 194.078C226.543 193.481 226.977 193.019 227.527 192.692C228.087 192.365 228.713 192.202 229.403 192.202C230.001 192.202 230.556 192.342 231.069 192.622C231.583 192.893 231.975 193.252 232.245 193.7V189.64H233.533V200H232.245V198.558C231.993 199.015 231.62 199.393 231.125 199.692C230.631 199.981 230.052 200.126 229.389 200.126C228.708 200.126 228.087 199.958 227.527 199.622C226.977 199.286 226.543 198.815 226.225 198.208C225.908 197.601 225.749 196.911 225.749 196.136ZM232.245 196.15C232.245 195.571 232.129 195.067 231.895 194.638C231.662 194.209 231.345 193.882 230.943 193.658C230.551 193.425 230.117 193.308 229.641 193.308C229.165 193.308 228.731 193.42 228.339 193.644C227.947 193.868 227.635 194.195 227.401 194.624C227.168 195.053 227.051 195.557 227.051 196.136C227.051 196.724 227.168 197.237 227.401 197.676C227.635 198.105 227.947 198.437 228.339 198.67C228.731 198.894 229.165 199.006 229.641 199.006C230.117 199.006 230.551 198.894 230.943 198.67C231.345 198.437 231.662 198.105 231.895 197.676C232.129 197.237 232.245 196.729 232.245 196.15ZM242.686 195.87C242.686 196.113 242.672 196.369 242.644 196.64H236.512C236.559 197.396 236.816 197.989 237.282 198.418C237.758 198.838 238.332 199.048 239.004 199.048C239.555 199.048 240.012 198.922 240.376 198.67C240.75 198.409 241.011 198.063 241.16 197.634H242.532C242.327 198.371 241.916 198.973 241.3 199.44C240.684 199.897 239.919 200.126 239.004 200.126C238.276 200.126 237.623 199.963 237.044 199.636C236.475 199.309 236.027 198.847 235.7 198.25C235.374 197.643 235.21 196.943 235.21 196.15C235.21 195.357 235.369 194.661 235.686 194.064C236.004 193.467 236.447 193.009 237.016 192.692C237.595 192.365 238.258 192.202 239.004 192.202C239.732 192.202 240.376 192.361 240.936 192.678C241.496 192.995 241.926 193.434 242.224 193.994C242.532 194.545 242.686 195.17 242.686 195.87ZM241.37 195.604C241.37 195.119 241.263 194.703 241.048 194.358C240.834 194.003 240.54 193.737 240.166 193.56C239.802 193.373 239.396 193.28 238.948 193.28C238.304 193.28 237.754 193.485 237.296 193.896C236.848 194.307 236.592 194.876 236.526 195.604H241.37ZM245.642 193.574C245.866 193.135 246.183 192.795 246.594 192.552C247.014 192.309 247.523 192.188 248.12 192.188V193.504H247.784C246.356 193.504 245.642 194.279 245.642 195.828V200H244.368V192.328H245.642V193.574ZM249.997 200.084C249.754 200.084 249.549 200 249.381 199.832C249.213 199.664 249.129 199.459 249.129 199.216C249.129 198.973 249.213 198.768 249.381 198.6C249.549 198.432 249.754 198.348 249.997 198.348C250.23 198.348 250.426 198.432 250.585 198.6C250.753 198.768 250.837 198.973 250.837 199.216C250.837 199.459 250.753 199.664 250.585 199.832C250.426 200 250.23 200.084 249.997 200.084Z" fill="#383B40"/>
</svg>
