<svg width="41" height="39" viewBox="0 0 41 39" fill="none" xmlns="http://www.w3.org/2000/svg">
<circle cx="13.8896" cy="25.5" r="5.5" fill="#91B7FF"/>
<path d="M28.78 0H8.78C6.56 0 4.78 1.78 4.78 4V15.64C5.93522 14.516 7.29234 13.6203 8.78 13V4H22.78V15.64C22.84 15.7 22.92 15.74 22.98 15.8C23.66 16.48 24.24 17.22 24.72 18H36.78V32H24.72C24.24 32.78 23.66 33.52 22.98 34.2C22.26 34.9 21.48 35.48 20.66 36H36.78C39 36 40.78 34.22 40.78 32V12L28.78 0ZM26.78 14V3L37.78 14H26.78ZM13.78 16C8.78 16 4.78 20 4.78 25C4.78 26.76 5.28 28.42 6.16 29.8L0 36L2.78 38.78L9.02 32.64C10.4 33.5 12.04 34 13.78 34C18.78 34 22.78 30 22.78 25C22.78 20 18.78 16 13.78 16ZM13.78 30C12.4539 30 11.1821 29.4732 10.2445 28.5355C9.30678 27.5979 8.78 26.3261 8.78 25C8.78 23.6739 9.30678 22.4021 10.2445 21.4645C11.1821 20.5268 12.4539 20 13.78 20C15.1061 20 16.3779 20.5268 17.3155 21.4645C18.2532 22.4021 18.78 23.6739 18.78 25C18.78 26.3261 18.2532 27.5979 17.3155 28.5355C16.3779 29.4732 15.1061 30 13.78 30Z" fill="#383B40"/>
</svg>
