<svg width="16" height="16" viewBox="0 0 16 16" fill="none" xmlns="http://www.w3.org/2000/svg">
<g id="locationIcon">
<path id="Vector" d="M8 2.00002C6.76232 2.00002 5.57534 2.49168 4.70017 3.36685C3.825 4.24202 3.33333 5.42901 3.33333 6.66668C3.33333 8.57468 4.52133 10.4153 5.82533 11.8413C6.49209 12.5678 7.21962 13.236 8 13.8387C8.11644 13.7493 8.25311 13.6405 8.41 13.512C9.03654 12.9975 9.62621 12.4397 10.1747 11.8427C11.4787 10.4153 12.6667 8.57535 12.6667 6.66668C12.6667 5.42901 12.175 4.24202 11.2998 3.36685C10.4247 2.49168 9.23768 2.00002 8 2.00002ZM8 15.476L7.622 15.216L7.62 15.2147L7.616 15.2113L7.60267 15.202L7.55267 15.1667L7.37267 15.0353C6.46057 14.3499 5.61325 13.5822 4.84133 12.742C3.47867 11.25 2 9.09068 2 6.66602C2 5.07472 2.63214 3.54859 3.75736 2.42338C4.88258 1.29816 6.4087 0.666016 8 0.666016C9.5913 0.666016 11.1174 1.29816 12.2426 2.42338C13.3679 3.54859 14 5.07472 14 6.66602C14 9.09068 12.5213 11.2507 11.1587 12.7407C10.387 13.5809 9.53986 14.3485 8.628 15.034C8.55204 15.0908 8.47536 15.1465 8.398 15.2013L8.384 15.2107L8.38 15.214L8.37867 15.2147L8 15.476ZM8 5.33335C7.64638 5.33335 7.30724 5.47382 7.05719 5.72387C6.80714 5.97392 6.66667 6.31306 6.66667 6.66668C6.66667 7.0203 6.80714 7.35944 7.05719 7.60949C7.30724 7.85954 7.64638 8.00002 8 8.00002C8.35362 8.00002 8.69276 7.85954 8.94281 7.60949C9.19286 7.35944 9.33333 7.0203 9.33333 6.66668C9.33333 6.31306 9.19286 5.97392 8.94281 5.72387C8.69276 5.47382 8.35362 5.33335 8 5.33335ZM5.33333 6.66668C5.33333 5.95944 5.61428 5.28116 6.11438 4.78106C6.61448 4.28097 7.29276 4.00002 8 4.00002C8.70724 4.00002 9.38552 4.28097 9.88562 4.78106C10.3857 5.28116 10.6667 5.95944 10.6667 6.66668C10.6667 7.37393 10.3857 8.0522 9.88562 8.5523C9.38552 9.0524 8.70724 9.33335 8 9.33335C7.29276 9.33335 6.61448 9.0524 6.11438 8.5523C5.61428 8.0522 5.33333 7.37393 5.33333 6.66668Z" fill="#052B73"/>
</g>
</svg>
