<svg viewBox="0 0 16 17" xmlns="http://www.w3.org/2000/svg">
<path d="M10 0.5V2.9375C10.3333 3.0625 10.6458 3.22917 10.9375 3.4375L11.125 3.59375L10.2188 4.78125L11.125 3.59375C11.8542 4.17708 12.2292 4.9375 12.25 5.875C12.25 6.27083 12.1771 6.63542 12.0312 6.96875C12.1771 7.28125 12.25 7.625 12.25 8C12.25 8.35417 12.1771 8.6875 12.0312 9C12.1771 9.3125 12.25 9.64583 12.25 10C12.25 10.3542 12.1771 10.6875 12.0312 11C12.1771 11.3125 12.25 11.6458 12.25 12C12.25 12.3542 12.1771 12.6875 12.0312 13C12.1771 13.3125 12.25 13.6458 12.25 14V15V16.5H10.75H5.25H3.75V15V14C3.75 13.6458 3.82292 13.3125 3.96875 13C3.82292 12.6875 3.75 12.3542 3.75 12C3.75 11.6458 3.82292 11.3125 3.96875 11C3.82292 10.6875 3.75 10.3542 3.75 10C3.75 9.64583 3.82292 9.3125 3.96875 9C3.82292 8.6875 3.75 8.35417 3.75 8C3.75 7.625 3.82292 7.28125 3.96875 6.96875C3.82292 6.63542 3.75 6.27083 3.75 5.875C3.77083 4.9375 4.14583 4.17708 4.875 3.59375L5.0625 3.4375L5.96875 4.625L5.0625 3.4375C5.35417 3.22917 5.66667 3.0625 6 2.9375V0.5H10ZM10.2188 4.78125L10.0312 4.625C9.69792 4.375 9.32292 4.25 8.90625 4.25H7.09375C6.67708 4.25 6.30208 4.375 5.96875 4.625L5.78125 4.78125C5.48958 5.01042 5.3125 5.32292 5.25 5.71875C5.25 5.76042 5.25 5.8125 5.25 5.875C5.27083 6.35417 5.46875 6.72917 5.84375 7H10.1562C10.5312 6.72917 10.7292 6.35417 10.75 5.875C10.75 5.8125 10.75 5.76042 10.75 5.71875C10.6875 5.32292 10.5104 5.01042 10.2188 4.78125ZM5.25 12C5.25 12.1042 5.27083 12.2083 5.3125 12.3125C5.45833 12.75 5.77083 12.9792 6.25 13C5.85417 13.0208 5.5625 13.1875 5.375 13.5C5.29167 13.6458 5.25 13.8125 5.25 14V14.2812V15H6.75H9.25H10.75V14.2812V14C10.75 13.8125 10.7083 13.6458 10.625 13.5C10.4375 13.1875 10.1458 13.0208 9.75 13C10.2292 12.9792 10.5417 12.75 10.6875 12.3125C10.7292 12.2083 10.75 12.1042 10.75 12C10.75 11.8958 10.7292 11.7917 10.6875 11.6875C10.5417 11.25 10.2292 11.0208 9.75 11H6.25C5.77083 11.0208 5.45833 11.25 5.3125 11.6875C5.27083 11.7917 5.25 11.8958 5.25 12Z"/>
</svg>
