<svg viewBox="0 0 16 17" xmlns="http://www.w3.org/2000/svg">
<path d="M3.75 1.5H12.25H12.7812L12.9688 2L14.2812 6H14.5H16V7.5V11.5V13V15.5H14.5V13H1.5V15.5H0V13V11.5V7.5V6H1.5H1.71875L3.03125 2L3.21875 1.5H3.75ZM12.7188 6L11.7188 3H4.28125L3.28125 6H12.7188ZM14.5 7.5H1.5V11.5H14.5V7.5ZM4.5 9.5C4.5 9.79167 4.40625 10.0312 4.21875 10.2188C4.03125 10.4062 3.79167 10.5 3.5 10.5C3.20833 10.5 2.96875 10.4062 2.78125 10.2188C2.59375 10.0312 2.5 9.79167 2.5 9.5C2.5 9.20833 2.59375 8.96875 2.78125 8.78125C2.96875 8.59375 3.20833 8.5 3.5 8.5C3.79167 8.5 4.03125 8.59375 4.21875 8.78125C4.40625 8.96875 4.5 9.20833 4.5 9.5ZM12.5 10.5C12.2083 10.5 11.9688 10.4062 11.7812 10.2188C11.5938 10.0312 11.5 9.79167 11.5 9.5C11.5 9.20833 11.5938 8.96875 11.7812 8.78125C11.9688 8.59375 12.2083 8.5 12.5 8.5C12.7917 8.5 13.0312 8.59375 13.2188 8.78125C13.4062 8.96875 13.5 9.20833 13.5 9.5C13.5 9.79167 13.4062 10.0312 13.2188 10.2188C13.0312 10.4062 12.7917 10.5 12.5 10.5Z"/>
</svg>
