<svg viewBox="0 0 16 17" xmlns="http://www.w3.org/2000/svg">
<path d="M1.5 8.5C1.5 9.4375 1.67708 10.3021 2.03125 11.0938C2.38542 11.8854 2.875 12.5833 3.5 13.1875V13.5312C3.5 14.2188 3.65625 14.8438 3.96875 15.4062C2.76042 14.6979 1.80208 13.7396 1.09375 12.5312C0.385417 11.3438 0.0208333 10 0 8.5C0.0208333 7 0.385417 5.65625 1.09375 4.46875C1.80208 3.26042 2.76042 2.30208 3.96875 1.59375C5.15625 0.885417 6.5 0.520833 8 0.5C9.5 0.520833 10.8438 0.885417 12.0312 1.59375C13.2396 2.30208 14.1979 3.26042 14.9062 4.46875C15.6146 5.65625 15.9792 7 16 8.5C15.9792 10.2917 15.4688 11.8646 14.4688 13.2188C13.4688 14.5729 12.1562 15.5312 10.5312 16.0938L12.1562 14.4688L12.875 13.75L12.4062 13.2812C13.0521 12.6771 13.5625 11.9688 13.9375 11.1562C14.3125 10.3438 14.5 9.45833 14.5 8.5C14.4583 6.66667 13.8229 5.13542 12.5938 3.90625C11.3646 2.67708 9.83333 2.04167 8 2C6.16667 2.04167 4.63542 2.67708 3.40625 3.90625C2.17708 5.13542 1.54167 6.66667 1.5 8.5ZM8 7C8.54167 7 9.04167 7.13542 9.5 7.40625C9.9375 7.65625 10.2917 8 10.5625 8.4375L10.25 8.125L9.75 8.625L9.46875 8.34375L8.75 7.625L8.03125 8.34375L6.4375 9.9375H5.75H5C5.04167 9.10417 5.34375 8.41667 5.90625 7.875C6.46875 7.3125 7.16667 7.02083 8 7ZM7.5625 4.375L6.96875 4.84375L4.46875 6.84375L3.875 7.3125L2.9375 6.125L3.53125 5.65625L6.03125 3.65625L6.625 3.1875L7.5625 4.375ZM9.03125 4.84375L8.4375 4.375L9.375 3.1875L9.96875 3.65625L12.4688 5.65625L13.0625 6.125L12.125 7.3125L11.5312 6.84375L9.03125 4.84375ZM9.46875 9.75L9.09375 10.0938L7.34375 11.8438L7.65625 12.1562L9.90625 9.90625L10.25 9.53125L10.9688 10.25L10.5938 10.5938L8.34375 12.8438L8.65625 13.1562L10.4062 11.4062L10.75 11.0312L11.4688 11.75L11.0938 12.0938L9.34375 13.8438L9.65625 14.1562L10.4062 13.4062L10.75 13.0312L11.4688 13.75L11.0938 14.0938L9.59375 15.625C8.98958 16.1875 8.28125 16.4792 7.46875 16.5C6.63542 16.4792 5.9375 16.1875 5.375 15.625C4.8125 15.0625 4.52083 14.3646 4.5 13.5312V13.125V12.5V11.5625V10.9375H5.75V11.5625V12.0312L8.40625 9.40625L8.75 9.03125L9.46875 9.75Z"/>
</svg>
