<svg viewBox="0 0 16 17" xmlns="http://www.w3.org/2000/svg">
<path d="M14.5 8.5C14.5 7.3125 14.2083 6.22917 13.625 5.25C13.0625 4.27083 12.2708 3.47917 11.25 2.875C10.2292 2.29167 9.14583 2 8 2C6.85417 2 5.77083 2.29167 4.75 2.875C3.72917 3.47917 2.9375 4.27083 2.375 5.25C1.79167 6.22917 1.5 7.3125 1.5 8.5C1.5 9.6875 1.79167 10.7708 2.375 11.75C2.9375 12.7292 3.72917 13.5208 4.75 14.125C5.77083 14.7083 6.85417 15 8 15C9.14583 15 10.2292 14.7083 11.25 14.125C12.2708 13.5208 13.0625 12.7292 13.625 11.75C14.2083 10.7708 14.5 9.6875 14.5 8.5ZM0 8.5C0.0208333 7.04167 0.375 5.70833 1.0625 4.5C1.77083 3.29167 2.75 2.3125 4 1.5625C5.27083 0.854167 6.60417 0.5 8 0.5C9.39583 0.5 10.7292 0.854167 12 1.5625C13.25 2.3125 14.2292 3.29167 14.9375 4.5C15.625 5.70833 15.9792 7.04167 16 8.5C15.9792 9.95833 15.625 11.2917 14.9375 12.5C14.2292 13.7083 13.25 14.6875 12 15.4375C10.7292 16.1458 9.39583 16.5 8 16.5C6.60417 16.5 5.27083 16.1458 4 15.4375C2.75 14.6875 1.77083 13.7083 1.0625 12.5C0.375 11.2917 0.0208333 9.95833 0 8.5ZM6 7.5V6.75C6 6.6875 6 6.625 6 6.5625C5.85417 6.6875 5.6875 6.75 5.5 6.75C5.04167 6.70833 4.79167 6.45833 4.75 6C4.75 5.8125 4.8125 5.64583 4.9375 5.5C4.875 5.5 4.8125 5.5 4.75 5.5C4.39583 5.5 4.10417 5.625 3.875 5.875C3.625 6.10417 3.5 6.39583 3.5 6.75V7.5H6ZM4.75 4.5C5.39583 4.52083 5.92708 4.73958 6.34375 5.15625C6.76042 5.57292 6.97917 6.10417 7 6.75V7.5V8.5H6H3.5H2.5V7.5V6.75C2.52083 6.10417 2.73958 5.57292 3.15625 5.15625C3.57292 4.73958 4.10417 4.52083 4.75 4.5ZM11.5 6.75C11.0417 6.70833 10.7917 6.45833 10.75 6C10.75 5.83333 10.8021 5.6875 10.9062 5.5625C10.7812 5.52083 10.6458 5.5 10.5 5.5C10.0833 5.52083 9.72917 5.66667 9.4375 5.9375C9.16667 6.22917 9.02083 6.58333 9 7V7.5H12V7C12 6.85417 11.9792 6.71875 11.9375 6.59375C11.8125 6.69792 11.6667 6.75 11.5 6.75ZM10.5 4.5C11.2083 4.52083 11.8021 4.76042 12.2812 5.21875C12.7396 5.69792 12.9792 6.29167 13 7V7.5V8.5H12H9H8V7.5V7C8.02083 6.29167 8.26042 5.69792 8.71875 5.21875C9.19792 4.76042 9.79167 4.52083 10.5 4.5ZM3.125 10.0938L3 9.5H3.625H4.03125H11.9688H12.375H13L12.875 10.0938V10.125C12.75 10.6667 12.5417 11.1667 12.25 11.625C11.7917 12.3542 11.1979 12.9271 10.4688 13.3438C9.73958 13.7604 8.92708 13.9792 8.03125 14H8C7.0625 13.9792 6.20833 13.7396 5.4375 13.2812C4.25 12.5729 3.47917 11.5208 3.125 10.125V10.0938ZM11.375 11.125C11.125 11.0417 10.8542 11 10.5625 11C9.9375 11.0208 9.40625 11.2083 8.96875 11.5625C8.51042 11.9375 8.20833 12.4167 8.0625 13C8.77083 12.9792 9.40625 12.8021 9.96875 12.4688C10.5521 12.1354 11.0208 11.6875 11.375 11.125Z"/>
</svg>
