<svg viewBox="0 0 16 17" xmlns="http://www.w3.org/2000/svg">
<path d="M14.5 8.5C14.4583 6.66667 13.8229 5.13542 12.5938 3.90625C11.3646 2.67708 9.83333 2.04167 8 2C6.875 2.02083 5.85417 2.28125 4.9375 2.78125C4.02083 3.28125 3.26042 3.95833 2.65625 4.8125C3.26042 4.10417 4.0625 3.70833 5.0625 3.625H5.4375L5.46875 4.375H5.09375C4.32292 4.4375 3.70833 4.72917 3.25 5.25C2.79167 5.79167 2.58333 6.375 2.625 7V7.03125C2.6875 7.67708 2.95833 8.19792 3.4375 8.59375C3.91667 8.98958 4.44792 9.16667 5.03125 9.125C5.61458 9.0625 6.07292 8.83333 6.40625 8.4375C6.76042 8.02083 6.91667 7.57292 6.875 7.09375C6.8125 6.61458 6.60417 6.22917 6.25 5.9375C5.89583 5.66667 5.52083 5.55208 5.125 5.59375H5.09375C4.67708 5.65625 4.36458 5.82292 4.15625 6.09375C3.92708 6.38542 3.83333 6.6875 3.875 7C3.91667 7.3125 4.05208 7.55208 4.28125 7.71875C4.51042 7.88542 4.75 7.94792 5 7.90625C5.25 7.86458 5.42708 7.76042 5.53125 7.59375C5.63542 7.42708 5.66667 7.28125 5.625 7.15625V7.125C5.58333 7 5.51042 6.90625 5.40625 6.84375L5.4375 7.03125C5.4375 7.19792 5.38542 7.32292 5.28125 7.40625C5.17708 7.48958 5.08333 7.53125 5 7.53125C4.77083 7.55208 4.58333 7.46875 4.4375 7.28125C4.3125 7.03125 4.29167 6.80208 4.375 6.59375C4.47917 6.36458 4.66667 6.19792 4.9375 6.09375C5.25 5.98958 5.54167 6.02083 5.8125 6.1875C6.08333 6.35417 6.27083 6.61458 6.375 6.96875C6.45833 7.34375 6.375 7.69792 6.125 8.03125C5.89583 8.34375 5.5625 8.54167 5.125 8.625C4.66667 8.70833 4.23958 8.60417 3.84375 8.3125C3.44792 8.02083 3.20833 7.61458 3.125 7.09375C3.0625 6.55208 3.20833 6.0625 3.5625 5.625C3.91667 5.1875 4.40625 4.92708 5.03125 4.84375C5.65625 4.78125 6.21875 4.94792 6.71875 5.34375C7.23958 5.76042 7.54167 6.3125 7.625 7C7.6875 7.70833 7.47917 8.34375 7 8.90625C6.52083 9.46875 5.88542 9.79167 5.09375 9.875C4.30208 9.9375 3.59375 9.69792 2.96875 9.15625C2.32292 8.63542 1.96875 7.94792 1.90625 7.09375C1.86458 6.71875 1.89583 6.36458 2 6.03125C1.66667 6.80208 1.5 7.625 1.5 8.5C1.54167 10.3333 2.17708 11.8646 3.40625 13.0938C4.63542 14.3229 6.16667 14.9583 8 15C9.83333 14.9583 11.3646 14.3229 12.5938 13.0938C13.8229 11.8646 14.4583 10.3333 14.5 8.5ZM0 8.5C0.0208333 7.04167 0.375 5.70833 1.0625 4.5C1.77083 3.29167 2.75 2.3125 4 1.5625C5.27083 0.854167 6.60417 0.5 8 0.5C9.39583 0.5 10.7292 0.854167 12 1.5625C13.25 2.3125 14.2292 3.29167 14.9375 4.5C15.625 5.70833 15.9792 7.04167 16 8.5C15.9792 9.95833 15.625 11.2917 14.9375 12.5C14.2292 13.7083 13.25 14.6875 12 15.4375C10.7292 16.1458 9.39583 16.5 8 16.5C6.60417 16.5 5.27083 16.1458 4 15.4375C2.75 14.6875 1.77083 13.7083 1.0625 12.5C0.375 11.2917 0.0208333 9.95833 0 8.5ZM10.5625 9.65625L10.9375 9.625C11.6875 9.5625 12.2917 9.27083 12.75 8.75C13.2083 8.22917 13.4167 7.64583 13.375 7V6.96875C13.3125 6.32292 13.0417 5.80208 12.5625 5.40625C12.0833 5.01042 11.5625 4.83333 11 4.875H10.9688C10.3854 4.9375 9.92708 5.17708 9.59375 5.59375C9.23958 5.98958 9.09375 6.42708 9.15625 6.90625V6.9375C9.19792 7.39583 9.39583 7.77083 9.75 8.0625C10.1042 8.33333 10.4896 8.44792 10.9062 8.40625C11.3229 8.34375 11.6354 8.17708 11.8438 7.90625C12.0729 7.61458 12.1667 7.32292 12.125 7.03125V7C12.0833 6.6875 11.9479 6.44792 11.7188 6.28125C11.4896 6.11458 11.25 6.05208 11 6.09375C10.75 6.13542 10.5729 6.23958 10.4688 6.40625C10.3646 6.57292 10.3333 6.71875 10.375 6.84375V6.875C10.4167 7 10.4896 7.09375 10.5938 7.15625L10.5625 7C10.5625 6.8125 10.6146 6.67708 10.7188 6.59375C10.8229 6.51042 10.9167 6.46875 11 6.46875C11.2292 6.44792 11.4167 6.54167 11.5625 6.75C11.7083 6.97917 11.7292 7.19792 11.625 7.40625C11.5208 7.65625 11.3333 7.82292 11.0625 7.90625C10.75 8.01042 10.4583 7.97917 10.1875 7.8125C9.91667 7.66667 9.73958 7.40625 9.65625 7.03125C9.57292 6.65625 9.64583 6.30208 9.875 5.96875C10.1042 5.65625 10.4375 5.45833 10.875 5.375C11.3333 5.29167 11.7604 5.39583 12.1562 5.6875C12.5521 5.97917 12.7917 6.38542 12.875 6.90625C12.9375 7.44792 12.7917 7.9375 12.4375 8.375C12.0833 8.8125 11.5938 9.07292 10.9688 9.15625C10.3438 9.21875 9.78125 9.05208 9.28125 8.65625C8.76042 8.23958 8.45833 7.6875 8.375 7C8.3125 6.29167 8.52083 5.65625 9 5.09375C9.47917 4.53125 10.1146 4.21875 10.9062 4.15625C11.6979 4.09375 12.4062 4.32292 13.0312 4.84375C13.6771 5.36458 14.0417 6.0625 14.125 6.9375C14.1667 7.8125 13.8958 8.58333 13.3125 9.25C12.7083 9.9375 11.9271 10.3125 10.9688 10.375L10.5938 10.4062L10.5625 9.65625ZM8.78125 13.0938L8 12.4688L7.21875 13.0938L6.78125 13.4375L6.34375 13.125L5.34375 12.4688L5.03125 12.7812L4.5 13.3125L3.4375 12.25L3.96875 11.7188L4.71875 10.9688L5.15625 10.5312L5.65625 10.875L6.71875 11.5625L7.53125 10.9062L8 10.5312L8.46875 10.9062L9.28125 11.5625L10.3438 10.875L10.8438 10.5312L11.2812 10.9688L12.0312 11.7188L12.5625 12.25L11.5 13.3125L10.9688 12.7812L10.6562 12.4688L9.65625 13.125L9.21875 13.4375L8.78125 13.0938Z"/>
</svg>
