<svg viewBox="0 0 16 16" xmlns="http://www.w3.org/2000/svg">
<path d="M14.5 3H1.5V13.4688L1.6875 13.25L3.9375 10.75L4.46875 10.1562L5.03125 10.7188L6.0625 11.75L8.90625 7.8125L9.5 6.96875L10.0938 7.8125L14.0938 13.3125L14.5 13.8438V3ZM1.5 1.5H14.5H16V3V14V15.5H14.5H1.5H0V14V3V1.5H1.5ZM6 6C5.97917 6.5625 5.72917 7 5.25 7.3125C4.75 7.5625 4.25 7.5625 3.75 7.3125C3.27083 7 3.02083 6.5625 3 6C3.02083 5.4375 3.27083 5 3.75 4.6875C4.25 4.4375 4.75 4.4375 5.25 4.6875C5.72917 5 5.97917 5.4375 6 6Z"/>
</svg>
