<svg viewBox="0 0 18 17" xmlns="http://www.w3.org/2000/svg">
<path d="M7.0625 6.4375C6.54167 6.58333 6.03125 6.47917 5.53125 6.125C5.03125 5.79167 4.66667 5.28125 4.4375 4.59375C4.20833 3.90625 4.1875 3.28125 4.375 2.71875C4.58333 2.13542 4.9375 1.75 5.4375 1.5625C5.95833 1.41667 6.46875 1.52083 6.96875 1.875C7.46875 2.20833 7.84375 2.71875 8.09375 3.40625C8.30208 4.09375 8.3125 4.71875 8.125 5.28125C7.91667 5.86458 7.5625 6.25 7.0625 6.4375ZM13.875 6.71875C14.1875 6.19792 14.5729 5.84375 15.0312 5.65625C15.4896 5.44792 15.9167 5.44792 16.3125 5.65625C16.7083 5.90625 16.9271 6.27083 16.9688 6.75C17.0312 7.25 16.9167 7.76042 16.625 8.28125C16.3125 8.80208 15.9271 9.15625 15.4688 9.34375C15.0104 9.55208 14.5833 9.55208 14.1875 9.34375C13.7917 9.09375 13.5625 8.72917 13.5 8.25C13.4583 7.75 13.5833 7.23958 13.875 6.71875ZM4.125 6.71875C4.41667 7.23958 4.53125 7.75 4.46875 8.25C4.42708 8.72917 4.20833 9.09375 3.8125 9.34375C3.41667 9.55208 2.98958 9.55208 2.53125 9.34375C2.07292 9.15625 1.6875 8.80208 1.375 8.28125C1.08333 7.76042 0.958333 7.25 1 6.75C1.0625 6.27083 1.29167 5.90625 1.6875 5.65625C2.08333 5.44792 2.51042 5.44792 2.96875 5.65625C3.42708 5.84375 3.8125 6.19792 4.125 6.71875ZM9.6875 3.40625C9.91667 2.71875 10.2812 2.20833 10.7812 1.875C11.2812 1.52083 11.7917 1.41667 12.3125 1.5625C12.8125 1.75 13.1667 2.13542 13.375 2.71875C13.5625 3.28125 13.5521 3.90625 13.3438 4.59375C13.0938 5.28125 12.7188 5.80208 12.2188 6.15625C11.7188 6.48958 11.2083 6.58333 10.6875 6.4375C10.1875 6.25 9.83333 5.86458 9.625 5.28125C9.4375 4.71875 9.45833 4.09375 9.6875 3.40625ZM9.375 12.5625V12.5312L13.2812 13.5312C12.9271 12.1979 12.3854 11.1771 11.6562 10.4688C11.1146 9.92708 10.6042 9.54167 10.125 9.3125C9.625 9.10417 9.25 9 9 9C8.75 9 8.375 9.10417 7.875 9.3125C7.39583 9.54167 6.88542 9.92708 6.34375 10.4688C5.61458 11.1771 5.07292 12.1979 4.71875 13.5312L8.625 12.5312L9 12.4688L9.375 12.5625ZM3 15.5C3 14.9375 3.04167 14.4167 3.125 13.9375C3.375 12.4583 3.84375 11.25 4.53125 10.3125C5.23958 9.35417 6 8.64583 6.8125 8.1875C7.64583 7.72917 8.375 7.5 9 7.5C9.625 7.5 10.3542 7.72917 11.1875 8.1875C12 8.64583 12.7604 9.35417 13.4688 10.3125C14.1562 11.25 14.625 12.4583 14.875 13.9375C14.9583 14.4167 15 14.9375 15 15.5L13.5 15.125L9 14L4.5 15.125L3 15.5Z"/>
</svg>
