<svg viewBox="0 0 17 17" xmlns="http://www.w3.org/2000/svg">
<path d="M3.71875 1.9375L3 2.1875L1.5 2.78125V6.75C1.52083 7.66667 1.83333 8.4375 2.4375 9.0625C3.0625 9.66667 3.83333 9.97917 4.75 10H5H5.25C6.16667 9.97917 6.9375 9.66667 7.5625 9.0625C8.16667 8.4375 8.47917 7.66667 8.5 6.75V2.78125L7 2.21875L6.28125 1.9375L6.8125 0.53125L7.53125 0.8125L9.53125 1.5625L10 1.71875V2.25V6.75C9.97917 8 9.57292 9.0625 8.78125 9.9375C7.98958 10.8125 6.97917 11.3229 5.75 11.4688C5.83333 12.4896 6.22917 13.3229 6.9375 13.9688C7.625 14.6354 8.47917 14.9792 9.5 15C10.5625 14.9792 11.4479 14.6146 12.1562 13.9062C12.8646 13.1979 13.2292 12.3125 13.25 11.25V8.875C12.7292 8.70833 12.3125 8.41667 12 8C11.6667 7.5625 11.5 7.0625 11.5 6.5C11.5208 5.79167 11.7604 5.19792 12.2188 4.71875C12.6979 4.26042 13.2917 4.02083 14 4C14.7083 4.02083 15.3021 4.26042 15.7812 4.71875C16.2396 5.19792 16.4792 5.79167 16.5 6.5C16.5 7.0625 16.3333 7.5625 16 8C15.6875 8.41667 15.2708 8.70833 14.75 8.875V11.25C14.7083 12.7292 14.1979 13.9688 13.2188 14.9688C12.2188 15.9479 10.9792 16.4583 9.5 16.5C8.0625 16.4583 6.85417 15.9688 5.875 15.0312C4.89583 14.0938 4.35417 12.9062 4.25 11.4688C3.02083 11.3229 2.01042 10.8125 1.21875 9.9375C0.427083 9.0625 0.0208333 8 0 6.75V2.25V1.71875L0.5 1.5625L2.5 0.8125L3.1875 0.53125L3.71875 1.9375ZM14 5.5C13.7083 5.5 13.4688 5.59375 13.2812 5.78125C13.0938 5.96875 13 6.20833 13 6.5C13 6.79167 13.0938 7.03125 13.2812 7.21875C13.4688 7.40625 13.7083 7.5 14 7.5C14.2917 7.5 14.5312 7.40625 14.7188 7.21875C14.9062 7.03125 15 6.79167 15 6.5C15 6.20833 14.9062 5.96875 14.7188 5.78125C14.5312 5.59375 14.2917 5.5 14 5.5Z"/>
</svg>
