<svg viewBox="0 0 16 17" xmlns="http://www.w3.org/2000/svg">
<path d="M10.5 4.5C10.5 4.14583 10.4271 3.8125 10.2812 3.5H9L8.5 3L7.5 4H5.5625C5.52083 4.16667 5.5 4.33333 5.5 4.5V5C5.52083 5.70833 5.76042 6.30208 6.21875 6.78125C6.69792 7.23958 7.29167 7.47917 8 7.5C8.70833 7.47917 9.30208 7.23958 9.78125 6.78125C10.2396 6.30208 10.4792 5.70833 10.5 5V4.5ZM4 4.5C4.02083 3.375 4.40625 2.42708 5.15625 1.65625C5.92708 0.90625 6.875 0.520833 8 0.5C9.125 0.520833 10.0729 0.90625 10.8438 1.65625C11.5938 2.42708 11.9792 3.375 12 4.5V5C11.9792 6.125 11.5938 7.07292 10.8438 7.84375C10.0729 8.59375 9.125 8.97917 8 9C6.875 8.97917 5.92708 8.59375 5.15625 7.84375C4.40625 7.07292 4.02083 6.125 4 5V4.5ZM4.125 11.5L2.5625 16.5H1L3 10H13L15 16.5H13.4375L11.9062 11.5H10.75V13.0625C11.1875 13.1875 11.5417 13.4167 11.8125 13.75C12.1042 14.1042 12.25 14.5208 12.25 15V16V16.5H11.75H11H10.5V15.5H11H11.25V15C11.25 14.7083 11.1562 14.4688 10.9688 14.2812C10.7812 14.0938 10.5417 14 10.25 14C9.95833 14 9.71875 14.0938 9.53125 14.2812C9.34375 14.4688 9.25 14.7083 9.25 15V15.5H9.5H10V16.5H9.5H8.75H8.25V16V15C8.25 14.5208 8.39583 14.1042 8.6875 13.75C8.95833 13.4167 9.3125 13.1875 9.75 13.0625V11.5H6.25V13.0625C6.625 13.1875 6.92708 13.3958 7.15625 13.6875C7.38542 14 7.5 14.3542 7.5 14.75C7.47917 15.25 7.3125 15.6667 7 16C6.66667 16.3125 6.25 16.4792 5.75 16.5C5.25 16.4792 4.83333 16.3125 4.5 16C4.1875 15.6667 4.02083 15.25 4 14.75C4 14.3542 4.11458 14 4.34375 13.6875C4.57292 13.3958 4.875 13.1875 5.25 13.0625V11.5H4.125ZM6.5 14.75C6.45833 14.2917 6.20833 14.0417 5.75 14C5.29167 14.0417 5.04167 14.2917 5 14.75C5.04167 15.2083 5.29167 15.4583 5.75 15.5C6.20833 15.4583 6.45833 15.2083 6.5 14.75Z"/>
</svg>
