<svg viewBox="0 0 16 17" xmlns="http://www.w3.org/2000/svg">
<path d="M8 3.25H1.5V7.75H15.25H16V8.5V14.5V15.25H15.25H13V16.5H11.75H10.25H9V15.25V13.75V12.5H10.25H11.75H13V13.75H14.5V9.25H0.75H0V8.5V2.5V1.75H0.75H8V0.5H8.75L11 2.5L8.75 4.5H8V3.25ZM5 12.5H5.75L8 14.5L5.75 16.5H5V15.25H4V16.5H2.75H1.25H0V15.25V13.75V12.5H1.25H2.75H4V13.75H5V12.5ZM13.25 1.75V3.25H14.75V1.75H13.25ZM12 0.5H13.25H14.75H16V1.75V3.25V4.5H14.75H13.25H12V3.25V1.75V0.5ZM2.75 13.75H1.25V15.25H2.75V13.75ZM10.25 13.75V15.25H11.75V13.75H10.25Z"/>
</svg>
