<svg viewBox="0 0 16 17" xmlns="http://www.w3.org/2000/svg">
<path d="M1.5625 13.0938L1.03125 12.5625L1.5625 12.0312L4.5625 9.03125L5.09375 8.5L6.15625 9.5625L5.625 10.0938L3.90625 11.8125H14.25H15V13.3125H14.25H3.90625L5.53125 14.9375L6.0625 15.4688L5 16.5312L4.46875 16L1.5625 13.0938ZM14.4375 5.09375L11.4375 8.09375L10.9062 8.625L9.84375 7.5625L10.375 7.03125L12.0938 5.3125H1.75H1V3.8125H1.75H12.0938L10.375 2.09375L9.84375 1.5625L10.9062 0.5L11.4375 1.03125L14.4375 4.03125L14.9688 4.5625L14.4375 5.09375Z"/>
</svg>
