<svg viewBox="0 0 16 17" xmlns="http://www.w3.org/2000/svg">
<path d="M11.9062 4.6875L15.4062 7.9375L16 8.5L15.4062 9.0625L11.9062 12.3125L11.375 12.8125L10.3438 11.7188L10.9062 11.1875L13 9.25H5.75H5V7.75H5.75H13L10.875 5.8125L10.3438 5.28125L11.375 4.1875L11.9062 4.6875ZM1.5 8.5C1.54167 10.3333 2.17708 11.8646 3.40625 13.0938C4.63542 14.3229 6.16667 14.9583 8 15H8.75V16.5H8C6.5 16.4792 5.15625 16.1146 3.96875 15.4062C2.76042 14.6979 1.80208 13.7396 1.09375 12.5312C0.385417 11.3438 0.0208333 10 0 8.5C0.0208333 7 0.385417 5.65625 1.09375 4.46875C1.80208 3.26042 2.76042 2.30208 3.96875 1.59375C5.15625 0.885417 6.5 0.520833 8 0.5H8.75V2H8C6.16667 2.04167 4.63542 2.67708 3.40625 3.90625C2.17708 5.13542 1.54167 6.66667 1.5 8.5Z"/>
</svg>
