<svg viewBox="0 0 16 17" xmlns="http://www.w3.org/2000/svg">
<path d="M8.75 4.6875L9.28125 4.1875L10.3125 5.28125L9.75 5.8125L7.65625 7.75H15.25H16V9.25H15.25H7.65625L9.75 11.1875L10.3125 11.7188L9.28125 12.8125L8.75 12.3125L5.25 9.0625L4.65625 8.5L5.25 7.9375L8.75 4.6875ZM1.5 8.5C1.54167 10.3333 2.17708 11.8646 3.40625 13.0938C4.63542 14.3229 6.16667 14.9583 8 15H8.75V16.5H8C6.5 16.4792 5.15625 16.1146 3.96875 15.4062C2.76042 14.6979 1.80208 13.7396 1.09375 12.5312C0.385417 11.3438 0.0208333 10 0 8.5C0.0208333 7 0.385417 5.65625 1.09375 4.46875C1.80208 3.26042 2.76042 2.30208 3.96875 1.59375C5.15625 0.885417 6.5 0.520833 8 0.5H8.75V2H8C6.16667 2.04167 4.63542 2.67708 3.40625 3.90625C2.17708 5.13542 1.54167 6.66667 1.5 8.5Z"/>
</svg>
