<svg viewBox="0 0 16 17" xmlns="http://www.w3.org/2000/svg">
<path d="M9 0.5V2.09375C10.1667 2.34375 11.1146 2.91667 11.8438 3.8125C12.5938 4.70833 12.9792 5.77083 13 7V9.75L15 12V13.5H13.5H2.5H1V12L3 9.75V7C3.02083 5.77083 3.40625 4.70833 4.15625 3.8125C4.88542 2.91667 5.83333 2.34375 7 2.09375V0.5H9ZM11.5 10.3125V9.75V7C11.4792 6 11.1354 5.17708 10.4688 4.53125C9.82292 3.86458 9 3.52083 8 3.5C7 3.52083 6.17708 3.86458 5.53125 4.53125C4.86458 5.17708 4.52083 6 4.5 7V9.75V10.3125L4.125 10.75L3 12H13L11.875 10.75L11.5 10.3125ZM10 14.5C10 15.0417 9.80208 15.5104 9.40625 15.9062C9.01042 16.3021 8.54167 16.5 8 16.5C7.45833 16.5 6.98958 16.3021 6.59375 15.9062C6.19792 15.5104 6 15.0417 6 14.5H8H10Z"/>
</svg>
