<svg xmlns="http://www.w3.org/2000/svg" width="1em" height="1em" viewBox="0 0 24 24">
    <path d="M18 9a3 3 0 0 1 2.995 2.824L21 12v3c0 .64-.379 1.139-.882 1.367l-.118.047V20a2 2 0 0 1-1.85 1.995L18 22H6a2 2 0 0 1-1.995-1.85L4 20v-3.585a1.489 1.489 0 0 1-.993-1.27L3 15v-3a3 3 0 0 1 2.824-2.995L6 9zm-.067 6.7a1 1 0 0 0-1.09-.072l-.11.072l-.266.2a3 3 0 0 1-3.429.12l-.171-.12l-.267-.2a1 1 0 0 0-1.09-.072l-.11.072l-.267.2a3 3 0 0 1-3.428.12l-.172-.12l-.266-.2a1 1 0 0 0-1.09-.072l-.11.072l-.067.05V20h12v-4.25zM18 11H6a1 1 0 0 0-1 1v2.005a3 3 0 0 1 3.467.095l.266.2a1 1 0 0 0 1.2 0l.267-.2a3 3 0 0 1 3.6 0l.267.2a1 1 0 0 0 1.2 0l.266-.2A3 3 0 0 1 19 14.005V12a1 1 0 0 0-1-1m-5.4-8.8a8.843 8.843 0 0 1 1.147 1.073C14.271 3.862 15 4.855 15 6a3 3 0 1 1-6 0c0-1.145.73-2.138 1.253-2.727A8.843 8.843 0 0 1 11.4 2.2a1 1 0 0 1 1.2 0M12 4.334a6.384 6.384 0 0 0-.253.268C11.271 5.138 11 5.645 11 6a1 1 0 1 0 2 0c0-.355-.27-.862-.747-1.398A6.384 6.384 0 0 0 12 4.334" />
</svg>
