<svg viewBox="0 0 18 16" xmlns="http://www.w3.org/2000/svg">
<path d="M9 15.5C8.95833 15.4583 8.52083 15.25 7.6875 14.875C6.83333 14.5208 5.77083 14.3125 4.5 14.25C4.04167 14.25 3.54167 14.2917 3 14.375C2.47917 14.4375 1.97917 14.5208 1.5 14.625C1.0625 14.7292 0.708333 14.8125 0.4375 14.875C0.166667 14.9583 0.0208333 15 0 15V13.4375V2.75C0.0208333 2.70833 0.479167 2.5 1.375 2.125C2.27083 1.77083 3.47917 1.5625 5 1.5C6.14583 1.54167 7.09375 1.66667 7.84375 1.875C8.59375 2.10417 8.97917 2.22917 9 2.25C9.04167 2.22917 9.45833 2.10417 10.25 1.875C11.0417 1.66667 11.9583 1.54167 13 1.5C14.5208 1.5625 15.7292 1.77083 16.625 2.125C17.5208 2.5 17.9792 2.70833 18 2.75V13.4375V15C18 15 17.8542 14.9583 17.5625 14.875C17.2917 14.8125 16.9375 14.7292 16.5 14.625C16.0208 14.5208 15.5208 14.4375 15 14.375C14.4583 14.2917 13.9583 14.25 13.5 14.25C12.2292 14.3125 11.1667 14.5208 10.3125 14.875C9.47917 15.25 9.04167 15.4583 9 15.5ZM16.5 13.0938V3.6875C16.375 3.64583 16.25 3.59375 16.125 3.53125C15.3542 3.21875 14.3125 3.04167 13 3C12.125 3.02083 11.3333 3.13542 10.625 3.34375C10.2708 3.42708 10 3.5 9.8125 3.5625C9.79167 3.5625 9.77083 3.57292 9.75 3.59375V13.5C9.75 13.5 9.76042 13.5 9.78125 13.5C10.2396 13.3125 10.7917 13.1458 11.4375 13C12.0625 12.8542 12.7396 12.7708 13.4688 12.75C13.9688 12.75 14.4792 12.7812 15 12.8438C15.5417 12.9271 16.0417 13.0104 16.5 13.0938ZM8.25 13.5V3.5625C8.22917 3.5625 8.20833 3.5625 8.1875 3.5625C8.02083 3.47917 7.78125 3.39583 7.46875 3.3125C6.80208 3.125 5.97917 3.02083 5 3C3.6875 3.04167 2.64583 3.21875 1.875 3.53125C1.72917 3.59375 1.60417 3.64583 1.5 3.6875V13.0938C1.95833 13.0104 2.45833 12.9271 3 12.8438C3.52083 12.7812 4.03125 12.75 4.53125 12.75C5.26042 12.7708 5.9375 12.8542 6.5625 13C7.1875 13.1458 7.73958 13.3125 8.21875 13.5C8.23958 13.5 8.25 13.5 8.25 13.5Z"/>
</svg>
