<svg viewBox="0 0 20 17" xmlns="http://www.w3.org/2000/svg">
<path d="M1.5 2V15H4.5V11.5H7.5V15H10.5V2H1.5ZM0 0.5H1.5H10.5H12V2V11.7188L9.90625 16.5H1.5H0V15V2V0.5ZM2.75 3.25H5.25V5.75H2.75V3.25ZM9.25 3.25V5.75H6.75V3.25H9.25ZM2.75 7.25H5.25V9.75H2.75V7.25ZM9.25 7.25V9.75H6.75V7.25H9.25ZM13 9C13.0208 8.0625 13.4375 7.34375 14.25 6.84375C15.0833 6.38542 15.9167 6.38542 16.75 6.84375C17.5625 7.34375 17.9792 8.0625 18 9C17.9792 9.9375 17.5625 10.6562 16.75 11.1562C15.9167 11.6146 15.0833 11.6146 14.25 11.1562C13.4375 10.6562 13.0208 9.9375 13 9ZM18.25 12.5L20 16.5H11L12.75 12.5H18.25Z"/>
</svg>
