<svg viewBox="0 0 20 17" xmlns="http://www.w3.org/2000/svg">
<path d="M7 0.5H8.75H9.5V2H8.75H7.59375L7 4.5H9.5H11H11.25H12V5.8125C11.8125 5.875 11.6354 5.9375 11.4688 6H11.25H10.875H9.375H6.65625H5.125H2.625H1.125H0.75H0V4.5H0.75H1H2.5H5.46875L6.28125 1.09375L6.40625 0.5H7ZM8 15V16.5H2L1.21875 7H2.71875L3.375 15H8ZM10.5 9.90625V11H18.5V9.90625C18.4792 9.86458 18.4479 9.8125 18.4062 9.75C18.3021 9.5625 18.1146 9.33333 17.8438 9.0625C17.7396 8.97917 17.625 8.89583 17.5 8.8125C17.4583 9.08333 17.2917 9.22917 17 9.25C16.6875 9.22917 16.5208 9.0625 16.5 8.75C16.5 8.58333 16.5625 8.45833 16.6875 8.375C16.2292 8.1875 15.6458 8.07292 14.9375 8.03125C14.9792 8.09375 15 8.16667 15 8.25C14.9792 8.5625 14.8125 8.72917 14.5 8.75C14.1875 8.72917 14.0208 8.5625 14 8.25C14 8.16667 14.0208 8.09375 14.0625 8.03125C13.3542 8.07292 12.7708 8.1875 12.3125 8.375C12.4375 8.45833 12.5 8.58333 12.5 8.75C12.4792 9.0625 12.3125 9.22917 12 9.25C11.7083 9.22917 11.5417 9.08333 11.5 8.8125C11.375 8.89583 11.2604 8.97917 11.1562 9.0625C10.8854 9.33333 10.6979 9.5625 10.5938 9.75C10.5521 9.79167 10.5312 9.83333 10.5312 9.875C10.5104 9.89583 10.5 9.90625 10.5 9.90625ZM10.5 13.5V15H18.5V13.5H10.5ZM9 12.25V12V11.75V9.75V9.625L9.03125 9.5L9.75 9.75C9.39583 9.625 9.1875 9.55208 9.125 9.53125C9.04167 9.51042 9.01042 9.5 9.03125 9.5C9.05208 9.47917 9.0625 9.46875 9.0625 9.46875C9.0625 9.46875 9.0625 9.45833 9.0625 9.4375C9.08333 9.39583 9.10417 9.36458 9.125 9.34375C9.14583 9.23958 9.20833 9.11458 9.3125 8.96875C9.47917 8.67708 9.76042 8.33333 10.1562 7.9375C10.5729 7.5625 11.1354 7.22917 11.8438 6.9375C12.5521 6.66667 13.4375 6.52083 14.5 6.5C15.5625 6.52083 16.4479 6.66667 17.1562 6.9375C17.8646 7.22917 18.4271 7.5625 18.8438 7.9375C19.2396 8.33333 19.5208 8.67708 19.6875 8.96875C19.7708 9.11458 19.8333 9.23958 19.875 9.34375C19.8958 9.36458 19.9167 9.38542 19.9375 9.40625C19.9375 9.42708 19.9375 9.4375 19.9375 9.4375C19.9375 9.45833 19.9375 9.46875 19.9375 9.46875C19.9375 9.46875 19.9375 9.47917 19.9375 9.5H19.9688C19.9688 9.5 19.9375 9.51042 19.875 9.53125C19.7917 9.55208 19.5833 9.625 19.25 9.75L19.9688 9.5L20 9.625V9.75V11.75V12V12.25V12.5V12.75V15.75V16.5H19.25H9.75H9V15.75V12.75V12.5V12.25Z"/>
</svg>
