<svg viewBox="0 0 16 17" xmlns="http://www.w3.org/2000/svg">
<path d="M8 2C6.8125 2 5.72917 2.29167 4.75 2.875C3.77083 3.4375 2.97917 4.22917 2.375 5.25C1.79167 6.27083 1.5 7.35417 1.5 8.5C1.5 9.64583 1.79167 10.7292 2.375 11.75C2.97917 12.7708 3.77083 13.5625 4.75 14.125C5.72917 14.7083 6.8125 15 8 15C9.1875 15 10.2708 14.7083 11.25 14.125C12.2292 13.5625 13.0208 12.7708 13.625 11.75C14.2083 10.7292 14.5 9.64583 14.5 8.5C14.5 7.35417 14.2083 6.27083 13.625 5.25C13.0208 4.22917 12.2292 3.4375 11.25 2.875C10.2708 2.29167 9.1875 2 8 2ZM8 16.5C6.54167 16.4792 5.20833 16.125 4 15.4375C2.79167 14.7292 1.8125 13.75 1.0625 12.5C0.354167 11.2292 0 9.89583 0 8.5C0 7.10417 0.354167 5.77083 1.0625 4.5C1.8125 3.25 2.79167 2.27083 4 1.5625C5.20833 0.875 6.54167 0.520833 8 0.5C9.45833 0.520833 10.7917 0.875 12 1.5625C13.2083 2.27083 14.1875 3.25 14.9375 4.5C15.6458 5.77083 16 7.10417 16 8.5C16 9.89583 15.6458 11.2292 14.9375 12.5C14.1875 13.75 13.2083 14.7292 12 15.4375C10.7917 16.125 9.45833 16.4792 8 16.5ZM11.0625 6.5L10.5312 7.03125L9.0625 8.5L10.5312 9.96875L11.0625 10.5L10 11.5625L9.46875 11.0312L8 9.5625L6.53125 11.0312L6 11.5625L4.9375 10.5L5.46875 9.96875L6.9375 8.5L5.46875 7.03125L4.9375 6.5L6 5.4375L6.53125 5.96875L8 7.4375L9.46875 5.96875L10 5.4375L11.0625 6.5Z"/>
</svg>
