<svg viewBox="0 0 18 16" xmlns="http://www.w3.org/2000/svg">
<path d="M9 1.5C10.6458 1.54167 12.0833 1.96875 13.3125 2.78125C14.5625 3.61458 15.5729 4.57292 16.3438 5.65625C17.1354 6.73958 17.6875 7.6875 18 8.5C17.6875 9.3125 17.1354 10.2604 16.3438 11.3438C15.5729 12.4271 14.5625 13.3854 13.3125 14.2188C12.0833 15.0312 10.6458 15.4583 9 15.5C7.35417 15.4583 5.91667 15.0312 4.6875 14.2188C3.45833 13.3854 2.44792 12.4271 1.65625 11.3438C0.864583 10.2604 0.3125 9.3125 0 8.5C0.3125 7.6875 0.864583 6.73958 1.65625 5.65625C2.44792 4.57292 3.45833 3.61458 4.6875 2.78125C5.91667 1.96875 7.35417 1.54167 9 1.5ZM4.5 8.5C4.5 9.3125 4.69792 10.0625 5.09375 10.75C5.48958 11.4375 6.04167 11.9896 6.75 12.4062C7.45833 12.8021 8.20833 13 9 13C9.79167 13 10.5417 12.8021 11.25 12.4062C11.9583 11.9896 12.5104 11.4375 12.9062 10.75C13.3021 10.0625 13.5 9.3125 13.5 8.5C13.5 7.6875 13.3021 6.9375 12.9062 6.25C12.5104 5.5625 11.9583 5.01042 11.25 4.59375C10.5417 4.19792 9.79167 4 9 4C8.20833 4 7.45833 4.19792 6.75 4.59375C6.04167 5.01042 5.48958 5.5625 5.09375 6.25C4.69792 6.9375 4.5 7.6875 4.5 8.5ZM6 8.5C6 8.29167 6.02083 8.09375 6.0625 7.90625L9 8.5L8.40625 5.5625C8.59375 5.52083 8.79167 5.5 9 5.5C9.85417 5.52083 10.5625 5.8125 11.125 6.375C11.6875 6.9375 11.9792 7.64583 12 8.5C11.9792 9.35417 11.6875 10.0625 11.125 10.625C10.5625 11.1875 9.85417 11.4792 9 11.5C8.14583 11.4792 7.4375 11.1875 6.875 10.625C6.3125 10.0625 6.02083 9.35417 6 8.5Z"/>
</svg>
