<svg viewBox="0 0 16 17" xmlns="http://www.w3.org/2000/svg">
<path d="M14.5 8.5C14.5 7.3125 14.2083 6.22917 13.625 5.25C13.0625 4.27083 12.2708 3.47917 11.25 2.875C10.2292 2.29167 9.14583 2 8 2C6.85417 2 5.77083 2.29167 4.75 2.875C3.72917 3.47917 2.9375 4.27083 2.375 5.25C1.79167 6.22917 1.5 7.3125 1.5 8.5C1.5 9.6875 1.79167 10.7708 2.375 11.75C2.9375 12.7292 3.72917 13.5208 4.75 14.125C5.77083 14.7083 6.85417 15 8 15C9.14583 15 10.2292 14.7083 11.25 14.125C12.2708 13.5208 13.0625 12.7292 13.625 11.75C14.2083 10.7708 14.5 9.6875 14.5 8.5ZM8 0.5C9.45833 0.520833 10.7917 0.875 12 1.5625C13.2083 2.27083 14.1875 3.25 14.9375 4.5C15.6458 5.77083 16 7.10417 16 8.5C16 9.89583 15.6458 11.2292 14.9375 12.5C14.1875 13.75 13.2083 14.7292 12 15.4375C10.7917 16.125 9.45833 16.4792 8 16.5C6.54167 16.4792 5.20833 16.125 4 15.4375C2.79167 14.7292 1.8125 13.75 1.0625 12.5C0.354167 11.2292 0 9.89583 0 8.5C0 7.10417 0.354167 5.77083 1.0625 4.5C1.8125 3.25 2.79167 2.27083 4 1.5625C5.20833 0.875 6.54167 0.520833 8 0.5ZM5.5 8C5.22917 8 5 7.90625 4.8125 7.71875C4.625 7.53125 4.52083 7.29167 4.5 7C4.52083 6.70833 4.625 6.46875 4.8125 6.28125C5 6.09375 5.22917 6 5.5 6C5.79167 6 6.03125 6.09375 6.21875 6.28125C6.40625 6.46875 6.5 6.70833 6.5 7C6.5 7.29167 6.40625 7.53125 6.21875 7.71875C6.03125 7.90625 5.79167 8 5.5 8ZM11.5 7C11.5 7.29167 11.4062 7.53125 11.2188 7.71875C11.0312 7.90625 10.7917 8 10.5 8C10.2292 8 10 7.90625 9.8125 7.71875C9.625 7.53125 9.52083 7.29167 9.5 7C9.52083 6.70833 9.625 6.46875 9.8125 6.28125C10 6.09375 10.2292 6 10.5 6C10.7917 6 11.0312 6.09375 11.2188 6.28125C11.4062 6.46875 11.5 6.70833 11.5 7ZM5.75 10.75H10.25H11V12.25H10.25H5.75H5V10.75H5.75Z"/>
</svg>
