<svg viewBox="0 0 16 17" xmlns="http://www.w3.org/2000/svg">
<path d="M14.5 8.5C14.5 7.3125 14.2083 6.22917 13.625 5.25C13.0625 4.27083 12.2708 3.47917 11.25 2.875C10.2292 2.29167 9.14583 2 8 2C6.85417 2 5.77083 2.29167 4.75 2.875C3.72917 3.47917 2.9375 4.27083 2.375 5.25C1.79167 6.22917 1.5 7.3125 1.5 8.5C1.5 9.6875 1.79167 10.7708 2.375 11.75C2.9375 12.7292 3.72917 13.5208 4.75 14.125C5.77083 14.7083 6.85417 15 8 15C9.14583 15 10.2292 14.7083 11.25 14.125C12.2708 13.5208 13.0625 12.7292 13.625 11.75C14.2083 10.7708 14.5 9.6875 14.5 8.5ZM0 8.5C0.0208333 7.04167 0.375 5.70833 1.0625 4.5C1.77083 3.29167 2.75 2.3125 4 1.5625C5.27083 0.854167 6.60417 0.5 8 0.5C9.39583 0.5 10.7292 0.854167 12 1.5625C13.25 2.3125 14.2292 3.29167 14.9375 4.5C15.625 5.70833 15.9792 7.04167 16 8.5C15.9792 9.95833 15.625 11.2917 14.9375 12.5C14.2292 13.7083 13.25 14.6875 12 15.4375C10.7292 16.1458 9.39583 16.5 8 16.5C6.60417 16.5 5.27083 16.1458 4 15.4375C2.75 14.6875 1.77083 13.7083 1.0625 12.5C0.375 11.2917 0.0208333 9.95833 0 8.5ZM8.0625 13.25C6.95833 13.2292 6.02083 12.8646 5.25 12.1562C4.5 11.4688 4.05208 10.5833 3.90625 9.5H12.2188C12.0938 10.5833 11.6458 11.4688 10.875 12.1562C10.1042 12.8646 9.16667 13.2292 8.0625 13.25ZM5.5 5.25C5.95833 5.27083 6.36458 5.53125 6.71875 6.03125C7.05208 6.53125 7.22917 7.10417 7.25 7.75C7.22917 7.70833 7.05208 7.54167 6.71875 7.25C6.36458 6.95833 5.95833 6.79167 5.5 6.75C5.04167 6.79167 4.64583 6.95833 4.3125 7.25C3.95833 7.54167 3.77083 7.70833 3.75 7.75C3.77083 7.10417 3.95833 6.53125 4.3125 6.03125C4.64583 5.53125 5.04167 5.27083 5.5 5.25ZM8.75 7.75C8.77083 7.10417 8.95833 6.53125 9.3125 6.03125C9.64583 5.53125 10.0417 5.27083 10.5 5.25C10.9583 5.27083 11.3646 5.53125 11.7188 6.03125C12.0521 6.53125 12.2292 7.10417 12.25 7.75C12.2292 7.70833 12.0521 7.54167 11.7188 7.25C11.3646 6.95833 10.9583 6.79167 10.5 6.75C10.0417 6.79167 9.64583 6.95833 9.3125 7.25C8.95833 7.54167 8.77083 7.70833 8.75 7.75Z"/>
</svg>
