<svg viewBox="0 0 16 17" xmlns="http://www.w3.org/2000/svg">
<path d="M14.5 8.5C14.5 7.3125 14.2083 6.22917 13.625 5.25C13.0625 4.27083 12.2708 3.47917 11.25 2.875C10.2292 2.29167 9.14583 2 8 2C6.85417 2 5.77083 2.29167 4.75 2.875C3.72917 3.47917 2.9375 4.27083 2.375 5.25C1.79167 6.22917 1.5 7.3125 1.5 8.5C1.5 9.6875 1.79167 10.7708 2.375 11.75C2.9375 12.7292 3.72917 13.5208 4.75 14.125C5.77083 14.7083 6.85417 15 8 15C9.14583 15 10.2292 14.7083 11.25 14.125C12.2708 13.5208 13.0625 12.7292 13.625 11.75C14.2083 10.7708 14.5 9.6875 14.5 8.5ZM0 8.5C0.0208333 7.04167 0.375 5.70833 1.0625 4.5C1.77083 3.29167 2.75 2.3125 4 1.5625C5.27083 0.854167 6.60417 0.5 8 0.5C9.39583 0.5 10.7292 0.854167 12 1.5625C13.25 2.3125 14.2292 3.29167 14.9375 4.5C15.625 5.70833 15.9792 7.04167 16 8.5C15.9792 9.95833 15.625 11.2917 14.9375 12.5C14.2292 13.7083 13.25 14.6875 12 15.4375C10.7292 16.1458 9.39583 16.5 8 16.5C6.60417 16.5 5.27083 16.1458 4 15.4375C2.75 14.6875 1.77083 13.7083 1.0625 12.5C0.375 11.2917 0.0208333 9.95833 0 8.5ZM9.21875 13.25C8.98958 12.9583 8.58333 12.7917 8 12.75C7.41667 12.7917 7.02083 12.9583 6.8125 13.25L6.28125 13.8125L5.1875 12.7812L5.6875 12.25C5.91667 12 6.22917 11.7708 6.625 11.5625C7 11.375 7.45833 11.2708 8 11.25C8.54167 11.2708 9 11.375 9.375 11.5625C9.77083 11.7708 10.0833 12 10.3125 12.25L10.8125 12.7812L9.71875 13.8125L9.1875 13.25H9.21875ZM6.96875 4L6.59375 4.34375L6.375 4.59375C5.60417 5.34375 4.69792 5.80208 3.65625 5.96875L3.59375 6L3.09375 6.0625L2.9375 5.09375L3.40625 5H3.5C4.33333 4.85417 5.05208 4.47917 5.65625 3.875L5.90625 3.65625L6.25 3.28125L6.96875 4ZM9.40625 4.34375L9.03125 4L9.75 3.28125L10.0938 3.65625L10.3438 3.875C10.9479 4.47917 11.6667 4.85417 12.5 5H12.5938L13.0625 5.09375L12.9062 6.0625L12.4062 6L12.3438 5.96875C11.2812 5.80208 10.375 5.34375 9.625 4.59375L9.40625 4.34375ZM3.5 7L7.21875 9L3.5 11L4.9375 9L3.5 7ZM8.78125 9L12.5 7L11.0625 9L12.5 11L8.78125 9Z"/>
</svg>
