<svg viewBox="0 0 16 17" xmlns="http://www.w3.org/2000/svg">
<path d="M3.75 5.5C3.25 5.47917 2.83333 5.3125 2.5 5C2.1875 4.66667 2.02083 4.25 2 3.75C2.02083 3.25 2.1875 2.83333 2.5 2.5C2.83333 2.1875 3.25 2.02083 3.75 2C4.02083 2 4.28125 2.0625 4.53125 2.1875C4.61458 1.6875 4.83333 1.28125 5.1875 0.96875C5.5625 0.677083 6 0.520833 6.5 0.5C7.125 0.520833 7.625 0.75 8 1.1875C8.375 0.75 8.875 0.520833 9.5 0.5C10 0.520833 10.4375 0.677083 10.8125 0.96875C11.1667 1.28125 11.3854 1.6875 11.4688 2.1875C11.7188 2.0625 11.9792 2 12.25 2C12.75 2.02083 13.1667 2.1875 13.5 2.5C13.8125 2.83333 13.9792 3.25 14 3.75C13.9792 4.25 13.8125 4.66667 13.5 5C13.1667 5.3125 12.75 5.47917 12.25 5.5H11H10V7.25L11.1875 8L12.8125 7L14.4062 8L14.4688 7.96875L15.9375 7.40625C15.9792 7.76042 16 8.125 16 8.5C16 8.66667 15.9896 8.83333 15.9688 9C15.8854 10.4167 15.4792 11.6875 14.75 12.8125C14.0208 13.9375 13.0729 14.8333 11.9062 15.5C10.7396 16.1458 9.4375 16.4792 8 16.5C6.5625 16.4792 5.26042 16.1458 4.09375 15.5C2.92708 14.8333 1.97917 13.9375 1.25 12.8125C0.520833 11.6875 0.114583 10.4167 0.03125 9C0.0104167 8.83333 0 8.66667 0 8.5C0 8.125 0.0208333 7.76042 0.0625 7.40625L1.53125 7.96875L1.59375 8L3.1875 7L4.8125 8L6 7.25V5.5H5H3.75ZM14.4062 9.59375L14.25 9.65625L13.5938 9.28125L12.8125 8.78125L12 9.28125L11.1875 9.78125L10.4062 9.28125L9.59375 8.78125L8.78125 9.28125L8 9.78125L7.21875 9.28125L6.40625 8.78125L5.59375 9.28125L4.8125 9.78125L4 9.28125L3.1875 8.78125L2.40625 9.28125L1.75 9.65625L1.59375 9.59375C1.88542 11.1562 2.61458 12.4375 3.78125 13.4375C4.94792 14.4375 6.35417 14.9583 8 15C9.64583 14.9583 11.0521 14.4375 12.2188 13.4375C13.3854 12.4375 14.1146 11.1562 14.4062 9.59375ZM5.5 10C5.79167 10 6.03125 10.0938 6.21875 10.2812C6.40625 10.4688 6.5 10.7083 6.5 11C6.5 11.2917 6.40625 11.5312 6.21875 11.7188C6.03125 11.9062 5.79167 12 5.5 12C5.22917 12 5 11.9062 4.8125 11.7188C4.625 11.5312 4.52083 11.2917 4.5 11C4.52083 10.7083 4.625 10.4688 4.8125 10.2812C5 10.0938 5.22917 10 5.5 10ZM9.5 11C9.52083 10.7083 9.625 10.4688 9.8125 10.2812C10 10.0938 10.2292 10 10.5 10C10.7917 10 11.0312 10.0938 11.2188 10.2812C11.4062 10.4688 11.5 10.7083 11.5 11C11.5 11.2917 11.4062 11.5312 11.2188 11.7188C11.0312 11.9062 10.7917 12 10.5 12C10.2292 12 10 11.9062 9.8125 11.7188C9.625 11.5312 9.52083 11.2917 9.5 11ZM8 12C8.41667 12.0208 8.77083 12.1667 9.0625 12.4375C9.33333 12.7292 9.47917 13.0833 9.5 13.5V14H6.5V13.5C6.52083 13.0833 6.66667 12.7292 6.9375 12.4375C7.22917 12.1667 7.58333 12.0208 8 12Z"/>
</svg>
