<svg viewBox="0 0 20 17" xmlns="http://www.w3.org/2000/svg">
<path d="M10 2C8.16667 2.04167 6.63542 2.67708 5.40625 3.90625C4.17708 5.13542 3.54167 6.66667 3.5 8.5H2C2.02083 7 2.38542 5.65625 3.09375 4.46875C3.80208 3.26042 4.76042 2.30208 5.96875 1.59375C7.15625 0.885417 8.5 0.520833 10 0.5C11.5 0.520833 12.8438 0.885417 14.0312 1.59375C15.2396 2.30208 16.1979 3.26042 16.9062 4.46875C17.6146 5.65625 17.9792 7 18 8.5H16.5C16.4583 6.66667 15.8229 5.13542 14.5938 3.90625C13.3646 2.67708 11.8333 2.04167 10 2ZM7.5 7.5C7.22917 7.5 7 7.40625 6.8125 7.21875C6.625 7.03125 6.52083 6.79167 6.5 6.5C6.52083 6.20833 6.625 5.96875 6.8125 5.78125L5.84375 5.46875L5.375 5.3125L5.6875 4.375L6.15625 4.53125L9.15625 5.53125L9.625 5.6875L9.3125 6.625L8.84375 6.46875L8.5 6.375C8.5 6.41667 8.5 6.45833 8.5 6.5C8.5 6.79167 8.40625 7.03125 8.21875 7.21875C8.03125 7.40625 7.79167 7.5 7.5 7.5ZM13.5 6.5H13.5312C13.5104 6.79167 13.4062 7.03125 13.2188 7.21875C13.0312 7.40625 12.8021 7.5 12.5312 7.5C12.2396 7.5 12 7.40625 11.8125 7.21875C11.625 7.03125 11.5312 6.79167 11.5312 6.5C11.5312 6.4375 11.5312 6.38542 11.5312 6.34375L11.1562 6.46875L10.6875 6.625L10.375 5.6875L10.8438 5.53125L13.8438 4.53125L14.3125 4.375L14.625 5.3125L14.1562 5.46875L13.2188 5.78125C13.4062 5.96875 13.5 6.20833 13.5 6.5ZM0 16.5V9.5H20V16.5H0ZM12.5 12.5H13V11.5H12.5H12V11V10.5H11V11V11.5H10V11V10.5H9V11V11.5H8.5H8V12.5H8.5H9V13.5H8.5H8V14.5H8.5H9V15V15.5H10V15V14.5H11V15V15.5H12V15V14.5H12.5H13V13.5H12.5H12V12.5H12.5ZM10 12.5H11V13.5H10V12.5ZM18.2188 11.1875L17.4375 10.5625L17.125 10.9375L14.125 14.4375L13.7812 14.8125L14.5625 15.4688L14.875 15.0625L17.875 11.5625L18.2188 11.1875ZM14 11.5C14.0417 11.9583 14.2917 12.2083 14.75 12.25C15.2083 12.2083 15.4583 11.9583 15.5 11.5C15.4583 11.0417 15.2083 10.7917 14.75 10.75C14.2917 10.7917 14.0417 11.0417 14 11.5ZM17.25 13.75C16.7917 13.7917 16.5417 14.0417 16.5 14.5C16.5417 14.9583 16.7917 15.2083 17.25 15.25C17.7083 15.2083 17.9583 14.9583 18 14.5C17.9583 14.0417 17.7083 13.7917 17.25 13.75ZM7 10.5H6V11V13V13.5H7V13V11V10.5ZM6 14.5V15.5H7V14.5H6ZM3 11C2.83333 11.0208 2.67708 11.0729 2.53125 11.1562C2.11458 11.3438 1.89583 11.7083 1.875 12.25C1.95833 12.7292 2.17708 13.0417 2.53125 13.1875C2.78125 13.3125 3.04167 13.4062 3.3125 13.4688C3.3125 13.4688 3.32292 13.4688 3.34375 13.4688L3.40625 13.5C3.67708 13.5625 3.88542 13.6354 4.03125 13.7188C4.13542 13.7812 4.17708 13.8229 4.15625 13.8438C4.15625 13.9062 4.14583 13.9375 4.125 13.9375C4.125 13.9583 4.09375 13.9896 4.03125 14.0312C3.88542 14.0938 3.71875 14.125 3.53125 14.125C3.28125 14.1042 3 14.0417 2.6875 13.9375C2.66667 13.9167 2.63542 13.9062 2.59375 13.9062C2.57292 13.8854 2.55208 13.875 2.53125 13.875L2.0625 13.7188L1.75 14.6875L2.21875 14.8438C2.26042 14.8438 2.29167 14.8438 2.3125 14.8438C2.33333 14.8646 2.35417 14.875 2.375 14.875C2.5625 14.9375 2.77083 15 3 15.0625V15.5H4V15.0625C4.16667 15.0417 4.33333 14.9896 4.5 14.9062C4.89583 14.7188 5.11458 14.3542 5.15625 13.8125C5.09375 13.3333 4.88542 13.0104 4.53125 12.8438C4.26042 12.6979 3.97917 12.5938 3.6875 12.5312C3.6875 12.5312 3.67708 12.5312 3.65625 12.5312C3.63542 12.5104 3.61458 12.5 3.59375 12.5C3.32292 12.4375 3.125 12.3646 3 12.2812C2.91667 12.2396 2.875 12.2188 2.875 12.2188C2.875 12.2188 2.875 12.2083 2.875 12.1875C2.875 12.1458 2.88542 12.125 2.90625 12.125C2.90625 12.1042 2.9375 12.0729 3 12.0312C3.14583 11.9688 3.3125 11.9375 3.5 11.9375C3.72917 11.9375 3.97917 11.9792 4.25 12.0625L4.71875 12.1875L4.96875 11.1875L4.5 11.0938C4.33333 11.0521 4.16667 11.0104 4 10.9688V10.5H3V11Z"/>
</svg>
