<svg viewBox="0 0 16 17" xmlns="http://www.w3.org/2000/svg">
<path d="M14.5 8.5C14.5 7.3125 14.2083 6.22917 13.625 5.25C13.0625 4.27083 12.2708 3.47917 11.25 2.875C10.2292 2.29167 9.14583 2 8 2C6.85417 2 5.77083 2.29167 4.75 2.875C3.72917 3.47917 2.9375 4.27083 2.375 5.25C1.79167 6.22917 1.5 7.3125 1.5 8.5C1.5 9.6875 1.79167 10.7708 2.375 11.75C2.9375 12.7292 3.72917 13.5208 4.75 14.125C5.77083 14.7083 6.85417 15 8 15C9.14583 15 10.2292 14.7083 11.25 14.125C12.2708 13.5208 13.0625 12.7292 13.625 11.75C14.2083 10.7708 14.5 9.6875 14.5 8.5ZM0 8.5C0.0208333 7.04167 0.375 5.70833 1.0625 4.5C1.77083 3.29167 2.75 2.3125 4 1.5625C5.27083 0.854167 6.60417 0.5 8 0.5C9.39583 0.5 10.7292 0.854167 12 1.5625C13.25 2.3125 14.2292 3.29167 14.9375 4.5C15.625 5.70833 15.9792 7.04167 16 8.5C15.9792 9.95833 15.625 11.2917 14.9375 12.5C14.2292 13.7083 13.25 14.6875 12 15.4375C10.7292 16.1458 9.39583 16.5 8 16.5C6.60417 16.5 5.27083 16.1458 4 15.4375C2.75 14.6875 1.77083 13.7083 1.0625 12.5C0.375 11.2917 0.0208333 9.95833 0 8.5ZM3.875 10.9062L5.125 10.0938C5.3125 10.3854 5.66667 10.6875 6.1875 11C6.6875 11.3125 7.29167 11.4792 8 11.5C8.70833 11.4792 9.3125 11.3125 9.8125 11C10.3333 10.6875 10.6875 10.3854 10.875 10.0938L12.125 10.9062C11.7917 11.4062 11.2708 11.875 10.5625 12.3125C9.83333 12.75 8.97917 12.9792 8 13C7.02083 12.9792 6.16667 12.75 5.4375 12.3125C4.72917 11.875 4.20833 11.4062 3.875 10.9062ZM4.5 7C4.52083 6.70833 4.625 6.46875 4.8125 6.28125C5 6.09375 5.22917 6 5.5 6C5.79167 6 6.03125 6.09375 6.21875 6.28125C6.40625 6.46875 6.5 6.70833 6.5 7C6.5 7.29167 6.40625 7.53125 6.21875 7.71875C6.03125 7.90625 5.79167 8 5.5 8C5.22917 8 5 7.90625 4.8125 7.71875C4.625 7.53125 4.52083 7.29167 4.5 7ZM10.5 6C10.7917 6 11.0312 6.09375 11.2188 6.28125C11.4062 6.46875 11.5 6.70833 11.5 7C11.5 7.29167 11.4062 7.53125 11.2188 7.71875C11.0312 7.90625 10.7917 8 10.5 8C10.2292 8 10 7.90625 9.8125 7.71875C9.625 7.53125 9.52083 7.29167 9.5 7C9.52083 6.70833 9.625 6.46875 9.8125 6.28125C10 6.09375 10.2292 6 10.5 6Z"/>
</svg>
