<svg viewBox="0 0 16 17" xmlns="http://www.w3.org/2000/svg">
<path d="M14.5 8.5C14.5 7.3125 14.2083 6.22917 13.625 5.25C13.0625 4.27083 12.2708 3.47917 11.25 2.875C10.2292 2.29167 9.14583 2 8 2C6.85417 2 5.77083 2.29167 4.75 2.875C3.72917 3.47917 2.9375 4.27083 2.375 5.25C1.79167 6.22917 1.5 7.3125 1.5 8.5C1.5 9.6875 1.79167 10.7708 2.375 11.75C2.9375 12.7292 3.72917 13.5208 4.75 14.125C5.77083 14.7083 6.85417 15 8 15C9.14583 15 10.2292 14.7083 11.25 14.125C12.2708 13.5208 13.0625 12.7292 13.625 11.75C14.2083 10.7708 14.5 9.6875 14.5 8.5ZM0 8.5C0.0208333 7.04167 0.375 5.70833 1.0625 4.5C1.77083 3.29167 2.75 2.3125 4 1.5625C5.27083 0.854167 6.60417 0.5 8 0.5C9.39583 0.5 10.7292 0.854167 12 1.5625C13.25 2.3125 14.2292 3.29167 14.9375 4.5C15.625 5.70833 15.9792 7.04167 16 8.5C15.9792 9.95833 15.625 11.2917 14.9375 12.5C14.2292 13.7083 13.25 14.6875 12 15.4375C10.7292 16.1458 9.39583 16.5 8 16.5C6.60417 16.5 5.27083 16.1458 4 15.4375C2.75 14.6875 1.77083 13.7083 1.0625 12.5C0.375 11.2917 0.0208333 9.95833 0 8.5ZM9.21875 13.25C8.98958 12.9583 8.58333 12.7917 8 12.75C7.41667 12.7917 7.02083 12.9583 6.8125 13.25L6.28125 13.8125L5.1875 12.7812L5.6875 12.25C5.91667 12 6.22917 11.7708 6.625 11.5625C7 11.375 7.45833 11.2708 8 11.25C8.54167 11.2708 9 11.375 9.375 11.5625C9.77083 11.7708 10.0833 12 10.3125 12.25L10.8125 12.7812L9.71875 13.8125L9.1875 13.25H9.21875ZM6.96875 8.5L6.59375 8.84375L6.375 9.09375C5.60417 9.84375 4.69792 10.3021 3.65625 10.4688L3.59375 10.5L3.09375 10.5625L2.9375 9.59375L3.40625 9.5H3.5C4.33333 9.35417 5.05208 8.97917 5.65625 8.375L5.90625 8.15625L6.25 7.78125L6.96875 8.5ZM9.40625 8.84375L9.03125 8.5L9.75 7.78125L10.0938 8.15625L10.3438 8.375C10.9479 8.97917 11.6667 9.35417 12.5 9.5H12.5938L13.0625 9.59375L12.9062 10.5625L12.4062 10.5L12.3438 10.4688C11.2812 10.3021 10.375 9.84375 9.625 9.09375L9.40625 8.84375Z"/>
</svg>
