<svg viewBox="0 0 16 17" xmlns="http://www.w3.org/2000/svg">
<path d="M1.21875 11.5625C1.42708 11.25 1.64583 10.9583 1.875 10.6875C2.33333 11.9583 3.11458 12.9896 4.21875 13.7812C5.30208 14.5729 6.5625 14.9792 8 15C9.83333 14.9583 11.3646 14.3229 12.5938 13.0938C13.8229 11.8646 14.4583 10.3333 14.5 8.5C14.5 8.08333 14.4583 7.67708 14.375 7.28125C14.75 7.38542 15.125 7.48958 15.5 7.59375L15.9688 7.75C15.9896 8 16 8.25 16 8.5C15.9792 10 15.6146 11.3438 14.9062 12.5312C14.1979 13.7396 13.2396 14.6979 12.0312 15.4062C10.8229 16.1146 9.47917 16.4792 8 16.5C6.41667 16.4792 5 16.0729 3.75 15.2812C2.5 14.4896 1.54167 13.4375 0.875 12.125C0.9375 12 1 11.8958 1.0625 11.8125C1.125 11.7083 1.17708 11.625 1.21875 11.5625ZM5.84375 7.0625C6.26042 7.20833 6.47917 7.52083 6.5 8C6.5 8.29167 6.40625 8.53125 6.21875 8.71875C6.03125 8.90625 5.79167 9 5.5 9C5.22917 9 5 8.90625 4.8125 8.71875C4.625 8.53125 4.52083 8.29167 4.5 8C4.9375 7.66667 5.38542 7.35417 5.84375 7.0625ZM10.5 0.90625C9.08333 1.19792 7.73958 1.625 6.46875 2.1875C6.03125 2.29167 5.61458 2.4375 5.21875 2.625C4.15625 2.72917 3.125 2.875 2.125 3.0625C2.85417 2.27083 3.72917 1.64583 4.75 1.1875C5.75 0.729167 6.83333 0.5 8 0.5C8.875 0.5 9.70833 0.635417 10.5 0.90625ZM10.5 12.875C10.0208 12.3542 9.27083 12.0625 8.25 12C7.875 12 7.53125 12.0521 7.21875 12.1562L6.5 12.375L6.0625 10.9375L6.78125 10.7188C7.21875 10.5729 7.70833 10.5 8.25 10.5C8.97917 10.5208 9.61458 10.6458 10.1562 10.875C10.6979 11.125 11.1458 11.4167 11.5 11.75L12.0625 12.25L11.0625 13.375L10.5 12.875ZM9.5 8C9.52083 7.70833 9.625 7.46875 9.8125 7.28125C10 7.09375 10.2292 7 10.5 7C10.7917 7 11.0312 7.09375 11.2188 7.28125C11.4062 7.46875 11.5 7.70833 11.5 8C11.5 8.29167 11.4062 8.53125 11.2188 8.71875C11.0312 8.90625 10.7917 9 10.5 9C10.2292 9 10 8.90625 9.8125 8.71875C9.625 8.53125 9.52083 8.29167 9.5 8ZM8.40625 2.5C9.59375 2.10417 10.8333 1.82292 12.125 1.65625C12.7708 2.05208 13.3542 2.52083 13.875 3.0625C12.1042 2.70833 10.2812 2.52083 8.40625 2.5ZM11.6875 3.71875C12.75 3.86458 13.7917 4.0625 14.8125 4.3125C15.25 5.02083 15.5729 5.79167 15.7812 6.625C13.3021 5.875 10.7083 5.5 8 5.5C7.45833 5.5 6.92708 5.52083 6.40625 5.5625C4.90625 5.64583 3.44792 5.84375 2.03125 6.15625C1.42708 6.30208 0.822917 6.46875 0.21875 6.65625C0.427083 5.80208 0.75 5.02083 1.1875 4.3125C2.70833 3.9375 4.26042 3.69792 5.84375 3.59375C6.55208 3.53125 7.27083 3.5 8 3.5C9.25 3.5 10.4792 3.57292 11.6875 3.71875ZM0.5625 7.5625C1.85417 7.1875 3.17708 6.90625 4.53125 6.71875C2.90625 7.90625 1.53125 9.33333 0.40625 11C0.135417 10.2083 0 9.375 0 8.5C0 8.39583 0 8.30208 0 8.21875C0.1875 7.98958 0.375 7.77083 0.5625 7.5625Z"/>
</svg>
