<svg viewBox="0 0 16 17" xmlns="http://www.w3.org/2000/svg">
<path d="M14.5 8.5C14.5 7.3125 14.2083 6.22917 13.625 5.25C13.0625 4.27083 12.2708 3.47917 11.25 2.875C10.2292 2.29167 9.14583 2 8 2C6.85417 2 5.77083 2.29167 4.75 2.875C3.72917 3.47917 2.9375 4.27083 2.375 5.25C1.79167 6.22917 1.5 7.3125 1.5 8.5C1.5 9.6875 1.79167 10.7708 2.375 11.75C2.9375 12.7292 3.72917 13.5208 4.75 14.125C5.77083 14.7083 6.85417 15 8 15C9.14583 15 10.2292 14.7083 11.25 14.125C12.2708 13.5208 13.0625 12.7292 13.625 11.75C14.2083 10.7708 14.5 9.6875 14.5 8.5ZM0 8.5C0.0208333 7.04167 0.375 5.70833 1.0625 4.5C1.77083 3.29167 2.75 2.3125 4 1.5625C5.27083 0.854167 6.60417 0.5 8 0.5C9.39583 0.5 10.7292 0.854167 12 1.5625C13.25 2.3125 14.2292 3.29167 14.9375 4.5C15.625 5.70833 15.9792 7.04167 16 8.5C15.9792 9.95833 15.625 11.2917 14.9375 12.5C14.2292 13.7083 13.25 14.6875 12 15.4375C10.7292 16.1458 9.39583 16.5 8 16.5C6.60417 16.5 5.27083 16.1458 4 15.4375C2.75 14.6875 1.77083 13.7083 1.0625 12.5C0.375 11.2917 0.0208333 9.95833 0 8.5ZM4.28125 4.71875L5 5.4375L5.71875 4.71875L6.25 4.1875L7.3125 5.25L6.78125 5.78125L6.0625 6.5L6.78125 7.21875L7.3125 7.75L6.25 8.8125L5.71875 8.28125L5 7.5625L4.28125 8.28125L3.75 8.8125L2.6875 7.75L3.21875 7.21875L3.9375 6.5L3.21875 5.78125L2.6875 5.25L3.75 4.1875L4.28125 4.71875ZM10.2812 4.71875L11 5.4375L11.7188 4.71875L12.25 4.1875L13.3125 5.25L12.7812 5.78125L12.0625 6.5L12.7812 7.21875L13.3125 7.75L12.25 8.8125L11.7188 8.28125L11 7.5625L10.2812 8.28125L9.75 8.8125L8.6875 7.75L9.21875 7.21875L9.9375 6.5L9.21875 5.78125L8.6875 5.25L9.75 4.1875L10.2812 4.71875ZM8 10C8.70833 10.0208 9.30208 10.2604 9.78125 10.7188C10.2396 11.1979 10.4792 11.7917 10.5 12.5V13H5.5V12.5C5.52083 11.7917 5.76042 11.1979 6.21875 10.7188C6.69792 10.2604 7.29167 10.0208 8 10Z"/>
</svg>
