<svg viewBox="0 0 16 17" xmlns="http://www.w3.org/2000/svg">
<path d="M8 15C9.83333 14.9583 11.3646 14.3229 12.5938 13.0938C13.8229 11.8646 14.4583 10.3333 14.5 8.5C14.5 7.8125 14.3958 7.16667 14.1875 6.5625L13.5 9H9.5L8.78125 6.5H7.21875L6.5 9H2.5L1.8125 6.5625C1.60417 7.16667 1.5 7.8125 1.5 8.5C1.54167 10.3333 2.17708 11.8646 3.40625 13.0938C4.63542 14.3229 6.16667 14.9583 8 15ZM7.5 5H8.5V4.5H13.125C12.5208 3.72917 11.7812 3.125 10.9062 2.6875C10.0104 2.22917 9.04167 2 8 2C6.95833 2 5.98958 2.22917 5.09375 2.6875C4.21875 3.125 3.47917 3.72917 2.875 4.5H7.5V5ZM8 16.5C6.54167 16.4792 5.20833 16.125 4 15.4375C2.79167 14.7292 1.8125 13.75 1.0625 12.5C0.354167 11.2292 0 9.89583 0 8.5C0 7.10417 0.354167 5.77083 1.0625 4.5C1.8125 3.25 2.79167 2.27083 4 1.5625C5.20833 0.875 6.54167 0.520833 8 0.5C9.45833 0.520833 10.7917 0.875 12 1.5625C13.2083 2.27083 14.1875 3.25 14.9375 4.5C15.6458 5.77083 16 7.10417 16 8.5C16 9.89583 15.6458 11.2292 14.9375 12.5C14.1875 13.75 13.2083 14.7292 12 15.4375C10.7917 16.125 9.45833 16.4792 8 16.5ZM8 13.5C7.02083 13.4792 6.16667 13.25 5.4375 12.8125C4.70833 12.375 4.1875 11.9062 3.875 11.4062L5.125 10.5938C5.3125 10.8854 5.66667 11.1875 6.1875 11.5C6.6875 11.8125 7.29167 11.9792 8 12C8.70833 11.9792 9.3125 11.8125 9.8125 11.5C10.3333 11.1875 10.6875 10.8854 10.875 10.5938L12.125 11.4062C11.7917 11.9062 11.2708 12.375 10.5625 12.8125C9.83333 13.25 8.97917 13.4792 8 13.5Z"/>
</svg>
