<svg viewBox="0 0 16 17" xmlns="http://www.w3.org/2000/svg">
<path d="M14.5 8.5C14.5 7.3125 14.2083 6.22917 13.625 5.25C13.0625 4.27083 12.2708 3.47917 11.25 2.875C10.2292 2.29167 9.14583 2 8 2C6.85417 2 5.77083 2.29167 4.75 2.875C3.72917 3.47917 2.9375 4.27083 2.375 5.25C1.79167 6.22917 1.5 7.3125 1.5 8.5C1.5 9.6875 1.79167 10.7708 2.375 11.75C2.9375 12.7292 3.72917 13.5208 4.75 14.125C5.77083 14.7083 6.85417 15 8 15C9.14583 15 10.2292 14.7083 11.25 14.125C12.2708 13.5208 13.0625 12.7292 13.625 11.75C14.2083 10.7708 14.5 9.6875 14.5 8.5ZM0 8.5C0.0208333 7.04167 0.375 5.70833 1.0625 4.5C1.77083 3.29167 2.75 2.3125 4 1.5625C5.27083 0.854167 6.60417 0.5 8 0.5C9.39583 0.5 10.7292 0.854167 12 1.5625C13.25 2.3125 14.2292 3.29167 14.9375 4.5C15.625 5.70833 15.9792 7.04167 16 8.5C15.9792 9.95833 15.625 11.2917 14.9375 12.5C14.2292 13.7083 13.25 14.6875 12 15.4375C10.7292 16.1458 9.39583 16.5 8 16.5C6.60417 16.5 5.27083 16.1458 4 15.4375C2.75 14.6875 1.77083 13.7083 1.0625 12.5C0.375 11.2917 0.0208333 9.95833 0 8.5ZM8 12C6.66667 12.0208 5.5 12.3646 4.5 13.0312V13C4.52083 12 4.86458 11.1771 5.53125 10.5312C6.17708 9.86458 7 9.52083 8 9.5C9 9.52083 9.82292 9.86458 10.4688 10.5312C11.1354 11.1771 11.4792 12 11.5 13V13.0312C10.5 12.3646 9.33333 12.0208 8 12ZM6.96875 6L6.59375 6.34375L6.375 6.59375C5.60417 7.34375 4.69792 7.80208 3.65625 7.96875L3.59375 8L3.09375 8.0625L2.9375 7.09375L3.40625 7H3.5C4.33333 6.85417 5.05208 6.47917 5.65625 5.875L5.90625 5.65625L6.25 5.28125L6.96875 6ZM9.40625 6.34375L9.03125 6L9.75 5.28125L10.0938 5.65625L10.3438 5.875C10.9479 6.47917 11.6667 6.85417 12.5 7H12.5938L13.0625 7.09375L12.9062 8.0625L12.4062 8L12.3438 7.96875C11.2812 7.80208 10.375 7.34375 9.625 6.59375L9.40625 6.34375Z"/>
</svg>
