<svg viewBox="0 0 16 17" xmlns="http://www.w3.org/2000/svg">
<path d="M14.5 8.5C14.4583 6.66667 13.8229 5.13542 12.5938 3.90625C11.3646 2.67708 9.83333 2.04167 8 2C6.16667 2.04167 4.63542 2.67708 3.40625 3.90625C2.17708 5.13542 1.54167 6.66667 1.5 8.5C1.54167 10.3333 2.17708 11.8646 3.40625 13.0938C4.63542 14.3229 6.16667 14.9583 8 15C8.91667 15 9.78125 14.8229 10.5938 14.4688C10.7188 14.4896 10.8542 14.5 11 14.5C11.6875 14.4792 12.2708 14.2396 12.75 13.7812C13.2292 13.3229 13.4792 12.7396 13.5 12.0312C13.5 12.0104 13.5 12 13.5 12C13.5 11.9792 13.5 11.9688 13.5 11.9688C14.1458 10.9479 14.4792 9.79167 14.5 8.5ZM8.75 13.25H8C7.08333 13.2292 6.3125 13.0417 5.6875 12.6875C5.04167 12.3333 4.54167 11.9375 4.1875 11.5L3.6875 10.9375L4.84375 9.9375L5.3125 10.5C5.58333 10.8333 5.9375 11.1146 6.375 11.3438C6.83333 11.5938 7.375 11.7292 8 11.75H8.53125C8.51042 11.8333 8.5 11.9271 8.5 12.0312C8.5 12.4271 8.58333 12.7917 8.75 13.125V13.25ZM0 8.5C0.0208333 7.04167 0.375 5.70833 1.0625 4.5C1.77083 3.29167 2.75 2.3125 4 1.5625C5.27083 0.854167 6.60417 0.5 8 0.5C9.39583 0.5 10.7292 0.854167 12 1.5625C13.25 2.3125 14.2292 3.29167 14.9375 4.5C15.625 5.70833 15.9792 7.04167 16 8.5C15.9792 9.95833 15.625 11.2917 14.9375 12.5C14.2292 13.7083 13.25 14.6875 12 15.4375C10.7292 16.1458 9.39583 16.5 8 16.5C6.60417 16.5 5.27083 16.1458 4 15.4375C2.75 14.6875 1.77083 13.7083 1.0625 12.5C0.375 11.2917 0.0208333 9.95833 0 8.5ZM11 9.5L12.1875 11.0938C12.3958 11.3646 12.5 11.6667 12.5 12C12.4792 12.4167 12.3333 12.7708 12.0625 13.0625C11.7708 13.3333 11.4167 13.4792 11 13.5C10.5833 13.4792 10.2292 13.3333 9.9375 13.0625C9.66667 12.7708 9.52083 12.4167 9.5 12C9.5 11.6667 9.60417 11.3646 9.8125 11.0938L11 9.5ZM4.5 7C4.52083 6.70833 4.625 6.46875 4.8125 6.28125C5 6.09375 5.22917 6 5.5 6C5.79167 6 6.03125 6.09375 6.21875 6.28125C6.40625 6.46875 6.5 6.70833 6.5 7C6.5 7.29167 6.40625 7.53125 6.21875 7.71875C6.03125 7.90625 5.79167 8 5.5 8C5.22917 8 5 7.90625 4.8125 7.71875C4.625 7.53125 4.52083 7.29167 4.5 7ZM10.5 6C10.7917 6 11.0312 6.09375 11.2188 6.28125C11.4062 6.46875 11.5 6.70833 11.5 7C11.5 7.29167 11.4062 7.53125 11.2188 7.71875C11.0312 7.90625 10.7917 8 10.5 8C10.2292 8 10 7.90625 9.8125 7.71875C9.625 7.53125 9.52083 7.29167 9.5 7C9.52083 6.70833 9.625 6.46875 9.8125 6.28125C10 6.09375 10.2292 6 10.5 6Z"/>
</svg>
