<svg viewBox="0 0 17 17" xmlns="http://www.w3.org/2000/svg">
<path d="M8 2C6.16667 2.04167 4.63542 2.67708 3.40625 3.90625C2.17708 5.13542 1.54167 6.66667 1.5 8.5C1.54167 10.3333 2.17708 11.8646 3.40625 13.0938C4.63542 14.3229 6.16667 14.9583 8 15C9.04167 15 10 14.7812 10.875 14.3438C11.75 13.9062 12.4896 13.3125 13.0938 12.5625C13.1354 12.5208 13.1771 12.4792 13.2188 12.4375L15.875 9.90625C15.5 11.8229 14.5938 13.3958 13.1562 14.625C11.7188 15.8333 10 16.4583 8 16.5C6.5 16.4792 5.15625 16.1146 3.96875 15.4062C2.76042 14.6979 1.80208 13.7396 1.09375 12.5312C0.385417 11.3438 0.0208333 10 0 8.5C0.0208333 7 0.385417 5.65625 1.09375 4.46875C1.80208 3.26042 2.76042 2.30208 3.96875 1.59375C5.15625 0.885417 6.5 0.520833 8 0.5C9.54167 0.520833 10.9271 0.90625 12.1562 1.65625C13.3646 2.40625 14.3229 3.41667 15.0312 4.6875C14.4896 4.66667 14 4.8125 13.5625 5.125C12.9583 4.16667 12.1771 3.40625 11.2188 2.84375C10.2604 2.30208 9.1875 2.02083 8 2ZM16.0938 6.125C16.4062 6.45833 16.5521 6.83333 16.5312 7.25C16.5312 7.66667 16.375 8.04167 16.0625 8.375L12.2812 11.9688C12.3021 11.9688 12.3125 11.9792 12.3125 12C12.3333 12.0208 12.3542 12.0521 12.375 12.0938L11.625 12.5938L11.5938 12.625V12.5938L11.125 12.9062C10.9375 12.6146 10.5833 12.3125 10.0625 12C9.5625 11.6875 8.95833 11.5208 8.25 11.5C7.54167 11.5208 6.9375 11.6875 6.4375 12C5.91667 12.3125 5.5625 12.6146 5.375 12.9062L4.125 12.0938C4.4375 11.5938 4.95833 11.125 5.6875 10.6875C6.41667 10.25 7.27083 10.0208 8.25 10C8.72917 10 9.1875 10.0625 9.625 10.1875L13.9062 6.09375C14.2188 5.80208 14.5833 5.66667 15 5.6875C15.4167 5.6875 15.7812 5.83333 16.0938 6.125ZM11.5938 11.25L12.4062 10.4375L12.25 10.2812L11.9688 10L12.5 9.46875L12.7812 9.75L12.9688 9.9375L13.4375 9.46875L13.25 9.25L12.9688 9L13.5 8.46875L13.7812 8.75L14 8.96875L14.4688 8.5L14.25 8.25L13.9688 8L14.5 7.46875L14.7812 7.75L15 7.96875L15.375 7.625C15.6042 7.375 15.6042 7.11458 15.375 6.84375C15.125 6.61458 14.8646 6.60417 14.5938 6.8125L10.6562 10.5938C11.0104 10.7812 11.3229 11 11.5938 11.25ZM5.5 6C5.79167 6 6.03125 6.09375 6.21875 6.28125C6.40625 6.46875 6.5 6.70833 6.5 7C6.5 7.29167 6.40625 7.53125 6.21875 7.71875C6.03125 7.90625 5.79167 8 5.5 8C5.22917 8 5 7.90625 4.8125 7.71875C4.625 7.53125 4.52083 7.29167 4.5 7C4.52083 6.70833 4.625 6.46875 4.8125 6.28125C5 6.09375 5.22917 6 5.5 6ZM9.5 7C9.52083 6.70833 9.625 6.46875 9.8125 6.28125C10 6.09375 10.2292 6 10.5 6C10.7917 6 11.0312 6.09375 11.2188 6.28125C11.4062 6.46875 11.5 6.70833 11.5 7C11.5 7.29167 11.4062 7.53125 11.2188 7.71875C11.0312 7.90625 10.7917 8 10.5 8C10.2292 8 10 7.90625 9.8125 7.71875C9.625 7.53125 9.52083 7.29167 9.5 7Z"/>
</svg>
