<svg viewBox="0 0 16 17" xmlns="http://www.w3.org/2000/svg">
<path d="M14 11C14.3333 10.2292 14.5 9.39583 14.5 8.5C14.5 7.45833 14.2812 6.51042 13.8438 5.65625C13.4062 4.78125 12.8125 4.04167 12.0625 3.4375L11.875 3.6875L11.4688 3.40625L11.2188 3.25C10.9688 3.08333 10.6979 3 10.4062 3C10.0938 3 9.80208 3.10417 9.53125 3.3125L8.8125 3.90625L8.4375 4.21875L7.8125 3.4375L8.1875 3.125L8.90625 2.53125C9.09375 2.38542 9.29167 2.27083 9.5 2.1875C9.02083 2.0625 8.52083 2 8 2C6.16667 2.04167 4.63542 2.67708 3.40625 3.90625C2.17708 5.13542 1.54167 6.66667 1.5 8.5C1.54167 10.3333 2.17708 11.8646 3.40625 13.0938C4.63542 14.3229 6.16667 14.9583 8 15C9.02083 15 9.95833 14.7917 10.8125 14.375C11.6667 13.9583 12.3958 13.3854 13 12.6562C13 12.6354 13 12.6146 13 12.5938C13 12.5938 13 12.5833 13 12.5625V9.9375C12.3333 10.625 11.5 10.9792 10.5 11C9.5 10.9792 8.67708 10.6354 8.03125 9.96875C7.36458 9.32292 7.02083 8.5 7 7.5C7.02083 6.5 7.36458 5.67708 8.03125 5.03125C8.67708 4.36458 9.5 4.02083 10.5 4C11.5 4.02083 12.3229 4.36458 12.9688 5.03125C13.6354 5.67708 13.9792 6.5 14 7.5V11ZM14.1875 13.5938C14.4167 14.2188 14.8229 14.7188 15.4062 15.0938L15.7812 15.3438L15.25 16.1875L14.875 15.9688C14.25 15.5521 13.7708 15.0208 13.4375 14.375C12.7083 15.0417 11.8854 15.5625 10.9688 15.9375C10.0521 16.3125 9.0625 16.5 8 16.5C6.5 16.4792 5.15625 16.1146 3.96875 15.4062C2.76042 14.6979 1.80208 13.7396 1.09375 12.5312C0.385417 11.3438 0.0208333 10 0 8.5C0.0208333 7 0.385417 5.65625 1.09375 4.46875C1.80208 3.26042 2.76042 2.30208 3.96875 1.59375C5.15625 0.885417 6.5 0.520833 8 0.5C9.5 0.520833 10.8438 0.885417 12.0312 1.59375C13.2396 2.30208 14.1979 3.26042 14.9062 4.46875C15.6146 5.65625 15.9792 7 16 8.5C15.9583 10.4583 15.3542 12.1562 14.1875 13.5938ZM8 7.5C8.02083 8.4375 8.4375 9.15625 9.25 9.65625C10.0833 10.1146 10.9167 10.1146 11.75 9.65625C12.5625 9.15625 12.9792 8.4375 13 7.5C12.9792 6.5625 12.5625 5.84375 11.75 5.34375C10.9167 4.88542 10.0833 4.88542 9.25 5.34375C8.4375 5.84375 8.02083 6.5625 8 7.5ZM5.5 6.5C5.5 6.79167 5.40625 7.03125 5.21875 7.21875C5.03125 7.40625 4.79167 7.5 4.5 7.5C4.22917 7.5 4 7.40625 3.8125 7.21875C3.625 7.03125 3.52083 6.79167 3.5 6.5C3.52083 6.20833 3.625 5.96875 3.8125 5.78125C4 5.59375 4.22917 5.5 4.5 5.5C4.79167 5.5 5.03125 5.59375 5.21875 5.78125C5.40625 5.96875 5.5 6.20833 5.5 6.5ZM10 8.5C9.72917 8.5 9.5 8.40625 9.3125 8.21875C9.125 8.03125 9.02083 7.79167 9 7.5C9.02083 7.20833 9.125 6.96875 9.3125 6.78125C9.5 6.59375 9.72917 6.5 10 6.5C10.2917 6.5 10.5312 6.59375 10.7188 6.78125C10.9062 6.96875 11 7.20833 11 7.5C11 7.79167 10.9062 8.03125 10.7188 8.21875C10.5312 8.40625 10.2917 8.5 10 8.5ZM4.5 11H5C5.60417 10.9792 6.35417 11.125 7.25 11.4375C7.6875 11.5833 8.10417 11.8125 8.5 12.125C8.875 12.4167 9.1875 12.8021 9.4375 13.2812L9.6875 13.7188L8.78125 14.1562L8.5625 13.7188C8.1875 13.0729 7.63542 12.625 6.90625 12.375C6.13542 12.1042 5.5 11.9792 5 12H4.5V11Z"/>
</svg>
