<svg viewBox="0 0 18 17" xmlns="http://www.w3.org/2000/svg">
<path d="M15.375 9.84375C15.4583 9.40625 15.5 8.95833 15.5 8.5C15.4583 6.66667 14.8229 5.13542 13.5938 3.90625C12.3646 2.67708 10.8333 2.04167 9 2C7.16667 2.04167 5.63542 2.67708 4.40625 3.90625C3.17708 5.13542 2.54167 6.66667 2.5 8.5C2.5 8.95833 2.55208 9.40625 2.65625 9.84375L2.21875 9.5L1.5625 10.0625L1.21875 10.375C1.07292 9.77083 1 9.14583 1 8.5C1.02083 7 1.38542 5.65625 2.09375 4.46875C2.80208 3.26042 3.76042 2.30208 4.96875 1.59375C6.15625 0.885417 7.5 0.520833 9 0.5C10.5 0.520833 11.8438 0.885417 13.0312 1.59375C14.2396 2.30208 15.1979 3.26042 15.9062 4.46875C16.6146 5.65625 16.9792 7 17 8.5C17 9.14583 16.9271 9.77083 16.7812 10.375L16.4375 10.0625L15.7812 9.5L15.3438 9.84375H15.375ZM12.5312 13.9688C12.3229 14.5938 12.1667 15.2396 12.0625 15.9062C11.125 16.3021 10.1042 16.5 9 16.5C7.91667 16.5 6.89583 16.3021 5.9375 15.9062C5.83333 15.2396 5.67708 14.5938 5.46875 13.9688C6.51042 14.6354 7.6875 14.9792 9 15C10.3125 14.9792 11.4896 14.6354 12.5312 13.9688ZM4.71875 9.34375C4.30208 9.09375 4.0625 8.6875 4 8.125C3.95833 7.58333 4.11458 7.01042 4.46875 6.40625C4.82292 5.82292 5.27083 5.41667 5.8125 5.1875C6.33333 4.9375 6.82292 4.92708 7.28125 5.15625C7.69792 5.40625 7.9375 5.8125 8 6.375C8.04167 6.91667 7.88542 7.48958 7.53125 8.09375C7.17708 8.67708 6.72917 9.08333 6.1875 9.3125C5.66667 9.54167 5.17708 9.55208 4.71875 9.34375ZM13.2812 9.34375C12.8229 9.55208 12.3333 9.54167 11.8125 9.3125C11.2708 9.08333 10.8229 8.67708 10.4688 8.09375C10.1146 7.48958 9.95833 6.91667 10 6.375C10.0625 5.8125 10.3021 5.40625 10.7188 5.15625C11.1771 4.92708 11.6667 4.9375 12.1875 5.1875C12.7292 5.41667 13.1771 5.82292 13.5312 6.40625C13.8854 7.01042 14.0417 7.58333 14 8.125C13.9375 8.6875 13.6979 9.09375 13.2812 9.34375ZM9 10C9.41667 10.0208 9.77083 10.1667 10.0625 10.4375C10.3333 10.7292 10.4792 11.0833 10.5 11.5V12.5C10.4792 12.9167 10.3333 13.2708 10.0625 13.5625C9.77083 13.8333 9.41667 13.9792 9 14C8.58333 13.9792 8.22917 13.8333 7.9375 13.5625C7.66667 13.2708 7.52083 12.9167 7.5 12.5V11.5C7.52083 11.0833 7.66667 10.7292 7.9375 10.4375C8.22917 10.1667 8.58333 10.0208 9 10ZM5 16.5H1.5625C1.5625 15.7292 1.44792 15.0312 1.21875 14.4062C0.96875 13.8021 0.635417 13.1875 0.21875 12.5625L2.21875 10.8125C3.07292 11.5417 3.71875 12.3958 4.15625 13.375C4.61458 14.375 4.89583 15.4167 5 16.5ZM16.4375 16.5H13C13.1042 15.4167 13.3854 14.375 13.8438 13.375C14.2812 12.3958 14.9271 11.5417 15.7812 10.8125L17.7812 12.5625C17.3646 13.1875 17.0312 13.8021 16.7812 14.4062C16.5521 15.0312 16.4375 15.7292 16.4375 16.5Z"/>
</svg>
