<svg xmlns="http://www.w3.org/2000/svg" width="1em" height="1em" viewBox="0 0 512 512"><path fill="black" d="M464 256a208 208 0 1 0-416 0a208 208 0 1 0 416 0M0 256a256 256 0 1 1 512 0a256 256 0 1 1-512 0m174.6 128.1c-4.5 12.5-18.2 18.9-30.7 14.4s-18.9-18.2-14.4-30.7C146.9 319.4 198.9 288 256 288s109.1 31.4 126.6 79.9c4.5 12.5-2 26.2-14.4 30.7s-26.2-2-30.7-14.4c-9.3-25.7-40.3-48.2-81.5-48.2s-72.2 22.5-81.4 48.1M144.4 208a32 32 0 1 1 64 0a32 32 0 1 1-64 0m192-32a32 32 0 1 1 0 64a32 32 0 1 1 0-64"/></svg>
