<svg viewBox="0 0 20 17" xmlns="http://www.w3.org/2000/svg">
<path d="M16.5 8.5C16.4583 6.66667 15.8229 5.13542 14.5938 3.90625C13.3646 2.67708 11.8333 2.04167 10 2C8.16667 2.04167 6.63542 2.67708 5.40625 3.90625C4.17708 5.13542 3.54167 6.66667 3.5 8.5C3.5 9.5625 3.72917 10.5312 4.1875 11.4062C4.4375 11.9479 4.55208 12.4896 4.53125 13.0312C4.51042 13.5938 4.39583 14.1042 4.1875 14.5625C4.125 14.7083 4.04167 14.8542 3.9375 15H10H15.125C15.0417 14.7708 15 14.5208 15 14.25C15 13.7292 15.1562 13.2812 15.4688 12.9062C15.7604 12.5104 16.1354 12.2396 16.5938 12.0938C16.2604 11.4271 16.1667 10.7396 16.3125 10.0312C16.4375 9.55208 16.5 9.04167 16.5 8.5ZM16.5 14.25C16.5417 14.7083 16.7917 14.9583 17.25 15H19V16.5H17.25H10H1.46875H0.75H0V15.75V15H0.75H1.46875C2.09375 14.9375 2.54167 14.5833 2.8125 13.9375C3.08333 13.2917 3.09375 12.6667 2.84375 12.0625C2.30208 10.9792 2.02083 9.79167 2 8.5C2.02083 7 2.38542 5.65625 3.09375 4.46875C3.80208 3.26042 4.76042 2.30208 5.96875 1.59375C7.15625 0.885417 8.5 0.520833 10 0.5C11.5 0.520833 12.8438 0.885417 14.0312 1.59375C15.2396 2.30208 16.1979 3.26042 16.9062 4.46875C17.6146 5.65625 17.9792 7 18 8.5C18 9.14583 17.9271 9.77083 17.7812 10.375C17.6979 10.7917 17.7604 11.1562 17.9688 11.4688C18.1979 11.8021 18.5104 11.9792 18.9062 12H19.25H20V12.75V13.5H19.25H18.9375H17.25C16.7917 13.5417 16.5417 13.7917 16.5 14.25ZM8.25 5.4375C8.60417 5.54167 8.84375 5.78125 8.96875 6.15625C9.05208 6.53125 8.96875 6.85417 8.71875 7.125C8.42708 7.375 8.09375 7.45833 7.71875 7.375C7.36458 7.27083 7.125 7.03125 7 6.65625C6.91667 6.28125 7 5.95833 7.25 5.6875C7.54167 5.4375 7.875 5.35417 8.25 5.4375ZM11.8438 7.4375C11.9479 7.0625 12.1875 6.82292 12.5625 6.71875C12.9375 6.63542 13.2604 6.71875 13.5312 6.96875C13.7812 7.26042 13.8646 7.59375 13.7812 7.96875C13.6771 8.32292 13.4375 8.5625 13.0625 8.6875C12.7083 8.77083 12.3854 8.67708 12.0938 8.40625C11.8438 8.13542 11.7604 7.8125 11.8438 7.4375ZM5.53125 9.90625L6.90625 9.25C7.07292 9.625 7.33333 9.98958 7.6875 10.3438C8.0625 10.6979 8.55208 10.9583 9.15625 11.125C9.78125 11.2917 10.3333 11.3125 10.8125 11.1875C11.3125 11.0625 11.7292 10.875 12.0625 10.625L12.9062 11.875C12.4479 12.2083 11.8646 12.4688 11.1562 12.6562C10.4479 12.8229 9.65625 12.8021 8.78125 12.5938C7.90625 12.3438 7.20833 11.9583 6.6875 11.4375C6.16667 10.9375 5.78125 10.4271 5.53125 9.90625Z"/>
</svg>
