<svg viewBox="0 0 16 17" xmlns="http://www.w3.org/2000/svg">
<path d="M14.5 8.5C14.5 7.3125 14.2083 6.22917 13.625 5.25C13.0625 4.27083 12.2708 3.47917 11.25 2.875C10.2292 2.29167 9.14583 2 8 2C6.85417 2 5.77083 2.29167 4.75 2.875C3.72917 3.47917 2.9375 4.27083 2.375 5.25C1.79167 6.22917 1.5 7.3125 1.5 8.5C1.5 9.6875 1.79167 10.7708 2.375 11.75C2.9375 12.7292 3.72917 13.5208 4.75 14.125C5.77083 14.7083 6.85417 15 8 15C9.14583 15 10.2292 14.7083 11.25 14.125C12.2708 13.5208 13.0625 12.7292 13.625 11.75C14.2083 10.7708 14.5 9.6875 14.5 8.5ZM8 0.5C9.45833 0.520833 10.7917 0.875 12 1.5625C13.2083 2.27083 14.1875 3.25 14.9375 4.5C15.6458 5.77083 16 7.10417 16 8.5C16 9.89583 15.6458 11.2292 14.9375 12.5C14.1875 13.75 13.2083 14.7292 12 15.4375C10.7917 16.125 9.45833 16.4792 8 16.5C6.54167 16.4792 5.20833 16.125 4 15.4375C2.79167 14.7292 1.8125 13.75 1.0625 12.5C0.354167 11.2292 0 9.89583 0 8.5C0 7.10417 0.354167 5.77083 1.0625 4.5C1.8125 3.25 2.79167 2.27083 4 1.5625C5.20833 0.875 6.54167 0.520833 8 0.5ZM5 8.25C4.54167 8.20833 4.29167 7.95833 4.25 7.5C4.29167 7.04167 4.54167 6.79167 5 6.75C5.45833 6.79167 5.70833 7.04167 5.75 7.5C5.70833 7.95833 5.45833 8.20833 5 8.25ZM11.75 7.5C11.7083 7.95833 11.4583 8.20833 11 8.25C10.5417 8.20833 10.2917 7.95833 10.25 7.5C10.2917 7.04167 10.5417 6.79167 11 6.75C11.4583 6.79167 11.7083 7.04167 11.75 7.5ZM6 11H10H10.75V12.5H10H6H5.25V11H6ZM5 6C4.4375 6.02083 4 6.27083 3.6875 6.75C3.4375 7.25 3.4375 7.75 3.6875 8.25C4 8.72917 4.4375 8.97917 5 9C5.5625 8.97917 6 8.72917 6.3125 8.25C6.5625 7.75 6.5625 7.25 6.3125 6.75C6 6.27083 5.5625 6.02083 5 6ZM5 10C4.0625 9.97917 3.34375 9.5625 2.84375 8.75C2.38542 7.91667 2.38542 7.08333 2.84375 6.25C3.34375 5.4375 4.0625 5.02083 5 5C5.9375 5.02083 6.65625 5.4375 7.15625 6.25C7.61458 7.08333 7.61458 7.91667 7.15625 8.75C6.65625 9.5625 5.9375 9.97917 5 10ZM9.5 7.5C9.52083 8.0625 9.77083 8.5 10.25 8.8125C10.75 9.0625 11.25 9.0625 11.75 8.8125C12.2292 8.5 12.4792 8.0625 12.5 7.5C12.4792 6.9375 12.2292 6.5 11.75 6.1875C11.25 5.9375 10.75 5.9375 10.25 6.1875C9.77083 6.5 9.52083 6.9375 9.5 7.5ZM13.5 7.5C13.4792 8.4375 13.0625 9.15625 12.25 9.65625C11.4167 10.1146 10.5833 10.1146 9.75 9.65625C8.9375 9.15625 8.52083 8.4375 8.5 7.5C8.52083 6.5625 8.9375 5.84375 9.75 5.34375C10.5833 4.88542 11.4167 4.88542 12.25 5.34375C13.0625 5.84375 13.4792 6.5625 13.5 7.5Z"/>
</svg>
