<svg viewBox="0 0 18 17" xmlns="http://www.w3.org/2000/svg">
<path d="M4 12.6562V9.25L2.5 8.625C2.5625 10.1875 3.0625 11.5312 4 12.6562ZM1.125 7.03125C1.52083 5.13542 2.4375 3.58333 3.875 2.375C5.29167 1.16667 7 0.541667 9 0.5C11 0.541667 12.7083 1.16667 14.125 2.375C15.5625 3.58333 16.4792 5.13542 16.875 7.03125L17.2812 6.84375L17.6562 7.78125L17.1875 7.96875L17 8.03125C17 8.19792 17 8.35417 17 8.5C16.9792 9.97917 16.6146 11.3229 15.9062 12.5312C15.1979 13.7396 14.2396 14.6979 13.0312 15.4062C11.8438 16.1146 10.5 16.4792 9 16.5C7.52083 16.4792 6.17708 16.1146 4.96875 15.4062C3.76042 14.6979 2.80208 13.7396 2.09375 12.5312C1.38542 11.3229 1.02083 9.97917 1 8.5C1 8.35417 1.01042 8.19792 1.03125 8.03125L0.8125 7.96875L0.34375 7.78125L0.71875 6.84375L1.125 7.03125ZM2.5625 7.59375L4.21875 8.25H4.75H13.25H13.7812L15.4375 7.59375C15.1875 5.96875 14.4688 4.63542 13.2812 3.59375C12.0938 2.57292 10.6667 2.04167 9 2C7.33333 2.04167 5.90625 2.57292 4.71875 3.59375C3.53125 4.63542 2.8125 5.96875 2.5625 7.59375ZM15.5 8.65625V8.625L14 9.25V12.6562C14.9375 11.5312 15.4375 10.1979 15.5 8.65625ZM5.3125 6.96875H5.34375L4.84375 7.5625L3.6875 6.59375L4.1875 6.03125C4.39583 5.76042 4.76042 5.47917 5.28125 5.1875C5.80208 4.91667 6.45833 4.77083 7.25 4.75H8V6.25H7.25C6.70833 6.27083 6.27083 6.375 5.9375 6.5625C5.60417 6.72917 5.39583 6.86458 5.3125 6.96875ZM12.5 11.5H5.5V12.5H12.5V11.5ZM12.5 9.75H5.5V10.5H12.5V9.75ZM6.34375 14.25H9H11.6562L12.2812 13.5H5.71875L6.34375 14.25ZM10.75 6.25H10V4.75H10.75C11.5208 4.77083 12.1667 4.89583 12.6875 5.125C13.2083 5.35417 13.5729 5.58333 13.7812 5.8125L14.3125 6.34375L13.25 7.40625L12.7188 6.875C12.6562 6.79167 12.4583 6.66667 12.125 6.5C11.7708 6.35417 11.3125 6.27083 10.75 6.25Z"/>
</svg>
