<svg viewBox="0 0 16 17" xmlns="http://www.w3.org/2000/svg">
<path d="M5.5 14.5C6.27083 14.8333 7.10417 15 8 15C9.83333 14.9583 11.3646 14.3229 12.5938 13.0938C13.8229 11.8646 14.4583 10.3333 14.5 8.5C14.4583 6.66667 13.8229 5.13542 12.5938 3.90625C11.3646 2.67708 9.83333 2.04167 8 2C6.16667 2.04167 4.63542 2.67708 3.40625 3.90625C2.17708 5.13542 1.54167 6.66667 1.5 8.5C1.54167 10.1875 2.08333 11.6146 3.125 12.7812C3.29167 13.3021 3.59375 13.7188 4.03125 14.0312C4.44792 14.3438 4.9375 14.5 5.5 14.5ZM0 8.5C0.0208333 7.04167 0.375 5.70833 1.0625 4.5C1.77083 3.29167 2.75 2.3125 4 1.5625C5.27083 0.854167 6.60417 0.5 8 0.5C9.39583 0.5 10.7292 0.854167 12 1.5625C13.25 2.3125 14.2292 3.29167 14.9375 4.5C15.625 5.70833 15.9792 7.04167 16 8.5C15.9792 9.95833 15.625 11.2917 14.9375 12.5C14.2292 13.7083 13.25 14.6875 12 15.4375C10.7292 16.1458 9.39583 16.5 8 16.5C6.60417 16.5 5.27083 16.1458 4 15.4375C2.75 14.6875 1.77083 13.7083 1.0625 12.5C0.375 11.2917 0.0208333 9.95833 0 8.5ZM4.3125 11.0938L5.5 9.5L6.6875 11.0938C6.89583 11.3646 7 11.6667 7 12C6.97917 12.4167 6.83333 12.7708 6.5625 13.0625C6.27083 13.3333 5.91667 13.4792 5.5 13.5C5.08333 13.4792 4.72917 13.3333 4.4375 13.0625C4.16667 12.7708 4.02083 12.4167 4 12C4 11.6667 4.10417 11.3646 4.3125 11.0938ZM8 11.5V10C9.375 10.0208 10.5417 10.4688 11.5 11.3438L12.0625 11.8438L11.0625 12.9688L10.5 12.4688C9.8125 11.8438 8.97917 11.5208 8 11.5ZM9.5 7C9.5 6.70833 9.59375 6.46875 9.78125 6.28125C9.96875 6.09375 10.2083 6 10.5 6C10.7708 6 11 6.09375 11.1875 6.28125C11.375 6.46875 11.4792 6.70833 11.5 7C11.4792 7.29167 11.375 7.53125 11.1875 7.71875C11 7.90625 10.7708 8 10.5 8C10.2083 8 9.96875 7.90625 9.78125 7.71875C9.59375 7.53125 9.5 7.29167 9.5 7ZM5.5 8C5.20833 8 4.96875 7.90625 4.78125 7.71875C4.59375 7.53125 4.5 7.29167 4.5 7C4.5 6.70833 4.59375 6.46875 4.78125 6.28125C4.96875 6.09375 5.20833 6 5.5 6C5.77083 6 6 6.09375 6.1875 6.28125C6.375 6.46875 6.47917 6.70833 6.5 7C6.47917 7.29167 6.375 7.53125 6.1875 7.71875C6 7.90625 5.77083 8 5.5 8Z"/>
</svg>
