<svg viewBox="0 0 16 17" xmlns="http://www.w3.org/2000/svg">
<path d="M14.5 8.5C14.5 7.3125 14.2083 6.22917 13.625 5.25C13.0625 4.27083 12.2708 3.47917 11.25 2.875C10.2292 2.29167 9.14583 2 8 2C6.85417 2 5.77083 2.29167 4.75 2.875C3.72917 3.47917 2.9375 4.27083 2.375 5.25C1.79167 6.22917 1.5 7.3125 1.5 8.5C1.5 9.6875 1.79167 10.7708 2.375 11.75C2.9375 12.7292 3.72917 13.5208 4.75 14.125C5.77083 14.7083 6.85417 15 8 15C9.14583 15 10.2292 14.7083 11.25 14.125C12.2708 13.5208 13.0625 12.7292 13.625 11.75C14.2083 10.7708 14.5 9.6875 14.5 8.5ZM0 8.5C0.0208333 7.04167 0.375 5.70833 1.0625 4.5C1.77083 3.29167 2.75 2.3125 4 1.5625C5.27083 0.854167 6.60417 0.5 8 0.5C9.39583 0.5 10.7292 0.854167 12 1.5625C13.25 2.3125 14.2292 3.29167 14.9375 4.5C15.625 5.70833 15.9792 7.04167 16 8.5C15.9792 9.95833 15.625 11.2917 14.9375 12.5C14.2292 13.7083 13.25 14.6875 12 15.4375C10.7292 16.1458 9.39583 16.5 8 16.5C6.60417 16.5 5.27083 16.1458 4 15.4375C2.75 14.6875 1.77083 13.7083 1.0625 12.5C0.375 11.2917 0.0208333 9.95833 0 8.5ZM9.21875 12.75C8.98958 12.4583 8.58333 12.2917 8 12.25C7.41667 12.2917 7.02083 12.4583 6.8125 12.75L6.28125 13.3125L5.1875 12.2812L5.6875 11.75C5.91667 11.5 6.22917 11.2708 6.625 11.0625C7 10.875 7.45833 10.7708 8 10.75C8.54167 10.7708 9 10.875 9.375 11.0625C9.77083 11.2708 10.0833 11.5 10.3125 11.75L10.8125 12.2812L9.71875 13.3125L9.1875 12.75H9.21875ZM6.5 7.5C6.5 7.79167 6.40625 8.03125 6.21875 8.21875C6.03125 8.40625 5.79167 8.5 5.5 8.5C5.20833 8.5 4.96875 8.40625 4.78125 8.21875C4.59375 8.03125 4.5 7.79167 4.5 7.5H3.5H3V6.5H3.5H5.5C5.79167 6.5 6.03125 6.59375 6.21875 6.78125C6.40625 6.96875 6.5 7.20833 6.5 7.5ZM12.5 7.5C12.5 7.79167 12.4062 8.03125 12.2188 8.21875C12.0312 8.40625 11.7917 8.5 11.5 8.5C11.2083 8.5 10.9688 8.40625 10.7812 8.21875C10.5938 8.03125 10.5 7.79167 10.5 7.5H9.5H9V6.5H9.5H11.5C11.7917 6.5 12.0312 6.59375 12.2188 6.78125C12.4062 6.96875 12.5 7.20833 12.5 7.5Z"/>
</svg>
