<svg viewBox="0 0 16 17" xmlns="http://www.w3.org/2000/svg">
<path d="M8 15C9.5 14.9792 10.8021 14.5417 11.9062 13.6875C11.9896 14.1667 12.0208 14.6042 12 15C12 15.1458 12.0104 15.2812 12.0312 15.4062C10.8229 16.1146 9.47917 16.4792 8 16.5C6.5 16.4792 5.15625 16.1146 3.96875 15.4062C2.76042 14.6979 1.80208 13.7396 1.09375 12.5312C0.385417 11.3438 0.0208333 10 0 8.5C0.0208333 7 0.385417 5.65625 1.09375 4.46875C1.80208 3.26042 2.76042 2.30208 3.96875 1.59375C5.15625 0.885417 6.5 0.520833 8 0.5C9.5 0.520833 10.8438 0.885417 12.0312 1.59375C13.2396 2.30208 14.1979 3.26042 14.9062 4.46875C15.6146 5.65625 15.9792 7 16 8.5C16 9.66667 15.7708 10.75 15.3125 11.75C15.0833 11.5625 14.8438 11.3854 14.5938 11.2188C14.4271 11.1146 14.2396 11.0104 14.0312 10.9062C14.3438 10.1562 14.5 9.35417 14.5 8.5C14.4583 6.66667 13.8229 5.13542 12.5938 3.90625C11.3646 2.67708 9.83333 2.04167 8 2C6.16667 2.04167 4.63542 2.67708 3.40625 3.90625C2.17708 5.13542 1.54167 6.66667 1.5 8.5C1.54167 10.3333 2.17708 11.8646 3.40625 13.0938C4.63542 14.3229 6.16667 14.9583 8 15ZM5.5 12.6875C5.75 12.2917 6.09375 11.9688 6.53125 11.7188C6.96875 11.4896 7.45833 11.375 8 11.375C8.54167 11.375 9.03125 11.4896 9.46875 11.7188C9.90625 11.9688 10.25 12.2917 10.5 12.6875C10.6042 12.8542 10.5833 12.9896 10.4375 13.0938C10.3125 13.2188 10.1458 13.25 9.9375 13.1875C9.33333 12.9792 8.6875 12.875 8 12.875C7.3125 12.875 6.66667 12.9792 6.0625 13.1875C5.85417 13.25 5.6875 13.2188 5.5625 13.0938C5.41667 12.9896 5.39583 12.8542 5.5 12.6875ZM10.1875 8.3125C10.375 8.52083 10.6458 8.625 11 8.625C11.3333 8.625 11.5938 8.52083 11.7812 8.3125C12.0729 8.0625 12.3646 8.05208 12.6562 8.28125C12.9271 8.57292 12.9375 8.875 12.6875 9.1875C12.2083 9.64583 11.6458 9.875 11 9.875C10.3542 9.875 9.78125 9.64583 9.28125 9.1875C9.05208 8.875 9.0625 8.57292 9.3125 8.28125C9.60417 8.05208 9.89583 8.0625 10.1875 8.3125ZM5 8.625C5.33333 8.625 5.59375 8.52083 5.78125 8.3125C6.07292 8.0625 6.36458 8.05208 6.65625 8.28125C6.92708 8.57292 6.9375 8.875 6.6875 9.1875C6.20833 9.64583 5.64583 9.875 5 9.875C4.35417 9.875 3.78125 9.64583 3.28125 9.1875C3.05208 8.875 3.0625 8.57292 3.3125 8.28125C3.60417 8.05208 3.89583 8.0625 4.1875 8.3125C4.375 8.52083 4.64583 8.625 5 8.625ZM16 15C15.9792 15.4167 15.8333 15.7708 15.5625 16.0625C15.2708 16.3333 14.9167 16.4792 14.5 16.5C14.0833 16.4792 13.7292 16.3333 13.4375 16.0625C13.1667 15.7708 13.0208 15.4167 13 15C13.0208 14.6458 13 14.1979 12.9375 13.6562C12.8542 13.1354 12.6667 12.625 12.375 12.125L13 11.5C13.7708 11.8125 14.4583 12.2708 15.0625 12.875C15.6458 13.4583 15.9583 14.1667 16 15Z"/>
</svg>
