<svg viewBox="0 0 16 17" xmlns="http://www.w3.org/2000/svg">
<path d="M14.5 8.5C14.5 7.3125 14.2083 6.22917 13.625 5.25C13.0625 4.27083 12.2708 3.47917 11.25 2.875C10.2292 2.29167 9.14583 2 8 2C6.85417 2 5.77083 2.29167 4.75 2.875C3.72917 3.47917 2.9375 4.27083 2.375 5.25C1.79167 6.22917 1.5 7.3125 1.5 8.5C1.5 9.6875 1.79167 10.7708 2.375 11.75C2.9375 12.7292 3.72917 13.5208 4.75 14.125C5.77083 14.7083 6.85417 15 8 15C9.14583 15 10.2292 14.7083 11.25 14.125C12.2708 13.5208 13.0625 12.7292 13.625 11.75C14.2083 10.7708 14.5 9.6875 14.5 8.5ZM0 8.5C0.0208333 7.04167 0.375 5.70833 1.0625 4.5C1.77083 3.29167 2.75 2.3125 4 1.5625C5.27083 0.854167 6.60417 0.5 8 0.5C9.39583 0.5 10.7292 0.854167 12 1.5625C13.25 2.3125 14.2292 3.29167 14.9375 4.5C15.625 5.70833 15.9792 7.04167 16 8.5C15.9792 9.95833 15.625 11.2917 14.9375 12.5C14.2292 13.7083 13.25 14.6875 12 15.4375C10.7292 16.1458 9.39583 16.5 8 16.5C6.60417 16.5 5.27083 16.1458 4 15.4375C2.75 14.6875 1.77083 13.7083 1.0625 12.5C0.375 11.2917 0.0208333 9.95833 0 8.5ZM6.03125 11.2188C6.21875 11.4062 6.47917 11.5833 6.8125 11.75C7.125 11.9167 7.52083 12 8 12C8.47917 12 8.875 11.9167 9.1875 11.75C9.52083 11.5833 9.78125 11.4062 9.96875 11.2188L10.5 10.6875L11.5625 11.75L11.0312 12.2812C10.7396 12.5938 10.3333 12.875 9.8125 13.125C9.3125 13.3542 8.70833 13.4792 8 13.5C7.29167 13.4792 6.6875 13.3542 6.1875 13.125C5.66667 12.875 5.26042 12.5938 4.96875 12.2812L4.4375 11.75L5.5 10.6875L6.03125 11.2188ZM12.25 7.9375L13.25 8.6875C12.625 9.4375 11.875 9.8125 11 9.8125C10.1042 9.8125 9.35417 9.4375 8.75 8.6875L9.75 7.9375C10.0833 8.35417 10.5 8.5625 11 8.5625C11.4792 8.5625 11.8958 8.35417 12.25 7.9375ZM3.75 7.9375C4.08333 8.35417 4.5 8.5625 5 8.5625C5.47917 8.5625 5.89583 8.35417 6.25 7.9375L7.25 8.6875C6.625 9.4375 5.875 9.8125 5 9.8125C4.10417 9.8125 3.35417 9.4375 2.75 8.6875L3.75 7.9375ZM6.625 4.3125L6.15625 4.46875L5.96875 4.53125C5.19792 4.80208 4.59375 5.26042 4.15625 5.90625L3.90625 6.28125L3.625 6.6875L2.8125 6.125L3.09375 5.71875L3.3125 5.375C3.89583 4.52083 4.67708 3.92708 5.65625 3.59375L5.84375 3.53125L6.3125 3.375L6.625 4.3125ZM9.84375 4.46875L9.375 4.3125L9.6875 3.375L10.1562 3.53125L10.3438 3.59375C11.3229 3.92708 12.1042 4.52083 12.6875 5.375L12.9062 5.71875L13.1875 6.125L12.375 6.6875L12.0938 6.28125L11.8438 5.90625C11.4062 5.26042 10.8021 4.80208 10.0312 4.53125L9.84375 4.46875Z"/>
</svg>
