<svg viewBox="0 0 20 17" xmlns="http://www.w3.org/2000/svg">
<path d="M16.2188 12.25C16.2396 12.25 16.25 12.25 16.25 12.25C16.5833 12.25 16.875 12.375 17.125 12.625L17.5 13L17.875 12.625C18.125 12.375 18.4167 12.25 18.75 12.25C19.1042 12.25 19.3958 12.375 19.625 12.625C19.875 12.8542 20 13.1458 20 13.5C20 13.8333 19.875 14.125 19.625 14.375L17.5 16.5L15.375 14.375C15.125 14.125 15 13.8333 15 13.5C15 13.4792 15 13.4688 15 13.4688C15 13.1562 15.1146 12.8646 15.3438 12.5938C15.5938 12.3646 15.8854 12.25 16.2188 12.25ZM17.375 11.5938C16.9167 11.3021 16.4167 11.1979 15.875 11.2812C16.2917 10.4271 16.5 9.5 16.5 8.5C16.5 7.875 16.4167 7.28125 16.25 6.71875L16.0312 5.96875L17.5 5.5625L17.6875 6.28125C17.8958 6.98958 18 7.72917 18 8.5C18 9.60417 17.7917 10.6354 17.375 11.5938ZM14 13.625C14.0417 14.1458 14.25 14.6146 14.625 15.0312C13.2917 15.9896 11.75 16.4792 10 16.5C8.04167 16.4583 6.35417 15.8542 4.9375 14.6875L5.34375 14.2812C5.57292 14.0521 5.73958 13.7917 5.84375 13.5C7.01042 14.4792 8.39583 14.9792 10 15C11.5417 14.9792 12.875 14.5208 14 13.625ZM3.8125 10.5C3.33333 10.5 2.89583 10.6354 2.5 10.9062C2.4375 10.8646 2.38542 10.8333 2.34375 10.8125C2.11458 10.0833 2 9.3125 2 8.5C2.02083 7 2.38542 5.65625 3.09375 4.46875C3.80208 3.26042 4.76042 2.30208 5.96875 1.59375C7.15625 0.885417 8.5 0.520833 10 0.5C11.1875 0.5 12.2917 0.739583 13.3125 1.21875L14 1.53125L13.375 2.90625L12.6875 2.59375C11.8542 2.19792 10.9583 2 10 2C8.16667 2.04167 6.63542 2.67708 5.40625 3.90625C4.17708 5.13542 3.54167 6.66667 3.5 8.5C3.5 9.20833 3.60417 9.875 3.8125 10.5ZM10 13C9.02083 12.9792 8.16667 12.75 7.4375 12.3125C6.70833 11.875 6.1875 11.4062 5.875 10.9062L7.125 10.0938C7.3125 10.3854 7.66667 10.6875 8.1875 11C8.6875 11.3125 9.29167 11.4792 10 11.5C10.7083 11.4792 11.3125 11.3125 11.8125 11C12.3333 10.6875 12.6875 10.3854 12.875 10.0938L14.125 10.9062C13.7917 11.4062 13.2708 11.875 12.5625 12.3125C11.8333 12.75 10.9792 12.9792 10 13ZM6.25 7.8125L5.25 7.09375C5.85417 6.32292 6.60417 5.9375 7.5 5.9375C8.375 5.9375 9.125 6.32292 9.75 7.09375L8.75 7.8125C8.39583 7.39583 7.97917 7.1875 7.5 7.1875C7 7.1875 6.58333 7.39583 6.25 7.8125ZM13.75 7.8125C13.3958 7.39583 12.9792 7.1875 12.5 7.1875C12 7.1875 11.5833 7.39583 11.25 7.8125L10.25 7.09375C10.8542 6.32292 11.6042 5.9375 12.5 5.9375C13.375 5.9375 14.125 6.32292 14.75 7.09375L13.75 7.8125ZM2.5 12.25L2.875 11.875C3.125 11.625 3.41667 11.5 3.75 11.5C4.10417 11.5 4.39583 11.625 4.625 11.875C4.875 12.1042 5 12.3958 5 12.75C5 13.0833 4.875 13.375 4.625 13.625L2.5 15.75L0.375 13.625C0.125 13.375 0 13.0833 0 12.75C0 12.3958 0.125 12.1042 0.375 11.875C0.604167 11.625 0.895833 11.5 1.25 11.5C1.58333 11.5 1.875 11.625 2.125 11.875L2.5 12.25ZM17.125 0.875L17.5 1.25L17.875 0.875C18.125 0.625 18.4167 0.5 18.75 0.5C19.1042 0.5 19.3958 0.625 19.625 0.875C19.875 1.10417 20 1.39583 20 1.75C20 2.08333 19.875 2.375 19.625 2.625L17.5 4.75L15.375 2.625C15.125 2.375 15 2.08333 15 1.75C15 1.39583 15.125 1.10417 15.375 0.875C15.6042 0.625 15.8958 0.5 16.25 0.5C16.5833 0.5 16.875 0.625 17.125 0.875Z"/>
</svg>
