<svg viewBox="0 0 16 17" xmlns="http://www.w3.org/2000/svg">
<path d="M8 2C6.8125 2 5.72917 2.29167 4.75 2.875C3.77083 3.4375 2.97917 4.22917 2.375 5.25C1.79167 6.27083 1.5 7.35417 1.5 8.5C1.5 9.64583 1.79167 10.7292 2.375 11.75C2.97917 12.7708 3.77083 13.5625 4.75 14.125C5.72917 14.7083 6.8125 15 8 15C9.1875 15 10.2708 14.7083 11.25 14.125C12.2292 13.5625 13.0208 12.7708 13.625 11.75C14.2083 10.7292 14.5 9.64583 14.5 8.5C14.5 7.35417 14.2083 6.27083 13.625 5.25C13.0208 4.22917 12.2292 3.4375 11.25 2.875C10.2708 2.29167 9.1875 2 8 2ZM8 16.5C6.54167 16.4792 5.20833 16.125 4 15.4375C2.79167 14.7292 1.8125 13.75 1.0625 12.5C0.354167 11.2292 0 9.89583 0 8.5C0 7.10417 0.354167 5.77083 1.0625 4.5C1.8125 3.25 2.79167 2.27083 4 1.5625C5.20833 0.875 6.54167 0.520833 8 0.5C9.45833 0.520833 10.7917 0.875 12 1.5625C13.2083 2.27083 14.1875 3.25 14.9375 4.5C15.6458 5.77083 16 7.10417 16 8.5C16 9.89583 15.6458 11.2292 14.9375 12.5C14.1875 13.75 13.2083 14.7292 12 15.4375C10.7917 16.125 9.45833 16.4792 8 16.5ZM4.75 13.4688C4.85417 12.6146 5.19792 11.9062 5.78125 11.3438C6.38542 10.8021 7.125 10.5208 8 10.5C8.85417 10.5208 9.58333 10.8021 10.1875 11.3438C10.7917 11.9062 11.1354 12.6146 11.2188 13.4688C10.3021 12.8438 9.22917 12.5208 8 12.5C6.77083 12.5208 5.6875 12.8438 4.75 13.4688ZM5.5 9C5.22917 9 5 8.90625 4.8125 8.71875C4.625 8.53125 4.52083 8.29167 4.5 8C4.52083 7.70833 4.625 7.46875 4.8125 7.28125L3.84375 6.96875L3.375 6.8125L3.6875 5.875L4.15625 6.03125L7.15625 7.03125L7.625 7.1875L7.3125 8.125L6.84375 7.96875L6.5 7.875C6.5 7.91667 6.5 7.95833 6.5 8C6.5 8.29167 6.40625 8.53125 6.21875 8.71875C6.03125 8.90625 5.79167 9 5.5 9ZM11.5 8H11.5312C11.5104 8.29167 11.4062 8.53125 11.2188 8.71875C11.0312 8.90625 10.8021 9 10.5312 9C10.2396 9 10 8.90625 9.8125 8.71875C9.625 8.53125 9.53125 8.29167 9.53125 8C9.53125 7.9375 9.53125 7.88542 9.53125 7.84375L9.15625 7.96875L8.6875 8.125L8.375 7.1875L8.84375 7.03125L11.8438 6.03125L12.3125 5.875L12.625 6.8125L12.1562 6.96875L11.2188 7.28125C11.4062 7.46875 11.5 7.70833 11.5 8Z"/>
</svg>
