<svg viewBox="0 0 16 17" xmlns="http://www.w3.org/2000/svg">
<path d="M14.5 8.5C14.4583 6.66667 13.8229 5.13542 12.5938 3.90625C11.3646 2.67708 9.83333 2.04167 8 2C6.16667 2.04167 4.63542 2.67708 3.40625 3.90625C2.17708 5.13542 1.54167 6.66667 1.5 8.5C1.5 8.89583 1.53125 9.29167 1.59375 9.6875L0.125 9.96875C0.0416667 9.48958 0 9 0 8.5C0.0208333 7 0.385417 5.65625 1.09375 4.46875C1.80208 3.26042 2.76042 2.30208 3.96875 1.59375C5.15625 0.885417 6.5 0.520833 8 0.5C9.5 0.520833 10.8438 0.885417 12.0312 1.59375C13.2396 2.30208 14.1979 3.26042 14.9062 4.46875C15.6146 5.65625 15.9792 7 16 8.5C15.9792 10 15.6146 11.3438 14.9062 12.5312C14.1979 13.7396 13.2396 14.6979 12.0312 15.4062C10.8438 16.1146 9.5 16.4792 8 16.5C7.5 16.5 7.01042 16.4583 6.53125 16.375L6.8125 14.9062C7.20833 14.9688 7.60417 15 8 15C9.83333 14.9583 11.3646 14.3229 12.5938 13.0938C13.8229 11.8646 14.4583 10.3333 14.5 8.5ZM7.53125 12.5938L7.28125 12.375L7.59375 10.7188L8 11.0312L8.78125 10.4062L9.21875 10.0625L9.65625 10.375L10.6562 11.0312L10.9688 10.7188L11.5 10.1875L12.5625 11.25L12.0312 11.7812L11.2812 12.5312L10.8438 12.9688L10.3438 12.625L9.28125 11.9375L8.46875 12.5938L8 12.9688L7.53125 12.5938ZM3.5 4.5L7.21875 6.5L3.5 8.5L4.9375 6.5L3.5 4.5ZM8.78125 6.5L12.5 4.5L11.0625 6.5L12.5 8.5L8.78125 6.5ZM6.75 9.75L5.5 16.5L4 14.5L1 15.5L2 12.5L0 11L6.75 9.75Z"/>
</svg>
