<svg viewBox="0 0 16 17" xmlns="http://www.w3.org/2000/svg">
<path d="M12.5 13.1875C13.125 12.5833 13.6146 11.8854 13.9688 11.0938C14.3229 10.3021 14.5 9.4375 14.5 8.5C14.4583 6.66667 13.8229 5.13542 12.5938 3.90625C11.3646 2.67708 9.83333 2.04167 8 2C6.16667 2.04167 4.63542 2.67708 3.40625 3.90625C2.17708 5.13542 1.54167 6.66667 1.5 8.5C1.5 9.4375 1.67708 10.3021 2.03125 11.0938C2.38542 11.8854 2.875 12.5833 3.5 13.1875V9.5V8.75H5V9.5V14.2812C5.91667 14.7396 6.91667 14.9792 8 15C9.08333 15 10.0833 14.7604 11 14.2812V9.5V8.75H12.5V9.5V13.1875ZM12.5 15.125V15.25H12.3125C11.0417 16.0625 9.60417 16.4792 8 16.5C6.39583 16.4792 4.96875 16.0625 3.71875 15.25H3.5V15.125C2.4375 14.375 1.59375 13.4375 0.96875 12.3125C0.34375 11.1667 0.0208333 9.89583 0 8.5C0.0208333 7 0.385417 5.65625 1.09375 4.46875C1.80208 3.26042 2.76042 2.30208 3.96875 1.59375C5.15625 0.885417 6.5 0.520833 8 0.5C9.5 0.520833 10.8438 0.885417 12.0312 1.59375C13.2396 2.30208 14.1979 3.26042 14.9062 4.46875C15.6146 5.65625 15.9792 7 16 8.5C15.9792 9.89583 15.6562 11.1667 15.0312 12.3125C14.4062 13.4375 13.5625 14.375 12.5 15.125ZM6.25 7.8125C5.89583 7.39583 5.47917 7.1875 5 7.1875C4.5 7.1875 4.08333 7.39583 3.75 7.8125L2.75 7.09375C3.35417 6.32292 4.10417 5.9375 5 5.9375C5.875 5.9375 6.625 6.32292 7.25 7.09375L6.25 7.8125ZM9.75 7.8125L8.75 7.09375C9.35417 6.32292 10.1042 5.9375 11 5.9375C11.875 5.9375 12.625 6.32292 13.25 7.09375L12.25 7.8125C11.8958 7.39583 11.4792 7.1875 11 7.1875C10.5 7.1875 10.0833 7.39583 9.75 7.8125ZM6.5 10.5C6.52083 10.0833 6.66667 9.72917 6.9375 9.4375C7.22917 9.16667 7.58333 9.02083 8 9C8.41667 9.02083 8.77083 9.16667 9.0625 9.4375C9.33333 9.72917 9.47917 10.0833 9.5 10.5V11.5C9.47917 11.9167 9.33333 12.2708 9.0625 12.5625C8.77083 12.8333 8.41667 12.9792 8 13C7.58333 12.9792 7.22917 12.8333 6.9375 12.5625C6.66667 12.2708 6.52083 11.9167 6.5 11.5V10.5Z"/>
</svg>
