<svg viewBox="0 0 16 17" xmlns="http://www.w3.org/2000/svg">
<path d="M1.5 8.5C1.54167 10.3333 2.17708 11.8646 3.40625 13.0938C4.63542 14.3229 6.16667 14.9583 8 15C9.02083 15 9.95833 14.7917 10.8125 14.375L11.5 15.7188C10.4167 16.2188 9.25 16.4792 8 16.5C6.5 16.4792 5.15625 16.1146 3.96875 15.4062C2.76042 14.6979 1.80208 13.7396 1.09375 12.5312C0.385417 11.3438 0.0208333 10 0 8.5C0.0208333 7 0.385417 5.65625 1.09375 4.46875C1.80208 3.26042 2.76042 2.30208 3.96875 1.59375C5.15625 0.885417 6.5 0.520833 8 0.5C9.5 0.520833 10.8438 0.885417 12.0312 1.59375C13.2396 2.30208 14.1979 3.26042 14.9062 4.46875C15.6146 5.65625 15.9792 7 16 8.5C15.9792 9.75 15.7188 10.9167 15.2188 12L13.875 11.3125C14.2917 10.4583 14.5 9.52083 14.5 8.5C14.4583 6.66667 13.8229 5.13542 12.5938 3.90625C11.3646 2.67708 9.83333 2.04167 8 2C6.16667 2.04167 4.63542 2.67708 3.40625 3.90625C2.17708 5.13542 1.54167 6.66667 1.5 8.5ZM11 11.0938L10.2812 11.7812L10 12.0938V12V11V10.5H11V11V11.0938ZM5.5 8C5.22917 8 5 7.90625 4.8125 7.71875C4.625 7.53125 4.52083 7.29167 4.5 7C4.52083 6.70833 4.625 6.46875 4.8125 6.28125C5 6.09375 5.22917 6 5.5 6C5.79167 6 6.03125 6.09375 6.21875 6.28125C6.40625 6.46875 6.5 6.70833 6.5 7C6.5 7.29167 6.40625 7.53125 6.21875 7.71875C6.03125 7.90625 5.79167 8 5.5 8ZM11.5 7C11.5 7.29167 11.4062 7.53125 11.2188 7.71875C11.0312 7.90625 10.7917 8 10.5 8C10.2292 8 10 7.90625 9.8125 7.71875C9.625 7.53125 9.52083 7.29167 9.5 7C9.52083 6.70833 9.625 6.46875 9.8125 6.28125C10 6.09375 10.2292 6 10.5 6C10.7917 6 11.0312 6.09375 11.2188 6.28125C11.4062 6.46875 11.5 6.70833 11.5 7ZM7 11V12V12.5H6V12V11V10.5H7V11ZM9 10.5V11V12V12.5H8V12V11V10.5H9ZM5 10.5V11V12V12.5H4V12V11V10.5H5ZM16 13.5V14.5L14 16.5H13L11 12.5L12 11.5L16 13.5ZM14.0312 14.0312L14.2812 13.75L13.75 13.2188L13.5 13.5L13 14L12.7188 14.25L13.25 14.7812L13.5312 14.5312L14.0312 14.0312Z"/>
</svg>
