<svg viewBox="0 0 16 17" xmlns="http://www.w3.org/2000/svg">
<path d="M8 15C8.64583 15 9.27083 14.9062 9.875 14.7188C9.97917 14.9896 10.1354 15.2396 10.3438 15.4688C10.3854 15.5104 10.4271 15.5521 10.4688 15.5938C10.4896 15.7604 10.5208 15.9271 10.5625 16.0938C9.75 16.3646 8.89583 16.5 8 16.5C7.08333 16.5 6.20833 16.3542 5.375 16.0625C5.4375 15.8958 5.46875 15.7292 5.46875 15.5625C5.51042 15.5208 5.55208 15.4792 5.59375 15.4375C5.80208 15.2292 5.95833 14.9896 6.0625 14.7188C6.66667 14.9062 7.3125 15 8 15ZM11.0625 14.7812C10.8542 14.5729 10.75 14.3333 10.75 14.0625C10.75 13.7917 10.8542 13.5521 11.0625 13.3438C11.2083 13.2188 11.3646 13.1354 11.5312 13.0938L10 10.5312L12.5625 12.0625C12.6042 11.875 12.6979 11.7188 12.8438 11.5938C13.1354 11.3021 13.4688 11.2188 13.8438 11.3438C13.9896 11.3854 14.125 11.4688 14.25 11.5938C14.2708 11.6146 14.2917 11.6354 14.3125 11.6562C14.4167 11.7812 14.4896 11.9271 14.5312 12.0938C14.6771 12.0104 14.8333 11.9792 15 12C15.0625 12 15.125 12.0104 15.1875 12.0312C15.3542 12.0729 15.5104 12.1562 15.6562 12.2812C15.8438 12.4896 15.9375 12.7292 15.9375 13C15.9375 13.2708 15.8438 13.5104 15.6562 13.7188C15.5938 13.7812 15.5208 13.8333 15.4375 13.875C15.6667 14.1667 15.7708 14.5 15.75 14.875C15.7292 15.2292 15.5833 15.5521 15.3125 15.8438C15.0417 16.1146 14.7188 16.2604 14.3438 16.2812C13.9896 16.3021 13.6562 16.1979 13.3438 15.9688C13.3021 16.0521 13.25 16.125 13.1875 16.1875C12.9792 16.375 12.7396 16.4688 12.4688 16.4688C12.1979 16.4688 11.9583 16.375 11.75 16.1875C11.5833 16 11.4896 15.7812 11.4688 15.5312C11.4688 15.5104 11.4688 15.4896 11.4688 15.4688C11.4688 15.3229 11.5 15.1771 11.5625 15.0312C11.375 15.0104 11.2083 14.9271 11.0625 14.7812ZM14.5 8.5C14.4583 6.66667 13.8229 5.13542 12.5938 3.90625C11.3646 2.67708 9.83333 2.04167 8 2C6.16667 2.04167 4.63542 2.67708 3.40625 3.90625C2.17708 5.13542 1.54167 6.66667 1.5 8.5C1.5 9.14583 1.59375 9.77083 1.78125 10.375C1.48958 10.4583 1.22917 10.6146 1 10.8438C0.958333 10.8854 0.916667 10.9271 0.875 10.9688C0.729167 10.9896 0.572917 11.0208 0.40625 11.0625C0.135417 10.25 0 9.39583 0 8.5C0.0208333 7 0.385417 5.65625 1.09375 4.46875C1.80208 3.26042 2.76042 2.30208 3.96875 1.59375C5.15625 0.885417 6.5 0.520833 8 0.5C9.5 0.520833 10.8438 0.885417 12.0312 1.59375C13.2396 2.30208 14.1979 3.26042 14.9062 4.46875C15.6146 5.65625 15.9792 7 16 8.5C16 9.41667 15.8542 10.2812 15.5625 11.0938C15.3958 11.0312 15.2292 11 15.0625 11C15.0208 10.9583 14.9792 10.9167 14.9375 10.875C14.7292 10.6667 14.4896 10.5104 14.2188 10.4062C14.4062 9.80208 14.5 9.16667 14.5 8.5ZM4.46875 15.5312C4.44792 15.7604 4.35417 15.9688 4.1875 16.1562C3.97917 16.3438 3.73958 16.4375 3.46875 16.4375C3.19792 16.4375 2.96875 16.3438 2.78125 16.1562C2.69792 16.0938 2.63542 16.0208 2.59375 15.9375C2.30208 16.1667 1.96875 16.2708 1.59375 16.25C1.23958 16.2292 0.916667 16.0833 0.625 15.8125C0.354167 15.5208 0.208333 15.1979 0.1875 14.8438C0.166667 14.4688 0.270833 14.1354 0.5 13.8438C0.4375 13.8021 0.364583 13.75 0.28125 13.6875C0.09375 13.4792 0 13.2396 0 12.9688C0 12.6979 0.09375 12.4583 0.28125 12.25C0.447917 12.125 0.625 12.0417 0.8125 12C0.854167 11.9792 0.895833 11.9688 0.9375 11.9688C1.10417 11.9688 1.27083 12 1.4375 12.0625C1.45833 11.8958 1.53125 11.75 1.65625 11.625C1.67708 11.6042 1.69792 11.5833 1.71875 11.5625C1.84375 11.4375 1.97917 11.3542 2.125 11.3125C2.5 11.2083 2.83333 11.2917 3.125 11.5625C3.25 11.7083 3.33333 11.8646 3.375 12.0312L5.9375 10.5L4.40625 13.0625C4.59375 13.1042 4.75 13.1875 4.875 13.3125C5.08333 13.5208 5.1875 13.7604 5.1875 14.0312C5.1875 14.3021 5.08333 14.5417 4.875 14.75C4.72917 14.8958 4.5625 14.9792 4.375 15C4.41667 15.1042 4.44792 15.2083 4.46875 15.3125C4.46875 15.375 4.46875 15.4375 4.46875 15.5C4.46875 15.5 4.46875 15.5104 4.46875 15.5312ZM9.84375 6.34375L9.15625 5.65625C9.34375 5.44792 9.67708 5.17708 10.1562 4.84375C10.6354 4.53125 11.1979 4.26042 11.8438 4.03125L12.1562 4.96875C11.5938 5.17708 11.1042 5.41667 10.6875 5.6875C10.2917 5.97917 10.0104 6.19792 9.84375 6.34375ZM3.5 7.5H6.5H7V8.5H6.5H3.5H3V7.5H3.5ZM9.5 7.5H12.5H13V8.5H12.5H9.5H9V7.5H9.5ZM3.84375 4.96875L4.15625 4.03125C4.80208 4.26042 5.36458 4.53125 5.84375 4.84375C6.32292 5.17708 6.65625 5.44792 6.84375 5.65625L6.15625 6.34375C5.98958 6.19792 5.70833 5.97917 5.3125 5.6875C4.89583 5.41667 4.40625 5.17708 3.84375 4.96875Z"/>
</svg>
