<svg viewBox="0 0 20 17" xmlns="http://www.w3.org/2000/svg">
<path d="M4 0.5C4.77083 0.541667 5.34375 0.875 5.71875 1.5H7C7.5625 1.52083 8.03125 1.71875 8.40625 2.09375C8.78125 2.46875 8.97917 2.9375 9 3.5V5.5H7H0V3.5C0.0208333 2.9375 0.21875 2.46875 0.59375 2.09375C0.96875 1.71875 1.4375 1.52083 2 1.5H2.28125C2.65625 0.875 3.22917 0.541667 4 0.5ZM6.65625 6.5H7H8.375C8.45833 6.64583 8.5 6.8125 8.5 7C8.5 7.29167 8.40625 7.53125 8.21875 7.71875C8.03125 7.90625 7.79167 8 7.5 8C7.22917 8 7 7.90625 6.8125 7.71875C6.625 7.53125 6.52083 7.29167 6.5 7C6.52083 6.8125 6.57292 6.64583 6.65625 6.5ZM9.59375 2C9.26042 1.41667 8.77083 0.989583 8.125 0.71875C8.72917 0.572917 9.35417 0.5 10 0.5C11.5 0.520833 12.8438 0.885417 14.0312 1.59375C15.2396 2.30208 16.1979 3.26042 16.9062 4.46875C17.6146 5.65625 17.9792 7 18 8.5C18 8.95833 17.9583 9.41667 17.875 9.875C17.4792 9.52083 17.0104 9.3125 16.4688 9.25C16.4896 9 16.5 8.75 16.5 8.5C16.4583 6.66667 15.8229 5.13542 14.5938 3.90625C13.3646 2.67708 11.8333 2.04167 10 2C9.875 2 9.73958 2 9.59375 2ZM2.25 6.5H3.8125C3.60417 7.125 3.5 7.79167 3.5 8.5C3.52083 9.79167 3.85417 10.9375 4.5 11.9375C5.14583 12.9583 6 13.75 7.0625 14.3125C7.02083 14.5417 7 14.7708 7 15V15.9062C5.52083 15.3021 4.32292 14.3438 3.40625 13.0312C2.48958 11.7188 2.02083 10.2083 2 8.5C2 7.8125 2.08333 7.14583 2.25 6.5ZM20 16.5H10H8V16.25V15.5V15C8 14.8958 8.01042 14.7917 8.03125 14.6875C8.09375 14 8.35417 13.4167 8.8125 12.9375C9.27083 12.4583 9.83333 12.1562 10.5 12.0312C10.5 12.0104 10.5 12 10.5 12C10.5208 11.2917 10.7604 10.6979 11.2188 10.2188C11.6979 9.76042 12.2917 9.52083 13 9.5C13.9583 9.54167 14.6771 9.94792 15.1562 10.7188C15.4479 10.4271 15.8125 10.2708 16.25 10.25C16.6667 10.2708 17.0208 10.4167 17.3125 10.6875C17.5833 10.9792 17.7292 11.3333 17.75 11.75V12.0938C18.4167 12.2812 18.9583 12.6354 19.375 13.1562C19.7708 13.6771 19.9792 14.2917 20 15V16.5ZM12.5 6C12.7917 6 13.0312 6.09375 13.2188 6.28125C13.4062 6.46875 13.5 6.70833 13.5 7C13.5 7.29167 13.4062 7.53125 13.2188 7.71875C13.0312 7.90625 12.7917 8 12.5 8C12.2292 8 12 7.90625 11.8125 7.71875C11.625 7.53125 11.5208 7.29167 11.5 7C11.5208 6.70833 11.625 6.46875 11.8125 6.28125C12 6.09375 12.2292 6 12.5 6Z"/>
</svg>
