<svg viewBox="0 0 17 17" xmlns="http://www.w3.org/2000/svg">
<path d="M15.5 8.5C15.4583 6.66667 14.8229 5.13542 13.5938 3.90625C12.3646 2.67708 10.8333 2.04167 9 2C7.16667 2.04167 5.63542 2.67708 4.40625 3.90625C3.17708 5.13542 2.54167 6.66667 2.5 8.5C2.5 8.75 2.51042 8.98958 2.53125 9.21875L2.3125 8.90625L1.5 7.84375L1 8.5C1.02083 7 1.38542 5.65625 2.09375 4.46875C2.80208 3.26042 3.76042 2.30208 4.96875 1.59375C6.15625 0.885417 7.5 0.520833 9 0.5C10.5 0.520833 11.8438 0.885417 13.0312 1.59375C14.2396 2.30208 15.1979 3.26042 15.9062 4.46875C16.6146 5.65625 16.9792 7 17 8.5C16.9792 10 16.6146 11.3438 15.9062 12.5312C15.1979 13.7396 14.2396 14.6979 13.0312 15.4062C11.8438 16.1146 10.5 16.4792 9 16.5C7.83333 16.5 6.73958 16.2708 5.71875 15.8125C4.71875 15.3542 3.84375 14.7188 3.09375 13.9062C3.51042 13.5521 3.79167 13.1042 3.9375 12.5625C4.54167 13.3125 5.27083 13.8958 6.125 14.3125C6.04167 14.0625 6 13.7917 6 13.5V13.0312C5.66667 12.8021 5.5 12.5417 5.5 12.25C5.52083 11.8333 5.86458 11.4792 6.53125 11.1875C7.17708 10.9167 8 10.7708 9 10.75C10 10.7708 10.8229 10.9167 11.4688 11.1875C12.1354 11.4792 12.4792 11.8333 12.5 12.25C12.5 12.5417 12.3333 12.8021 12 13.0312V13.5C12 13.7917 11.9583 14.0625 11.875 14.3125C12.9792 13.7708 13.8542 12.9896 14.5 11.9688C15.1458 10.9479 15.4792 9.79167 15.5 8.5ZM3 12C2.97917 12.4583 2.80208 12.8333 2.46875 13.125C2.19792 13.375 1.875 13.5 1.5 13.5C1.08333 13.4792 0.729167 13.3333 0.4375 13.0625C0.166667 12.7708 0.0208333 12.4167 0 12C0 11.6667 0.104167 11.3646 0.3125 11.0938L1.125 10L1.5 9.5L2.125 10.3438L2.6875 11.0938C2.89583 11.3646 3 11.6667 3 12ZM10.5 9C10.5 8.70833 10.5938 8.46875 10.7812 8.28125C10.9688 8.09375 11.2083 8 11.5 8C11.7708 8 12 8.09375 12.1875 8.28125C12.375 8.46875 12.4792 8.70833 12.5 9C12.4792 9.29167 12.375 9.53125 12.1875 9.71875C12 9.90625 11.7708 10 11.5 10C11.2083 10 10.9688 9.90625 10.7812 9.71875C10.5938 9.53125 10.5 9.29167 10.5 9ZM6.5 10C6.20833 10 5.96875 9.90625 5.78125 9.71875C5.59375 9.53125 5.5 9.29167 5.5 9C5.5 8.70833 5.59375 8.46875 5.78125 8.28125C5.96875 8.09375 6.20833 8 6.5 8C6.77083 8 7 8.09375 7.1875 8.28125C7.375 8.46875 7.47917 8.70833 7.5 9C7.47917 9.29167 7.375 9.53125 7.1875 9.71875C7 9.90625 6.77083 10 6.5 10ZM7.46875 5.5L7.09375 5.84375L6.875 6.09375C6.125 6.84375 5.21875 7.30208 4.15625 7.46875L4.09375 7.5L3.59375 7.5625L3.4375 6.59375L3.90625 6.5H4C4.83333 6.35417 5.55208 5.97917 6.15625 5.375L6.40625 5.15625L6.75 4.78125L7.46875 5.5ZM10.9062 5.84375L10.5312 5.5L11.25 4.78125L11.5938 5.15625L11.8438 5.375C12.4479 5.97917 13.1667 6.35417 14 6.5H14.0938L14.5938 6.59375L14.4062 7.5625L13.9062 7.5L13.8438 7.46875C12.8021 7.30208 11.8958 6.84375 11.125 6.09375L10.9062 5.84375ZM9 15.5C9.5625 15.4792 10.0312 15.2812 10.4062 14.9062C10.7812 14.5312 10.9792 14.0625 11 13.5V12H9.5V12.75H8.5V12H7V13.5C7.02083 14.0625 7.21875 14.5312 7.59375 14.9062C7.96875 15.2812 8.4375 15.4792 9 15.5Z"/>
</svg>
