<svg viewBox="0 0 18 17" xmlns="http://www.w3.org/2000/svg">
<path d="M15.5 8.5C15.4583 6.66667 14.8229 5.13542 13.5938 3.90625C12.3646 2.67708 10.8333 2.04167 9 2C7.16667 2.04167 5.63542 2.67708 4.40625 3.90625C3.17708 5.13542 2.54167 6.66667 2.5 8.5C2.5 9.5 2.70833 10.4271 3.125 11.2812C3.52083 12.1146 4.07292 12.8333 4.78125 13.4375C4.59375 13.75 4.32292 13.9688 3.96875 14.0938L3.46875 14.2812C2.69792 13.5312 2.09375 12.6667 1.65625 11.6875C1.21875 10.7083 1 9.64583 1 8.5C1.02083 7 1.38542 5.65625 2.09375 4.46875C2.80208 3.26042 3.76042 2.30208 4.96875 1.59375C6.15625 0.885417 7.5 0.520833 9 0.5C10.5 0.520833 11.8438 0.885417 13.0312 1.59375C14.2396 2.30208 15.1979 3.26042 15.9062 4.46875C16.6146 5.65625 16.9792 7 17 8.5C17 9.64583 16.7812 10.7083 16.3438 11.6875C15.9062 12.6667 15.3125 13.5312 14.5625 14.2812L14.0312 14.0938C13.6771 13.9688 13.4062 13.75 13.2188 13.4375C13.9271 12.8333 14.4792 12.1146 14.875 11.2812C15.2917 10.4271 15.5 9.5 15.5 8.5ZM8.21875 7L4.5 9L5.9375 7L4.5 5L8.21875 7ZM13.5 5L12.0625 7L13.5 9L9.78125 7L13.5 5ZM1 16.5C0.708333 16.5 0.46875 16.4062 0.28125 16.2188C0.09375 16.0312 0 15.7917 0 15.5C0 15.2083 0.09375 14.9688 0.28125 14.7812C0.46875 14.5938 0.708333 14.5 1 14.5C1.29167 14.5 1.53125 14.5938 1.71875 14.7812C1.90625 14.9688 2 15.2083 2 15.5C2 15.7917 1.90625 16.0312 1.71875 16.2188C1.53125 16.4062 1.29167 16.5 1 16.5ZM18 14.5C18 14.7917 17.9062 15.0312 17.7188 15.2188C17.5312 15.4062 17.2917 15.5 17 15.5C16.7083 15.5 16.4688 15.4062 16.2812 15.2188C16.0938 15.0312 16 14.7917 16 14.5C16 14.2083 16.0938 13.9688 16.2812 13.7812C16.4688 13.5938 16.7083 13.5 17 13.5C17.2917 13.5 17.5312 13.5938 17.7188 13.7812C17.9062 13.9688 18 14.2083 18 14.5ZM12 12.875C12 13.375 12.1458 13.8125 12.4375 14.1875C12.7083 14.5833 13.0729 14.8542 13.5312 15L15 15.5V16.5H3V15.5L4.46875 15C4.92708 14.8542 5.29167 14.5833 5.5625 14.1875C5.85417 13.8125 6 13.375 6 12.875V11.0625C5.66667 11.2083 5.42708 11.3229 5.28125 11.4062L4.875 11.6875L4.3125 10.875L4.71875 10.5938C5.03125 10.3646 5.55208 10.1354 6.28125 9.90625C7.03125 9.65625 7.9375 9.52083 9 9.5C10.0625 9.52083 10.9688 9.65625 11.7188 9.90625C12.4479 10.1354 12.9688 10.3646 13.2812 10.5938L13.6875 10.875L13.125 11.6875L12.7188 11.4062C12.5729 11.3229 12.3333 11.2083 12 11.0625V12.875ZM9.5 13.5C9.8125 13.4792 9.97917 13.3125 10 13C9.97917 12.6875 9.8125 12.5208 9.5 12.5C9.1875 12.5208 9.02083 12.6875 9 13C9.02083 13.3125 9.1875 13.4792 9.5 13.5ZM7 14C7.02083 14.3125 7.1875 14.4792 7.5 14.5C7.8125 14.4792 7.97917 14.3125 8 14C7.97917 13.6875 7.8125 13.5208 7.5 13.5C7.1875 13.5208 7.02083 13.6875 7 14Z"/>
</svg>
