<svg viewBox="0 0 16 17" xmlns="http://www.w3.org/2000/svg">
<path d="M14.5 8.5C14.5 7.3125 14.2083 6.22917 13.625 5.25C13.0625 4.27083 12.2708 3.47917 11.25 2.875C10.2292 2.29167 9.14583 2 8 2C6.85417 2 5.77083 2.29167 4.75 2.875C3.72917 3.47917 2.9375 4.27083 2.375 5.25C1.79167 6.22917 1.5 7.3125 1.5 8.5C1.5 9.6875 1.79167 10.7708 2.375 11.75C2.9375 12.7292 3.72917 13.5208 4.75 14.125C5.77083 14.7083 6.85417 15 8 15C9.14583 15 10.2292 14.7083 11.25 14.125C12.2708 13.5208 13.0625 12.7292 13.625 11.75C14.2083 10.7708 14.5 9.6875 14.5 8.5ZM0 8.5C0.0208333 7.04167 0.375 5.70833 1.0625 4.5C1.77083 3.29167 2.75 2.3125 4 1.5625C5.27083 0.854167 6.60417 0.5 8 0.5C9.39583 0.5 10.7292 0.854167 12 1.5625C13.25 2.3125 14.2292 3.29167 14.9375 4.5C15.625 5.70833 15.9792 7.04167 16 8.5C15.9792 9.95833 15.625 11.2917 14.9375 12.5C14.2292 13.7083 13.25 14.6875 12 15.4375C10.7292 16.1458 9.39583 16.5 8 16.5C6.60417 16.5 5.27083 16.1458 4 15.4375C2.75 14.6875 1.77083 13.7083 1.0625 12.5C0.375 11.2917 0.0208333 9.95833 0 8.5ZM5.5 7.5C5.79167 7.5 6.03125 7.59375 6.21875 7.78125C6.40625 7.96875 6.5 8.20833 6.5 8.5C6.5 8.79167 6.40625 9.03125 6.21875 9.21875C6.03125 9.40625 5.79167 9.5 5.5 9.5C5.22917 9.5 5 9.40625 4.8125 9.21875C4.625 9.03125 4.52083 8.79167 4.5 8.5C4.52083 8.20833 4.625 7.96875 4.8125 7.78125C5 7.59375 5.22917 7.5 5.5 7.5ZM9.5 8.5C9.52083 8.20833 9.625 7.96875 9.8125 7.78125C10 7.59375 10.2292 7.5 10.5 7.5C10.7917 7.5 11.0312 7.59375 11.2188 7.78125C11.4062 7.96875 11.5 8.20833 11.5 8.5C11.5 8.79167 11.4062 9.03125 11.2188 9.21875C11.0312 9.40625 10.7917 9.5 10.5 9.5C10.2292 9.5 10 9.40625 9.8125 9.21875C9.625 9.03125 9.52083 8.79167 9.5 8.5ZM5.59375 5.53125C4.92708 5.63542 4.34375 5.91667 3.84375 6.375L3.46875 6.71875L2.78125 5.96875L3.15625 5.625C3.80208 5.02083 4.57292 4.65625 5.46875 4.53125C5.63542 4.51042 5.8125 4.5 6 4.5H6.5V5.5H6C5.85417 5.5 5.71875 5.51042 5.59375 5.53125ZM10 5.5H9.5V4.5H10C10.1875 4.5 10.3646 4.51042 10.5312 4.53125C11.4271 4.65625 12.1979 5.02083 12.8438 5.625L13.2188 5.96875L12.5312 6.71875L12.1562 6.375C11.6562 5.91667 11.0729 5.63542 10.4062 5.53125C10.2812 5.51042 10.1458 5.5 10 5.5ZM8 11C8.5625 11.0208 9 11.2708 9.3125 11.75C9.5625 12.25 9.5625 12.75 9.3125 13.25C9 13.7292 8.5625 13.9792 8 14C7.4375 13.9792 7 13.7292 6.6875 13.25C6.4375 12.75 6.4375 12.25 6.6875 11.75C7 11.2708 7.4375 11.0208 8 11Z"/>
</svg>
