<svg viewBox="0 0 16 17" xmlns="http://www.w3.org/2000/svg">
<path d="M14.5 8.5C14.5 7.3125 14.2083 6.22917 13.625 5.25C13.0625 4.27083 12.2708 3.47917 11.25 2.875C10.2292 2.29167 9.14583 2 8 2C6.85417 2 5.77083 2.29167 4.75 2.875C3.72917 3.47917 2.9375 4.27083 2.375 5.25C1.79167 6.22917 1.5 7.3125 1.5 8.5C1.5 9.6875 1.79167 10.7708 2.375 11.75C2.9375 12.7292 3.72917 13.5208 4.75 14.125C5.77083 14.7083 6.85417 15 8 15C9.14583 15 10.2292 14.7083 11.25 14.125C12.2708 13.5208 13.0625 12.7292 13.625 11.75C14.2083 10.7708 14.5 9.6875 14.5 8.5ZM0 8.5C0.0208333 7.04167 0.375 5.70833 1.0625 4.5C1.77083 3.29167 2.75 2.3125 4 1.5625C5.27083 0.854167 6.60417 0.5 8 0.5C9.39583 0.5 10.7292 0.854167 12 1.5625C13.25 2.3125 14.2292 3.29167 14.9375 4.5C15.625 5.70833 15.9792 7.04167 16 8.5C15.9792 9.95833 15.625 11.2917 14.9375 12.5C14.2292 13.7083 13.25 14.6875 12 15.4375C10.7292 16.1458 9.39583 16.5 8 16.5C6.60417 16.5 5.27083 16.1458 4 15.4375C2.75 14.6875 1.77083 13.7083 1.0625 12.5C0.375 11.2917 0.0208333 9.95833 0 8.5ZM10.5 6C10.7708 6 11 6.09375 11.1875 6.28125C11.375 6.46875 11.4792 6.70833 11.5 7C11.4792 7.29167 11.375 7.53125 11.1875 7.71875C11 7.90625 10.7708 8 10.5 8C10.2083 8 9.96875 7.90625 9.78125 7.71875C9.59375 7.53125 9.5 7.29167 9.5 7C9.5 6.70833 9.59375 6.46875 9.78125 6.28125C9.96875 6.09375 10.2083 6 10.5 6ZM6.5 7C6.47917 7.29167 6.375 7.53125 6.1875 7.71875C6 7.90625 5.77083 8 5.5 8C5.20833 8 4.96875 7.90625 4.78125 7.71875C4.59375 7.53125 4.5 7.29167 4.5 7C4.5 6.70833 4.59375 6.46875 4.78125 6.28125C4.96875 6.09375 5.20833 6 5.5 6C5.77083 6 6 6.09375 6.1875 6.28125C6.375 6.46875 6.47917 6.70833 6.5 7ZM5.875 4.59375C5.10417 5.34375 4.19792 5.80208 3.15625 5.96875L3.09375 6L2.90625 5H3C3.83333 4.85417 4.55208 4.47917 5.15625 3.875L5.40625 3.65625L6.09375 4.34375L5.875 4.59375ZM9.90625 4.34375L10.5938 3.65625L10.8438 3.875C11.4479 4.47917 12.1667 4.85417 13 5H13.0938L12.9062 6L12.8438 5.96875C11.7812 5.80208 10.875 5.34375 10.125 4.59375L9.90625 4.34375ZM4.625 10.1562L5.375 8.84375C5.91667 9.17708 6.29167 9.64583 6.5 10.25H9.5C9.70833 9.64583 10.0833 9.1875 10.625 8.875L11.375 10.1562C11.0625 10.3438 10.8958 10.6354 10.875 11.0312C10.8958 11.4062 11.0625 11.6875 11.375 11.875L10.625 13.1562C10.0833 12.8438 9.70833 12.375 9.5 11.75H6.5C6.29167 12.3542 5.91667 12.8229 5.375 13.1562L4.625 11.8438C4.9375 11.6562 5.10417 11.375 5.125 11C5.10417 10.625 4.9375 10.3438 4.625 10.1562Z"/>
</svg>
