<svg viewBox="0 0 16 17" xmlns="http://www.w3.org/2000/svg">
<path d="M1.5 15H3V16.5H1.5H0V15V2V0.5H1.5H8L12 4.5V9.5H10.5V5.5H7V2H1.5V15ZM5.5 11.5H6.5C7 11.5208 7.41667 11.6875 7.75 12C8.0625 12.3333 8.22917 12.75 8.25 13.25C8.22917 13.75 8.0625 14.1667 7.75 14.5C7.41667 14.8125 7 14.9792 6.5 15H6V16V16.5H5V16V14.5V12V11.5H5.5ZM6.5 14C6.95833 13.9583 7.20833 13.7083 7.25 13.25C7.20833 12.7917 6.95833 12.5417 6.5 12.5H6V14H6.5ZM9.5 11.5H10.5C10.9167 11.5208 11.2708 11.6667 11.5625 11.9375C11.8333 12.2292 11.9792 12.5833 12 13V15C11.9792 15.4167 11.8333 15.7708 11.5625 16.0625C11.2708 16.3333 10.9167 16.4792 10.5 16.5H9.5H9V16V12V11.5H9.5ZM10.5 15.5C10.8125 15.4792 10.9792 15.3125 11 15V13C10.9792 12.6875 10.8125 12.5208 10.5 12.5H10V15.5H10.5ZM13 11.5H13.5H15H15.5V12.5H15H14V13.5H15H15.5V14.5H15H14V16V16.5H13V16V14V12V11.5Z"/>
</svg>
