<svg viewBox="0 0 18 17" xmlns="http://www.w3.org/2000/svg">
<path d="M11.25 0.5L11.7188 2.59375C12.0938 2.76042 12.4375 2.95833 12.75 3.1875L14.8125 2.5625L17.0625 6.4375L15.4688 7.875C15.4896 8.08333 15.5 8.29167 15.5 8.5C15.5 8.70833 15.4896 8.90625 15.4688 9.09375L17.0625 10.5625L14.8125 14.4375L12.75 13.7812C12.4167 14.0312 12.0729 14.2396 11.7188 14.4062L11.25 16.5H6.75L6.28125 14.4062C5.90625 14.2396 5.5625 14.0417 5.25 13.8125L3.1875 14.4375L0.9375 10.5625L2.53125 9.125C2.51042 8.91667 2.5 8.70833 2.5 8.5C2.5 8.29167 2.51042 8.09375 2.53125 7.90625L0.9375 6.4375L3.1875 2.5625L5.25 3.21875C5.5625 2.96875 5.90625 2.76042 6.28125 2.59375L6.75 0.5H11.25ZM13.2188 4.625L12.5 4.875L11.9062 4.4375C11.6354 4.25 11.3646 4.09375 11.0938 3.96875L10.4062 3.65625L10.25 2.90625L10.0312 2H7.96875L7.75 2.90625L7.59375 3.65625L6.90625 3.96875C6.61458 4.09375 6.34375 4.25 6.09375 4.4375L5.5 4.875L4.78125 4.625L3.90625 4.34375L2.84375 6.15625L3.53125 6.78125L4.09375 7.28125L4.03125 8.03125C4.01042 8.17708 4 8.33333 4 8.5C4 8.66667 4.01042 8.82292 4.03125 8.96875L4.09375 9.71875L3.53125 10.2188L2.84375 10.8438L3.90625 12.6562L4.78125 12.375L5.5 12.1562L6.09375 12.5938C6.36458 12.7604 6.63542 12.9167 6.90625 13.0625L7.59375 13.375L7.75 14.0938L7.96875 15H10.0312L10.25 14.0938L10.4062 13.375L11.0938 13.0625C11.3854 12.9167 11.6562 12.7604 11.9062 12.5938L12.5 12.1562L13.2188 12.375L14.0938 12.6562L15.1562 10.8438L14.4688 10.2188L13.9062 9.71875L13.9688 8.96875C13.9896 8.82292 14 8.66667 14 8.5C14 8.33333 13.9896 8.17708 13.9688 8.03125L13.9062 7.28125L14.4688 6.78125L15.1562 6.15625L14.125 4.34375L13.2188 4.625ZM10.5 8.5C10.4792 7.9375 10.2292 7.5 9.75 7.1875C9.25 6.9375 8.75 6.9375 8.25 7.1875C7.77083 7.5 7.52083 7.9375 7.5 8.5C7.52083 9.0625 7.77083 9.5 8.25 9.8125C8.75 10.0625 9.25 10.0625 9.75 9.8125C10.2292 9.5 10.4792 9.0625 10.5 8.5ZM6 8.5C6 7.95833 6.13542 7.45833 6.40625 7C6.67708 6.54167 7.04167 6.17708 7.5 5.90625C7.97917 5.63542 8.47917 5.5 9 5.5C9.52083 5.5 10.0208 5.63542 10.5 5.90625C10.9583 6.17708 11.3229 6.54167 11.5938 7C11.8646 7.45833 12 7.95833 12 8.5C12 9.04167 11.8646 9.54167 11.5938 10C11.3229 10.4583 10.9583 10.8229 10.5 11.0938C10.0208 11.3646 9.52083 11.5 9 11.5C8.47917 11.5 7.97917 11.3646 7.5 11.0938C7.04167 10.8229 6.67708 10.4583 6.40625 10C6.13542 9.54167 6 9.04167 6 8.5Z"/>
</svg>
