<svg width="16" height="16" viewBox="0 0 16 16" fill="none" xmlns="http://www.w3.org/2000/svg">
<path d="M15.625 8.6875C15.5833 10.9375 14.8958 12.75 13.5625 14.125C12.2083 15.5 10.3958 16.2083 8.125 16.25C6.6875 16.2292 5.38542 15.875 4.21875 15.1875C3.05208 14.5 2.125 13.5729 1.4375 12.4062C0.75 11.2396 0.395833 9.9375 0.375 8.5C0.395833 7.0625 0.75 5.76042 1.4375 4.59375C2.125 3.42708 3.05208 2.5 4.21875 1.8125C5.38542 1.125 6.6875 0.770833 8.125 0.75C10.2292 0.791667 11.9583 1.46875 13.3125 2.78125L11.2188 4.8125C10.2396 3.9375 9.14583 3.54167 7.9375 3.625C6.72917 3.6875 5.66667 4.14583 4.75 5C3.85417 5.875 3.375 7.04167 3.3125 8.5C3.35417 9.89583 3.82292 11.0521 4.71875 11.9688C5.63542 12.8854 6.77083 13.3646 8.125 13.4062C9.14583 13.3854 9.96875 13.1771 10.5938 12.7812C11.2188 12.3854 11.6875 11.9375 12 11.4375C12.2917 10.9167 12.4688 10.4583 12.5312 10.0625H8.125V7.375H15.5C15.5833 7.75 15.625 8.1875 15.625 8.6875Z" fill="#F2FAFC"/>
</svg>
