<svg viewBox="0 0 16 17" xmlns="http://www.w3.org/2000/svg">
<path d="M3.5 11.8125V12.4062V14.5V15V16.5H3H2V15.5V15V12.4062C1.35417 11.7396 0.864583 10.9896 0.53125 10.1562C0.177083 9.32292 0 8.4375 0 7.5C0.0208333 6.20833 0.34375 5.03125 0.96875 3.96875C1.57292 2.92708 2.40625 2.09375 3.46875 1.46875C4.51042 0.84375 5.6875 0.520833 7 0.5H8C9.625 0.541667 11 1.08333 12.125 2.125C13.2292 3.16667 13.8542 4.48958 14 6.09375L15.75 8.09375L16 8.375V8.75V9.5V10V11H15.5H15H14.5H14V12.5V13V13.5V14.5H13H12.5H11.5H10V15V15.5V16V16.5H9H8.5V15V14.5V13H10H12.5V11V9.5H14H14.5V8.9375L12.875 7.09375L12.5312 6.71875L12.5 6.21875C12.3958 5.01042 11.9271 4.01042 11.0938 3.21875C10.2604 2.42708 9.22917 2.02083 8 2H7C5.4375 2.04167 4.14583 2.58333 3.125 3.625C2.08333 4.64583 1.54167 5.9375 1.5 7.5C1.52083 9 2.04167 10.2917 3.0625 11.375L3.5 11.8125ZM9.75 6.5H8.5V7C8.5 7.35417 8.375 7.64583 8.125 7.875C7.89583 8.125 7.60417 8.25 7.25 8.25H7V9.75V10.5H5.5V9.75V8.25H5C4.64583 8.25 4.35417 8.125 4.125 7.875C3.875 7.64583 3.75 7.35417 3.75 7V6.90625C3.27083 6.67708 3.02083 6.29167 3 5.75C3 5.39583 3.125 5.10417 3.375 4.875C3.60417 4.625 3.89583 4.5 4.25 4.5C4.29167 4.20833 4.41667 3.96875 4.625 3.78125C4.83333 3.59375 5.08333 3.5 5.375 3.5C5.5625 3.5 5.73958 3.54167 5.90625 3.625C6.15625 3.22917 6.52083 3.02083 7 3C7.47917 3.02083 7.84375 3.22917 8.09375 3.625C8.26042 3.54167 8.4375 3.5 8.625 3.5C9.04167 3.52083 9.35417 3.6875 9.5625 4C9.625 4 9.6875 4 9.75 4C10.1042 4 10.3958 4.125 10.625 4.375C10.875 4.60417 11 4.89583 11 5.25C11 5.60417 10.875 5.89583 10.625 6.125C10.3958 6.375 10.1042 6.5 9.75 6.5Z"/>
</svg>
