<svg viewBox="0 0 16 17" xmlns="http://www.w3.org/2000/svg">
<path d="M12.5 6.5C12.4583 5.22917 12.0208 4.16667 11.1875 3.3125C10.3333 2.47917 9.27083 2.04167 8 2C6.72917 2.04167 5.66667 2.47917 4.8125 3.3125C3.97917 4.16667 3.54167 5.22917 3.5 6.5C3.5 7.02083 3.76042 7.80208 4.28125 8.84375C4.82292 9.88542 5.46875 10.9167 6.21875 11.9375C6.86458 12.8125 7.45833 13.5729 8 14.2188C8.54167 13.5729 9.13542 12.8125 9.78125 11.9375C10.5312 10.9167 11.1771 9.88542 11.7188 8.84375C12.2396 7.80208 12.5 7.02083 12.5 6.5ZM14 6.5C13.9792 7.39583 13.6771 8.39583 13.0938 9.5C12.5104 10.625 11.8333 11.7083 11.0625 12.75C10.2917 13.7917 9.60417 14.6667 9 15.375C8.375 16.0833 8.04167 16.4583 8 16.5C7.95833 16.4792 7.625 16.1042 7 15.375C6.39583 14.6667 5.70833 13.7917 4.9375 12.75C4.16667 11.7083 3.48958 10.625 2.90625 9.5C2.32292 8.39583 2.02083 7.39583 2 6.5C2.04167 4.79167 2.625 3.375 3.75 2.25C4.875 1.125 6.29167 0.541667 8 0.5C9.70833 0.541667 11.125 1.125 12.25 2.25C13.375 3.375 13.9583 4.79167 14 6.5ZM9 6.5C9 6.20833 8.90625 5.96875 8.71875 5.78125C8.53125 5.59375 8.29167 5.5 8 5.5C7.70833 5.5 7.46875 5.59375 7.28125 5.78125C7.09375 5.96875 7 6.20833 7 6.5C7 6.79167 7.09375 7.03125 7.28125 7.21875C7.46875 7.40625 7.70833 7.5 8 7.5C8.29167 7.5 8.53125 7.40625 8.71875 7.21875C8.90625 7.03125 9 6.79167 9 6.5ZM5.5 6.5C5.52083 5.5625 5.9375 4.84375 6.75 4.34375C7.58333 3.88542 8.41667 3.88542 9.25 4.34375C10.0625 4.84375 10.4792 5.5625 10.5 6.5C10.4792 7.4375 10.0625 8.15625 9.25 8.65625C8.41667 9.11458 7.58333 9.11458 6.75 8.65625C5.9375 8.15625 5.52083 7.4375 5.5 6.5Z"/>
</svg>
