<svg viewBox="0 0 16 17" xmlns="http://www.w3.org/2000/svg">
<path d="M11.5 7C11.5 6.10417 11.2812 5.27083 10.8438 4.5C10.3854 3.72917 9.77083 3.11458 9 2.65625C8.20833 2.21875 7.375 2 6.5 2C5.625 2 4.79167 2.21875 4 2.65625C3.22917 3.11458 2.61458 3.72917 2.15625 4.5C1.71875 5.27083 1.5 6.10417 1.5 7C1.5 7.89583 1.71875 8.72917 2.15625 9.5C2.61458 10.2708 3.22917 10.8854 4 11.3438C4.79167 11.7812 5.625 12 6.5 12C7.375 12 8.20833 11.7812 9 11.3438C9.77083 10.8854 10.3854 10.2708 10.8438 9.5C11.2812 8.72917 11.5 7.89583 11.5 7ZM10.5312 12.0938C9.40625 13.0104 8.0625 13.4792 6.5 13.5C4.66667 13.4583 3.13542 12.8229 1.90625 11.5938C0.677083 10.3646 0.0416667 8.83333 0 7C0.0416667 5.16667 0.677083 3.63542 1.90625 2.40625C3.13542 1.17708 4.66667 0.541667 6.5 0.5C8.33333 0.541667 9.86458 1.17708 11.0938 2.40625C12.3229 3.63542 12.9583 5.16667 13 7C12.9792 8.5625 12.5104 9.90625 11.5938 11.0312L15.4688 14.9062L16 15.4375L14.9375 16.5L14.4062 15.9688L10.5312 12.0938Z"/>
</svg>
