<svg viewBox="0 0 16 17" xmlns="http://www.w3.org/2000/svg">
<path d="M6.5 2V8.5C6.52083 8.91667 6.66667 9.27083 6.9375 9.5625C7.22917 9.83333 7.58333 9.97917 8 10C8.41667 9.97917 8.77083 9.83333 9.0625 9.5625C9.33333 9.27083 9.47917 8.91667 9.5 8.5V2H6.5ZM5 0.5H6.5H9.5H11V2V8.5C10.9792 9.35417 10.6875 10.0625 10.125 10.625C9.5625 11.1875 8.85417 11.4792 8 11.5C7.14583 11.4792 6.4375 11.1875 5.875 10.625C5.3125 10.0625 5.02083 9.35417 5 8.5V2V0.5ZM4 7.25V8.5C4.02083 9.625 4.40625 10.5729 5.15625 11.3438C5.92708 12.0938 6.875 12.4792 8 12.5C9.125 12.4792 10.0729 12.0938 10.8438 11.3438C11.5938 10.5729 11.9792 9.625 12 8.5V7.25V6.5H13.5V7.25V8.5C13.4792 9.91667 13.0208 11.125 12.125 12.125C11.25 13.125 10.125 13.7292 8.75 13.9375V15H10.25H11V16.5H10.25H8H5.75H5V15H5.75H7.25V13.9375C5.875 13.7292 4.75 13.125 3.875 12.125C2.97917 11.125 2.52083 9.91667 2.5 8.5V7.25V6.5H4V7.25Z"/>
</svg>
