<svg viewBox="0 0 16 17" xmlns="http://www.w3.org/2000/svg">
<path d="M12.7188 2.78125C12.2812 2.38542 11.7917 2.1875 11.25 2.1875C10.6875 2.1875 10.1979 2.38542 9.78125 2.78125L3.78125 8.78125C3.09375 9.48958 2.75 10.3125 2.75 11.25C2.75 12.1875 3.09375 13.0104 3.78125 13.7188C4.48958 14.4062 5.3125 14.75 6.25 14.75C7.1875 14.75 8.01042 14.4062 8.71875 13.7188L13.4688 8.96875L14 8.4375L15.0625 9.5L14.5312 10.0312L9.78125 14.7812C8.76042 15.7604 7.58333 16.25 6.25 16.25C4.91667 16.25 3.73958 15.7604 2.71875 14.7812C1.73958 13.7604 1.25 12.5833 1.25 11.25C1.25 9.91667 1.73958 8.73958 2.71875 7.71875L8.71875 1.71875C9.44792 1.01042 10.2917 0.65625 11.25 0.65625C12.2083 0.65625 13.0521 1.01042 13.7812 1.71875C14.4896 2.44792 14.8438 3.29167 14.8438 4.25C14.8438 5.20833 14.4896 6.05208 13.7812 6.78125L8.03125 12.5312C7.51042 13.0104 6.91667 13.2396 6.25 13.2188C5.58333 13.1771 5.02083 12.8854 4.5625 12.3438C4.1875 11.8438 4.01042 11.3125 4.03125 10.75C4.07292 10.1667 4.30208 9.65625 4.71875 9.21875L9.46875 4.46875L10 3.9375L11.0625 5L10.5312 5.53125L5.78125 10.2812C5.46875 10.6354 5.44792 11.0104 5.71875 11.4062C5.88542 11.5938 6.09375 11.6979 6.34375 11.7188C6.57292 11.7188 6.78125 11.6354 6.96875 11.4688L12.7188 5.71875C13.1354 5.28125 13.3438 4.79167 13.3438 4.25C13.3438 3.6875 13.1354 3.19792 12.7188 2.78125Z"/>
</svg>
