<svg viewBox="0 0 20 17" xmlns="http://www.w3.org/2000/svg">
<path d="M6.375 0.5H6.625H7H7.25H7.9375L8 1.1875C8.0625 1.70833 8.28125 2.13542 8.65625 2.46875C9.01042 2.80208 9.45833 2.97917 10 3C10.5417 2.97917 10.9896 2.80208 11.3438 2.46875C11.7188 2.13542 11.9375 1.70833 12 1.1875L12.0625 0.5H12.75H13H13.375H13.625L13.8438 0.6875L14.125 0.90625L18.625 4.65625L19.4062 5.3125L20 5.8125L19.5 6.375L18.8125 7.15625L17.0625 9.15625L16.4375 9.875L15.9375 10.4375L15.375 9.96875L15 9.65625V15.75V16.5H14.25H5.75H5V15.75V9.65625L4.625 9.96875L4.0625 10.4375L3.5625 9.875L2.9375 9.15625L1.1875 7.15625L0.5 6.375L0 5.8125L0.59375 5.3125L1.375 4.65625L5.875 0.90625L6.15625 0.6875L6.375 0.5ZM6.6875 2.1875L2.34375 5.8125L2.15625 5.96875L2.3125 6.15625L4.0625 8.15625L4.21875 8.34375L4.40625 8.1875L5.28125 7.46875L6.5 6.4375V8.0625V15H13.5V8.0625V6.4375L14.7188 7.46875L15.5938 8.1875L15.7812 8.34375L15.9375 8.15625L17.6875 6.15625L17.8438 5.96875L17.6562 5.8125L13.3125 2.1875C13.0417 2.875 12.6146 3.42708 12.0312 3.84375C11.4479 4.26042 10.7708 4.47917 10 4.5C9.22917 4.47917 8.55208 4.26042 7.96875 3.84375C7.38542 3.42708 6.96875 2.875 6.71875 2.1875H6.6875Z"/>
</svg>
