<svg viewBox="0 0 16 17" xmlns="http://www.w3.org/2000/svg">
<path d="M0.75 1.5H3.75H4.0625L4.28125 1.71875L5.125 2.5625C5.8125 2.125 6.55208 1.94792 7.34375 2.03125C8.15625 2.09375 8.86458 2.42708 9.46875 3.03125L9.6875 3.25L9.71875 3.21875L10.25 2.6875L11.3125 3.75L10.7812 4.28125L5.78125 9.28125L5.25 9.8125L4.1875 8.75L4.71875 8.21875L4.75 8.1875L4.53125 7.96875C3.92708 7.36458 3.59375 6.65625 3.53125 5.84375C3.44792 5.05208 3.625 4.3125 4.0625 3.625L3.4375 3H1.5V14.75V15.5H0V14.75V2.25V1.5H0.75ZM8.4375 4.09375H8.40625C8.01042 3.69792 7.54167 3.5 7 3.5C6.47917 3.5 6.01042 3.69792 5.59375 4.09375C5.19792 4.51042 5 4.97917 5 5.5C5 6.04167 5.19792 6.51042 5.59375 6.90625L5.8125 7.125L8.625 4.3125L8.4375 4.09375ZM13 6.5C13 6.79167 12.9062 7.03125 12.7188 7.21875C12.5312 7.40625 12.2917 7.5 12 7.5C11.7083 7.5 11.4688 7.40625 11.2812 7.21875C11.0938 7.03125 11 6.79167 11 6.5C11 6.20833 11.0938 5.96875 11.2812 5.78125C11.4688 5.59375 11.7083 5.5 12 5.5C12.2917 5.5 12.5312 5.59375 12.7188 5.78125C12.9062 5.96875 13 6.20833 13 6.5ZM11 8.5C11 8.79167 10.9062 9.03125 10.7188 9.21875C10.5312 9.40625 10.2917 9.5 10 9.5C9.70833 9.5 9.46875 9.40625 9.28125 9.21875C9.09375 9.03125 9 8.79167 9 8.5C9 8.20833 9.09375 7.96875 9.28125 7.78125C9.46875 7.59375 9.70833 7.5 10 7.5C10.2917 7.5 10.5312 7.59375 10.7188 7.78125C10.9062 7.96875 11 8.20833 11 8.5ZM8 11.5C7.70833 11.5 7.46875 11.4062 7.28125 11.2188C7.09375 11.0312 7 10.7917 7 10.5C7 10.2083 7.09375 9.96875 7.28125 9.78125C7.46875 9.59375 7.70833 9.5 8 9.5C8.29167 9.5 8.53125 9.59375 8.71875 9.78125C8.90625 9.96875 9 10.2083 9 10.5C9 10.7917 8.90625 11.0312 8.71875 11.2188C8.53125 11.4062 8.29167 11.5 8 11.5ZM9 14.5C8.70833 14.5 8.46875 14.4062 8.28125 14.2188C8.09375 14.0312 8 13.7917 8 13.5C8 13.2083 8.09375 12.9688 8.28125 12.7812C8.46875 12.5938 8.70833 12.5 9 12.5C9.29167 12.5 9.53125 12.5938 9.71875 12.7812C9.90625 12.9688 10 13.2083 10 13.5C10 13.7917 9.90625 14.0312 9.71875 14.2188C9.53125 14.4062 9.29167 14.5 9 14.5ZM11 12.5C10.7083 12.5 10.4688 12.4062 10.2812 12.2188C10.0938 12.0312 10 11.7917 10 11.5C10 11.2083 10.0938 10.9688 10.2812 10.7812C10.4688 10.5938 10.7083 10.5 11 10.5C11.2917 10.5 11.5312 10.5938 11.7188 10.7812C11.9062 10.9688 12 11.2083 12 11.5C12 11.7917 11.9062 12.0312 11.7188 12.2188C11.5312 12.4062 11.2917 12.5 11 12.5ZM13 10.5C12.7083 10.5 12.4688 10.4062 12.2812 10.2188C12.0938 10.0312 12 9.79167 12 9.5C12 9.20833 12.0938 8.96875 12.2812 8.78125C12.4688 8.59375 12.7083 8.5 13 8.5C13.2917 8.5 13.5312 8.59375 13.7188 8.78125C13.9062 8.96875 14 9.20833 14 9.5C14 9.79167 13.9062 10.0312 13.7188 10.2188C13.5312 10.4062 13.2917 10.5 13 10.5ZM16 7.5C16 7.79167 15.9062 8.03125 15.7188 8.21875C15.5312 8.40625 15.2917 8.5 15 8.5C14.7083 8.5 14.4688 8.40625 14.2812 8.21875C14.0938 8.03125 14 7.79167 14 7.5C14 7.20833 14.0938 6.96875 14.2812 6.78125C14.4688 6.59375 14.7083 6.5 15 6.5C15.2917 6.5 15.5312 6.59375 15.7188 6.78125C15.9062 6.96875 16 7.20833 16 7.5Z"/>
</svg>
