<svg viewBox="0 0 16 17" xmlns="http://www.w3.org/2000/svg">
<path d="M13.5938 0.53125L14.125 1.0625L14.7812 1.71875L15.4375 2.375L15.9688 2.90625L14.9062 3.96875L14.375 3.4375L14.25 3.3125L13.0625 4.5L14.7812 6.21875L15.3125 6.75L14.25 7.8125L13.7188 7.28125L11.4688 5.03125L9.21875 2.78125L8.6875 2.25L9.75 1.1875L10.2812 1.71875L12 3.4375L13.1875 2.25L13.0625 2.125L12.5312 1.59375L13.5938 0.53125ZM8.46875 3.46875L8.5 3.5L9.53125 4.53125L9.125 4.9375L9.84375 5.65625L10.2188 6L9.5 6.71875L9.15625 6.34375L8.4375 5.625L7.125 6.9375L7.84375 7.65625L8.21875 8L7.5 8.71875L7.15625 8.34375L6.4375 7.625L5.125 8.9375L5.84375 9.65625L6.21875 10L5.5 10.7188L5.15625 10.3438L4.4375 9.625L3.5 10.5625V13H5.9375L11.9688 6.96875L13 8L13.0312 8.03125L6.78125 14.2812L6.5625 14.5H6.25H3.0625L1.625 15.9375L1.09375 16.4688L0.03125 15.4062L0.5625 14.875L2 13.4375V10.25V9.9375L2.21875 9.71875L8.46875 3.46875Z"/>
</svg>
