<svg viewBox="0 0 18 17" xmlns="http://www.w3.org/2000/svg">
<path d="M1.5 5.5V6H2H11C11.4167 6 11.7708 5.85417 12.0625 5.5625C12.3333 5.27083 12.4792 4.91667 12.5 4.5C12.5 4.0625 12.3125 3.71875 11.9375 3.46875C11.8125 3.38542 11.6771 3.3125 11.5312 3.25C11.5312 3.27083 11.5208 3.28125 11.5 3.28125C11.4792 3.34375 11.4583 3.40625 11.4375 3.46875C11.2708 3.88542 10.9583 4.26042 10.5 4.59375C10.0208 4.88542 9.52083 5.02083 9 5H2C1.6875 5.02083 1.52083 5.1875 1.5 5.5ZM11.75 1.75C12.375 1.9375 12.9062 2.26042 13.3438 2.71875C13.7604 3.17708 13.9792 3.77083 14 4.5C13.9792 5.35417 13.6875 6.0625 13.125 6.625C12.5625 7.1875 11.8542 7.47917 11 7.5H2H1.5H0V6V5.5C0.0208333 4.9375 0.21875 4.46875 0.59375 4.09375C0.96875 3.71875 1.4375 3.52083 2 3.5H9C9.5625 3.47917 9.91667 3.27083 10.0625 2.875C10.2083 2.45833 10.2708 2 10.25 1.5C10.7708 1.5 11.2708 1.58333 11.75 1.75ZM2.5 9.25V14H3.5V9.25V8.5H5V9.25V14H6V9.25V8.5H7.5V9.25V14H8.5V9.25V8.5H10V9.25V14H11V9.25V8.5H12.5V9.25V14H17.25H18V15.5H17.25H11.75H9.25H6.75H4.25H1.75H0.75H0V14H0.75H1V9.25V8.5H2.5V9.25Z"/>
</svg>
