<svg viewBox="0 0 16 16" xmlns="http://www.w3.org/2000/svg">
<path d="M3 4.96875C3 5.36458 3.09375 5.73958 3.28125 6.09375L4.15625 7.90625L4.21875 8L4.25 8.09375L5.375 14H5.4375L6.53125 10.0625L6.6875 9.5H7.25H8.75H9.3125L9.46875 10.0625L10.5625 14H10.625L11.75 8.125L11.7812 8L11.8438 7.90625L12.6562 6.25C12.8854 5.79167 13 5.32292 13 4.84375C12.9792 4.32292 12.8021 3.88542 12.4688 3.53125C12.1146 3.19792 11.6771 3.02083 11.1562 3H10.8438C10.3021 3 9.82292 3.17708 9.40625 3.53125L9.1875 3.71875L9.46875 3.90625L10.0625 4.34375L9.15625 5.5625L8.5625 5.09375L8.03125 4.71875L7.5625 4.34375L6.5625 3.59375L6.3125 3.40625C5.9375 3.13542 5.52083 3 5.0625 3H4.96875C4.40625 3.02083 3.94792 3.21875 3.59375 3.59375C3.21875 3.94792 3.02083 4.40625 3 4.96875ZM7.96875 2.78125L8.4375 2.375C9.125 1.79167 9.92708 1.5 10.8438 1.5H11.1562C12.1146 1.52083 12.9062 1.84375 13.5312 2.46875C14.1562 3.09375 14.4792 3.88542 14.5 4.84375C14.5 5.57292 14.3333 6.26042 14 6.90625L13.2188 8.5L12 14.9062L11.875 15.5H11.25H10H9.4375L9.28125 14.9375L8.1875 11H7.8125L6.71875 14.9375L6.5625 15.5H6H4.75H4.125L4.03125 14.9062L2.78125 8.5L1.9375 6.78125C1.64583 6.21875 1.5 5.61458 1.5 4.96875C1.52083 3.98958 1.86458 3.17708 2.53125 2.53125C3.17708 1.86458 3.98958 1.52083 4.96875 1.5H5.0625C5.85417 1.5 6.5625 1.73958 7.1875 2.21875L7.4375 2.40625L7.96875 2.78125Z"/>
</svg>
