<svg viewBox="0 0 16 17" xmlns="http://www.w3.org/2000/svg">
<path d="M10.5 4.5C10.4792 3.5625 10.0625 2.84375 9.25 2.34375C8.41667 1.88542 7.58333 1.88542 6.75 2.34375C5.9375 2.84375 5.52083 3.5625 5.5 4.5C5.52083 5.4375 5.9375 6.15625 6.75 6.65625C7.58333 7.11458 8.41667 7.11458 9.25 6.65625C10.0625 6.15625 10.4792 5.4375 10.5 4.5ZM4 4.5C4 3.77083 4.17708 3.10417 4.53125 2.5C4.88542 1.89583 5.375 1.40625 6 1.03125C6.625 0.677083 7.29167 0.5 8 0.5C8.70833 0.5 9.375 0.677083 10 1.03125C10.625 1.40625 11.1146 1.89583 11.4688 2.5C11.8229 3.10417 12 3.77083 12 4.5C12 5.22917 11.8229 5.89583 11.4688 6.5C11.1146 7.10417 10.625 7.59375 10 7.96875C9.375 8.32292 8.70833 8.5 8 8.5C7.29167 8.5 6.625 8.32292 6 7.96875C5.375 7.59375 4.88542 7.10417 4.53125 6.5C4.17708 5.89583 4 5.22917 4 4.5ZM3.03125 15H12.9688L11.9062 11.5H4.125L3.03125 15ZM3 10H13L14.5312 15L15 16.5H13.4375H2.5625H1L1.46875 15L3 10Z"/>
</svg>
