<svg id="Layer_1" xmlns="http://www.w3.org/2000/svg" viewBox="0 0 667.24 100"><defs><style>.cls-1{fill:#fff;}.cls-2{fill:#9cdced;}</style></defs><g><path class="cls-1" d="m131.62,10.22h28.31c5.72,0,10.21,1.61,13.46,4.83,3.26,3.22,4.89,7.53,4.89,12.93,0,2.57-.36,4.74-1.08,6.51-.73,1.77-1.64,3.24-2.76,4.39-1.12,1.15-2.33,2.01-3.65,2.57-1.32.56-2.53.94-3.65,1.14v.59c1.25.07,2.65.39,4.19.99,1.55.59,3.01,1.53,4.39,2.81s2.55,2.93,3.5,4.93,1.43,4.42,1.43,7.25-.45,5.46-1.33,7.89c-.89,2.43-2.12,4.54-3.7,6.31s-3.45,3.17-5.62,4.2-4.54,1.53-7.11,1.53h-31.28V10.22h.01Zm8.29,29.8h19.04c3.29,0,5.86-.82,7.7-2.47,1.84-1.64,2.76-4.01,2.76-7.1v-3.36c0-3.09-.92-5.46-2.76-7.11-1.84-1.64-4.41-2.46-7.7-2.46h-19.04v22.49Zm0,31.77h20.42c3.55,0,6.35-.9,8.39-2.71,2.04-1.81,3.06-4.46,3.06-7.94v-3.36c0-3.49-1.02-6.13-3.06-7.94s-4.83-2.71-8.39-2.71h-20.42v24.66Z"/><path class="cls-1" d="m210.45,80.27c-3.49,0-6.63-.63-9.42-1.87-2.8-1.25-5.2-3.04-7.2-5.38-2.01-2.33-3.55-5.13-4.64-8.39s-1.63-6.92-1.63-11,.54-7.66,1.63-10.95c1.08-3.29,2.63-6.1,4.64-8.43s4.4-4.13,7.2-5.38c2.8-1.25,5.93-1.87,9.42-1.87s6.48.62,9.18,1.87c2.7,1.24,5,2.97,6.9,5.16,1.91,2.19,3.37,4.8,4.39,7.82,1.02,3.01,1.53,6.32,1.53,9.93v3.74h-36.6v2.37c0,2.17.35,4.19,1.04,6.07.69,1.87,1.68,3.5,2.96,4.88,1.28,1.38,2.86,2.47,4.74,3.26,1.87.79,3.99,1.18,6.36,1.18,3.22,0,6.03-.76,8.43-2.27,2.4-1.51,4.26-3.68,5.58-6.51l5.62,4.07c-1.64,3.51-4.21,6.34-7.7,8.49-3.49,2.15-7.63,3.23-12.43,3.23Zm0-46.66c-2.17,0-4.14.38-5.92,1.13s-3.3,1.82-4.59,3.18c-1.28,1.37-2.29,2.99-3.01,4.85-.73,1.86-1.08,3.91-1.08,6.13v.68h28.12v-1.08c0-4.51-1.23-8.12-3.7-10.84s-5.74-4.07-9.82-4.07Z"/><path class="cls-1" d="m252.78,79.08c-2.76,0-4.85-.77-6.27-2.31-1.42-1.54-2.12-3.56-2.12-6.05v-35.53h-8.39v-7h4.74c1.71,0,2.88-.35,3.5-1.04s.94-1.89.94-3.6v-9.48h7.11v14.11h11.15v7h-11.15v36.9h10.36v7h-9.87Z"/><path class="cls-1" d="m283.56,79.08c-2.76,0-4.85-.77-6.27-2.31-1.42-1.54-2.12-3.56-2.12-6.05v-35.53h-8.39v-7h4.74c1.71,0,2.88-.35,3.5-1.04s.94-1.89.94-3.6v-9.48h7.11v14.11h11.15v7h-11.15v36.9h10.36v7h-9.87,0Z"/><path class="cls-1" d="m322.14,80.27c-3.49,0-6.63-.63-9.42-1.87-2.8-1.25-5.2-3.04-7.2-5.38-2.01-2.33-3.55-5.13-4.64-8.39s-1.63-6.92-1.63-11,.54-7.66,1.63-10.95,2.63-6.1,4.64-8.43,4.4-4.13,7.2-5.38c2.8-1.25,5.93-1.87,9.42-1.87s6.48.62,9.18,1.87c2.7,1.24,5,2.97,6.9,5.16,1.91,2.19,3.37,4.8,4.39,7.82,1.02,3.01,1.53,6.32,1.53,9.93v3.74h-36.6v2.37c0,2.17.35,4.19,1.04,6.07.69,1.87,1.68,3.5,2.96,4.88,1.28,1.38,2.86,2.47,4.74,3.26s3.99,1.18,6.36,1.18c3.22,0,6.03-.76,8.43-2.27,2.4-1.51,4.26-3.68,5.58-6.51l5.62,4.07c-1.64,3.51-4.21,6.34-7.7,8.49-3.49,2.15-7.63,3.23-12.43,3.23h0Zm0-46.66c-2.17,0-4.14.38-5.92,1.13s-3.3,1.82-4.59,3.18c-1.28,1.37-2.29,2.99-3.01,4.85-.73,1.86-1.08,3.91-1.08,6.13v.68h28.12v-1.08c0-4.51-1.23-8.12-3.7-10.84s-5.74-4.07-9.82-4.07h0Z"/><path class="cls-1" d="m353.22,79.08V28.17h7.89v9.37h.49c.92-2.43,2.57-4.6,4.93-6.51,2.37-1.91,5.62-2.86,9.77-2.86h3.06v7.89h-4.64c-4.27,0-7.61.8-10.02,2.42-2.4,1.61-3.6,3.64-3.6,6.07v34.53h-7.89Z"/><path class="cls-1" d="m428.79,79.08l-5.52-17.56h-24.47l-5.43,17.56h-13.22l23.09-68.86h16.18l22.89,68.86h-13.52Zm-17.56-57.02h-.49l-8.78,28.31h18.15s-8.88-28.31-8.88-28.31Z"/><path class="cls-1" d="m548.26,83.42c0,2.7-.48,5.08-1.43,7.15-.95,2.07-2.52,3.8-4.69,5.18-2.17,1.38-4.97,2.43-8.39,3.16-3.42.72-7.6,1.08-12.53,1.08-4.34,0-8.02-.28-11.05-.84s-5.51-1.35-7.45-2.37-3.34-2.29-4.19-3.8c-.86-1.51-1.28-3.22-1.28-5.13,0-2.89.8-5.15,2.42-6.76s3.86-2.65,6.76-3.11v-1.08c-2.11-.53-3.73-1.57-4.89-3.11s-1.73-3.38-1.73-5.48c0-1.32.26-2.48.79-3.51s1.23-1.89,2.12-2.62,1.89-1.33,3.01-1.83c1.12-.49,2.3-.87,3.55-1.14v-.39c-3.16-1.45-5.51-3.45-7.05-6.01s-2.32-5.55-2.32-8.97c0-5.25,1.81-9.48,5.43-12.67,3.62-3.19,8.91-4.78,15.88-4.78,1.58,0,3.14.1,4.69.3,1.55.2,2.98.53,4.29.99v-1.68c0-5,2.43-7.5,7.3-7.5h7.99v9.67h-10.95v1.38c2.7,1.51,4.7,3.49,6.02,5.92,1.32,2.43,1.97,5.23,1.97,8.39,0,5.2-1.79,9.37-5.38,12.53-3.58,3.16-8.9,4.74-15.93,4.74-3.02,0-5.66-.3-7.89-.89-.99.46-1.84,1.07-2.57,1.83s-1.08,1.7-1.08,2.81c0,2.57,2.24,3.85,6.71,3.85h13.81c6.31,0,10.9,1.3,13.76,3.9,2.86,2.6,4.29,6.2,4.29,10.8h.02Zm-11.84,1.47c0-1.64-.66-2.93-1.97-3.85-1.32-.92-3.58-1.38-6.8-1.38h-17.56c-1.77,1.32-2.67,3.09-2.67,5.33,0,1.97.82,3.52,2.47,4.64,1.64,1.12,4.44,1.68,8.39,1.68h6.31c4.14,0,7.15-.53,9.02-1.58,1.87-1.05,2.81-2.67,2.81-4.83Zm-15.19-32.46c6.18,0,9.27-2.61,9.27-7.85v-1.67c0-5.23-3.09-7.85-9.27-7.85s-9.27,2.61-9.27,7.85v1.67c0,5.23,3.09,7.85,9.27,7.85Z"/><path class="cls-1" d="m572.83,80.27c-3.82,0-7.22-.64-10.21-1.92-2.99-1.28-5.52-3.09-7.6-5.43-2.07-2.33-3.67-5.16-4.79-8.49-1.12-3.32-1.68-7.05-1.68-11.2s.54-7.76,1.63-11.05c1.08-3.29,2.65-6.1,4.69-8.43,2.04-2.33,4.54-4.14,7.5-5.43s6.31-1.92,10.06-1.92c4.01,0,7.5.69,10.46,2.07,2.96,1.38,5.39,3.26,7.3,5.62,1.91,2.37,3.34,5.11,4.29,8.24s1.43,6.46,1.43,10.02v4.14h-34.23v1.27c0,3.72,1.05,6.71,3.16,8.96,2.11,2.26,5.23,3.38,9.37,3.38,3.16,0,5.74-.65,7.74-1.96,2.01-1.31,3.8-2.97,5.38-4.99l6.8,7.62c-2.11,2.97-4.98,5.3-8.63,6.98-3.65,1.68-7.88,2.52-12.68,2.52h0Zm-.2-44.39c-3.36,0-6.02,1.12-7.99,3.36-1.97,2.24-2.96,5.13-2.96,8.68v.79h21.12v-.89c0-3.55-.87-6.43-2.61-8.63s-4.26-3.3-7.55-3.3h0Z"/><path class="cls-1" d="m615.75,79.08c-4.34,0-7.53-1.08-9.57-3.26-2.04-2.17-3.06-5.23-3.06-9.18V6.08h12.63v62.85h6.8v10.16h-6.8Z"/><path class="cls-1" d="m646.03,80.27c-4.93,0-9.08-.84-12.43-2.52-3.36-1.68-6.31-3.99-8.88-6.96l7.7-7.5c1.91,2.17,3.99,3.88,6.27,5.13,2.27,1.25,4.89,1.87,7.84,1.87s5.21-.53,6.56-1.58c1.35-1.05,2.02-2.5,2.02-4.34,0-1.51-.48-2.71-1.43-3.6s-2.58-1.49-4.89-1.83l-5.13-.69c-5.59-.72-9.85-2.32-12.77-4.79-2.93-2.46-4.39-6.07-4.39-10.8,0-2.5.46-4.75,1.38-6.76.92-2.01,2.24-3.71,3.95-5.13,1.71-1.42,3.77-2.5,6.17-3.26s5.08-1.14,8.04-1.14c2.5,0,4.72.18,6.66.54s3.7.89,5.28,1.58c1.58.69,3.02,1.55,4.34,2.57,1.31,1.02,2.6,2.15,3.85,3.4l-7.4,7.4c-1.51-1.58-3.32-2.89-5.43-3.95-2.11-1.05-4.41-1.58-6.91-1.58-2.76,0-4.75.49-5.97,1.48s-1.83,2.27-1.83,3.85c0,1.71.51,3.01,1.53,3.9,1.02.89,2.74,1.53,5.18,1.92l5.23.69c11.12,1.58,16.68,6.64,16.68,15.19,0,2.5-.51,4.79-1.53,6.86-1.02,2.07-2.45,3.85-4.29,5.33-1.84,1.48-4.06,2.63-6.66,3.45-2.6.82-5.51,1.23-8.73,1.23h0Z"/><path class="cls-1" d="m448.29,79.09V26.4h12.63v4.71l10.02-5.41,21.36,11.52v41.86h-12.63v-32.25c0-5.12-4.7-8.48-8.73-8.48-4.34,0-10.02,2.75-10.02,8.29v32.44h-12.63Z"/></g><g><polygon class="cls-2" points="40.3 41.55 9.25 15.72 0 44.2 40.3 41.55"/><polygon class="cls-2" points="42.47 48.23 8.31 69.77 32.54 87.38 42.47 48.23"/><polygon class="cls-2" points="49.49 48.23 59.42 87.38 83.65 69.77 49.49 48.23"/><polygon class="cls-2" points="51.65 41.55 91.96 44.2 82.7 15.72 51.65 41.55"/><circle class="cls-2" cx="45.98" cy="12.42" r="12.42"/></g></svg>