<svg viewBox="0 0 16 17" xmlns="http://www.w3.org/2000/svg">
<path d="M1.75 0.5H6.5C7.5 0.520833 8.32292 0.864583 8.96875 1.53125C9.63542 2.17708 9.97917 3 10 4C9.97917 4.89583 9.69792 5.65625 9.15625 6.28125C8.59375 6.92708 7.88542 7.32292 7.03125 7.46875L10 10.4375L13.375 7.0625L13.9062 6.53125L14.9688 7.59375L14.4375 8.125L11.0625 11.5L14.4375 14.875L14.9688 15.4062L13.9062 16.4688L13.375 15.9375L10 12.5625L6.625 15.9375L6.09375 16.4688L5.03125 15.4062L5.5625 14.875L8.9375 11.5L4.9375 7.5H2.5V9.75V10.5H1V9.75V6.75V1.25V0.5H1.75ZM6.5 6C7.0625 5.97917 7.53125 5.78125 7.90625 5.40625C8.28125 5.03125 8.47917 4.5625 8.5 4C8.47917 3.4375 8.28125 2.96875 7.90625 2.59375C7.53125 2.21875 7.0625 2.02083 6.5 2H2.5V6H6.5Z"/>
</svg>
