<svg xmlns="http://www.w3.org/2000/svg" width="24" height="24" viewBox="0 0 24 24"><path fill="currentColor" d="M3.833 4h4.49L9.77 7.618l-2.325 1.55A1 1 0 0 0 7 10c.003.094 0 .001 0 .001v.021a2 2 0 0 0 .006.134q.008.124.035.33c.039.27.114.642.26 1.08c.294.88.87 2.019 1.992 3.141s2.261 1.698 3.14 1.992c.439.146.81.22 1.082.26a4 4 0 0 0 .463.04l.013.001h.008s.112-.006.001 0a1 1 0 0 0 .894-.553l.67-1.34l4.436.74v4.32c-2.111.305-7.813.606-12.293-3.874S3.527 6.11 3.833 4m5.24 6.486l1.807-1.204a2 2 0 0 0 .747-2.407L10.18 3.257A2 2 0 0 0 8.323 2H3.781c-.909 0-1.764.631-1.913 1.617c-.34 2.242-.801 8.864 4.425 14.09s11.848 4.764 14.09 4.425c.986-.15 1.617-1.004 1.617-1.913v-4.372a2 2 0 0 0-1.671-1.973l-4.436-.739a2 2 0 0 0-2.118 1.078l-.346.693a5 5 0 0 1-.363-.105c-.62-.206-1.481-.63-2.359-1.508s-1.302-1.739-1.508-2.36a5 5 0 0 1-.125-.447z"/></svg>
